<?xml version="1.0" encoding="UTF-8" standalone="no"?>
<!-- Created with Inkscape (http://www.inkscape.org/) -->

<svg
   xmlns:dc="http://purl.org/dc/elements/1.1/"
   xmlns:cc="http://creativecommons.org/ns#"
   xmlns:rdf="http://www.w3.org/1999/02/22-rdf-syntax-ns#"
   xmlns:svg="http://www.w3.org/2000/svg"
   xmlns="http://www.w3.org/2000/svg"
   xmlns:xlink="http://www.w3.org/1999/xlink"
   xmlns:sodipodi="http://sodipodi.sourceforge.net/DTD/sodipodi-0.dtd"
   xmlns:inkscape="http://www.inkscape.org/namespaces/inkscape"
   width="160"
   height="160"
   id="svg2863"
   sodipodi:version="0.32"
   inkscape:version="0.48.4 r9939"
   version="1.0"
   sodipodi:docname="freebsd.svg"
   inkscape:output_extension="org.inkscape.output.svg.inkscape">
  <defs
     id="defs2865">
    <inkscape:perspective
       sodipodi:type="inkscape:persp3d"
       inkscape:vp_x="0 : 526.18109 : 1"
       inkscape:vp_y="0 : 1000 : 0"
       inkscape:vp_z="744.09448 : 526.18109 : 1"
       inkscape:persp3d-origin="372.04724 : 350.78739 : 1"
       id="perspective2871" />
    <linearGradient
       id="linearGradient6404">
      <stop
         style="stop-color:#002277;stop-opacity:1;"
         offset="0"
         id="stop6406" />
      <stop
         style="stop-color:#0077c1;stop-opacity:1;"
         offset="1"
         id="stop6408" />
    </linearGradient>
    <linearGradient
       inkscape:collect="always"
       xlink:href="#linearGradient6674"
       id="linearGradient3646"
       gradientUnits="userSpaceOnUse"
       x1="19.096775"
       y1="50.580647"
       x2="80.047699"
       y2="66.897575"
       gradientTransform="matrix(0.47313813,0,0,0.47313813,136.1453,61.707799)" />
    <linearGradient
       id="linearGradient6674">
      <stop
         style="stop-color:#008bbf;stop-opacity:1;"
         offset="0"
         id="stop6676" />
      <stop
         style="stop-color:#11fffd;stop-opacity:0;"
         offset="1"
         id="stop6678" />
    </linearGradient>
    <linearGradient
       y2="66.897575"
       x2="80.047699"
       y1="50.580647"
       x1="19.096775"
       gradientTransform="matrix(0.47313813,0,0,0.47313813,136.1453,61.707799)"
       gradientUnits="userSpaceOnUse"
       id="linearGradient4286"
       xlink:href="#linearGradient6674"
       inkscape:collect="always" />
  </defs>
  <sodipodi:namedview
     id="base"
     pagecolor="#000000"
     bordercolor="#666666"
     borderopacity="1.0"
     inkscape:pageopacity="0.70980392"
     inkscape:pageshadow="2"
     inkscape:zoom="0.98994953"
     inkscape:cx="79.87573"
     inkscape:cy="50.401742"
     inkscape:document-units="px"
     inkscape:current-layer="g4253"
     showgrid="true"
     inkscape:window-width="1366"
     inkscape:window-height="713"
     inkscape:window-x="0"
     inkscape:window-y="-3"
     inkscape:window-maximized="1">
    <inkscape:grid
       type="xygrid"
       id="grid2993"
       empspacing="5"
       visible="true"
       enabled="true"
       snapvisiblegridlinesonly="true" />
  </sodipodi:namedview>
  <metadata
     id="metadata2868">
    <rdf:RDF>
      <cc:Work
         rdf:about="">
        <dc:format>image/svg+xml</dc:format>
        <dc:type
           rdf:resource="http://purl.org/dc/dcmitype/StillImage" />
        <dc:title />
      </cc:Work>
    </rdf:RDF>
  </metadata>
  <g
     inkscape:label="Ebene 1"
     inkscape:groupmode="layer"
     id="layer1"
     transform="translate(0,32)">
    <g
       transform="matrix(2.8304744,0,0,2.8304744,-391.0418,-212.18692)"
       id="g4253">
      <path
         inkscape:connector-curvature="0"
         sodipodi:nodetypes="ccccccccc"
         id="rect8666"
         d="m 31.212062,68.34798 43.44959,0 c 2.6431,0 4.77094,2.127838 4.77094,4.770936 l 0,43.449604 c 0,2.64309 -2.12784,4.77094 -4.77094,4.77094 l -43.44959,0 c -2.6431,0 -4.77094,-2.12785 -4.77094,-4.77094 l 0,-43.449604 c 0,-2.643098 2.12784,-4.770936 4.77094,-4.770936 z"
         style="fill:#f2f2f2;fill-opacity:1;stroke:none" />
      <path
         inkscape:connector-curvature="0"
         sodipodi:nodetypes="ccccccccc"
         id="rect9641"
         d="m 130.54916,52.809611 -42.387907,0 c -1.83155,0 -3.30605,1.477439 -3.30605,3.312644 l 0,41.999392 c 0,1.8352 1.4745,3.312643 3.30605,3.312643 l 42.387907,0 c 1.83155,0 3.30604,-1.477443 3.30604,-3.312643 l 0,-41.999392 c 0,-1.835205 -1.4745,-3.312644 -3.30604,-3.312644 z"
         style="fill:#00acff;fill-opacity:1;stroke:none" />
      <g
         transform="translate(2.5248715,27.274861)"
         id="text3493"
         style="font-size:32px;font-style:normal;font-variant:normal;font-weight:bold;font-stretch:normal;line-height:125%;letter-spacing:0px;word-spacing:0px;fill:#1a1d20;fill-opacity:1;stroke:none;font-family:Open Sans;-inkscape-font-specification:Open Sans Bold">
        <path
           inkscape:connector-curvature="0"
           id="path3498"
           style="fill:#1a1d20;fill-opacity:1"
           d="m 51.782728,67.298965 c -2.3e-5,3.781258 -0.937522,6.687505 -2.8125,8.71875 -1.875019,2.031251 -4.562516,3.046875 -8.0625,3.046875 -3.500009,0 -6.187506,-1.015624 -8.0625,-3.046875 -1.875003,-2.031245 -2.812502,-4.947909 -2.8125,-8.75 -2e-6,-3.802068 0.937497,-6.703106 2.8125,-8.703125 1.88541,-2.010394 4.583324,-3.015601 8.09375,-3.015625 3.510401,2.4e-5 6.19269,1.010439 8.046875,3.03125 1.864561,2.020852 2.796852,4.927099 2.796875,8.71875 m -16.671875,0 c -7e-6,2.552093 0.484368,4.473966 1.453125,5.765625 0.968741,1.291672 2.416656,1.937504 4.34375,1.9375 3.864567,4e-6 5.796857,-2.567702 5.796875,-7.703125 -1.8e-5,-5.145816 -1.921891,-7.71873 -5.765625,-7.71875 -1.927094,2e-5 -3.380218,0.651061 -4.359375,1.953125 -0.979174,1.291683 -1.468757,3.213556 -1.46875,5.765625" />
        <path
           inkscape:connector-curvature="0"
           id="path3500"
           style="fill:#1a1d20;fill-opacity:1"
           d="m 70.032728,72.40834 c -1.6e-5,2.062505 -0.744807,3.687503 -2.234375,4.875 -1.479179,1.187501 -3.541677,1.78125 -6.1875,1.78125 -2.437505,0 -4.593753,-0.458333 -6.46875,-1.375 l 0,-4.5 c 1.541664,0.687505 2.843746,1.17188 3.90625,1.453125 1.07291,0.281254 2.052076,0.421879 2.9375,0.421875 1.062491,4e-6 1.87499,-0.203121 2.4375,-0.609375 0.572906,-0.406245 0.859364,-1.010411 0.859375,-1.8125 -1.1e-5,-0.44791 -0.125011,-0.843743 -0.375,-1.1875 -0.250011,-0.354159 -0.619802,-0.6927 -1.109375,-1.015625 -0.479176,-0.322908 -1.46355,-0.838532 -2.953125,-1.546875 -1.395839,-0.656239 -2.442713,-1.286447 -3.140625,-1.890625 -0.69792,-0.604154 -1.255211,-1.307278 -1.671875,-2.109375 -0.416668,-0.802068 -0.625002,-1.739567 -0.625,-2.8125 -2e-6,-2.020814 0.682289,-3.609354 2.046875,-4.765625 1.374995,-1.156227 3.270826,-1.734351 5.6875,-1.734375 1.18749,2.4e-5 2.317697,0.140648 3.390625,0.421875 1.08332,0.281273 2.213527,0.677106 3.390625,1.1875 l -1.5625,3.765625 c -1.218763,-0.499981 -2.229179,-0.848939 -3.03125,-1.046875 -0.791677,-0.197897 -1.572927,-0.296855 -2.34375,-0.296875 -0.916675,2e-5 -1.619799,0.213561 -2.109375,0.640625 -0.48959,0.427102 -0.734381,0.984393 -0.734375,1.671875 -6e-6,0.4271 0.09895,0.8021 0.296875,1.125 0.19791,0.312516 0.51041,0.619807 0.9375,0.921875 0.437492,0.291682 1.463533,0.822931 3.078125,1.59375 2.135404,1.020846 3.598944,2.046887 4.390625,3.078125 0.791651,1.020843 1.187484,2.27605 1.1875,3.765625" />
      </g>
      <g
         style="font-size:50.87486267px;font-style:normal;font-variant:normal;font-weight:bold;font-stretch:normal;text-align:start;line-height:125%;letter-spacing:-2.47308373px;word-spacing:0px;writing-mode:lr-tb;text-anchor:start;fill:#f2f2f2;fill-opacity:1;stroke:none;font-family:Open Sans;-inkscape-font-specification:Open Sans Bold"
         id="text2998"
         transform="matrix(0.56506742,0,0,0.56506742,85.035056,66.215944)">
        <path
           d="m 100.32923,27.341723 11.30276,0 c 5.1504,3.7e-5 8.88486,0.736993 11.2034,2.210871 2.33505,1.457385 3.50259,3.784179 3.50262,6.980389 -3e-5,2.169493 -0.51342,3.94978 -1.54016,5.340867 -1.01024,1.391129 -2.35995,2.22745 -4.04912,2.508965 l 0,0.248412 c 2.30192,0.513405 3.95801,1.473932 4.96825,2.881584 1.02674,1.407685 1.54012,3.279057 1.54015,5.614121 -3e-5,3.312173 -1.20069,5.895659 -3.60198,7.750467 -2.38478,1.854814 -5.6307,2.782219 -9.73776,2.782219 l -13.58816,0 0,-36.317895 m 7.70078,14.383079 4.47142,0 c 2.08665,2.2e-5 3.59368,-0.322914 4.52111,-0.968808 0.94395,-0.645849 1.41593,-1.714021 1.41595,-3.20452 -2e-5,-1.391083 -0.51341,-2.384731 -1.54016,-2.980949 -1.01023,-0.612721 -2.61662,-0.919096 -4.8192,-0.919126 l -4.04912,0 0,8.073403 m 0,6.110946 0,9.464513 5.01793,0 c 2.11977,6e-6 3.68477,-0.405734 4.695,-1.217221 1.01018,-0.811472 1.51529,-2.053533 1.51531,-3.726187 -2e-5,-3.014056 -2.15293,-4.52109 -6.45872,-4.521105 l -4.76952,0"
           id="path3799"
           inkscape:connector-curvature="0"
           style="fill:#f2f2f2" />
        <path
           d="m 153.47568,53.574074 c -2e-5,3.279051 -1.18412,5.862538 -3.55229,7.750468 -2.35166,1.887934 -5.6307,2.831901 -9.83714,2.831901 -3.87524,0 -7.30333,-0.728676 -10.28427,-2.186029 l 0,-7.154278 c 2.451,1.093023 4.5211,1.8631 6.21031,2.310236 1.70576,0.447148 3.26247,0.670719 4.67015,0.670713 1.68919,6e-6 2.98094,-0.32293 3.87524,-0.968808 0.91083,-0.645865 1.36625,-1.606392 1.36627,-2.881584 -2e-5,-0.712105 -0.19875,-1.341416 -0.59619,-1.887934 -0.39748,-0.563056 -0.98539,-1.101283 -1.76373,-1.614681 -0.76182,-0.513372 -2.32681,-1.333132 -4.695,-2.459283 -2.21916,-1.043315 -3.88352,-2.045245 -4.99309,-3.00579 -1.10958,-0.960509 -1.99558,-2.078363 -2.65801,-3.353568 -0.66244,-1.27516 -0.99365,-2.765633 -0.99365,-4.471423 0,-3.212771 1.08473,-5.738295 3.2542,-7.576579 2.18603,-1.838216 5.20009,-2.757341 9.04222,-2.757378 1.88791,3.7e-5 3.68476,0.223608 5.39055,0.670714 1.7223,0.447178 3.51915,1.076489 5.39054,1.887934 l -2.48412,5.986739 c -1.93764,-0.79489 -3.54404,-1.349678 -4.8192,-1.664363 -1.25864,-0.314625 -2.5007,-0.471953 -3.72619,-0.471984 -1.45736,3.1e-5 -2.57522,0.339528 -3.35356,1.018491 -0.77837,0.679023 -1.16755,1.565026 -1.16754,2.658013 -1e-5,0.67902 0.15732,1.275209 0.47198,1.78857 0.31465,0.496849 0.81147,0.985393 1.49048,1.465633 0.69554,0.463726 2.32678,1.308327 4.89372,2.533807 3.39495,1.62298 5.72174,3.25422 6.98039,4.893724 1.2586,1.622976 1.88791,3.618553 1.88793,5.986739"
           id="path3801"
           inkscape:connector-curvature="0"
           style="fill:#f2f2f2" />
        <path
           d="m 187.71795,45.152893 c -3e-5,5.978472 -1.70579,10.557536 -5.11729,13.737207 -3.395,3.179681 -8.30528,4.769518 -14.73086,4.769518 l -10.28427,0 0,-36.317895 11.40213,0 c 5.92875,3.7e-5 10.53266,1.565033 13.81173,4.694995 3.27901,3.130025 4.91853,7.502079 4.91856,13.116175 m -7.99888,0.19873 c -2e-5,-7.800123 -3.44467,-11.700194 -10.33395,-11.700224 l -4.09881,0 0,23.648862 3.30389,0 c 7.41923,6e-6 11.12885,-3.982869 11.12887,-11.948638"
           id="path3803"
           inkscape:connector-curvature="0"
           style="fill:#f2f2f2" />
      </g>
    </g>
  </g>
</svg>
