<?xml version="1.0" encoding="UTF-8" standalone="no"?>
<svg
   xmlns:dc="http://purl.org/dc/elements/1.1/"
   xmlns:cc="http://creativecommons.org/ns#"
   xmlns:rdf="http://www.w3.org/1999/02/22-rdf-syntax-ns#"
   xmlns:svg="http://www.w3.org/2000/svg"
   xmlns="http://www.w3.org/2000/svg"
   xmlns:sodipodi="http://sodipodi.sourceforge.net/DTD/sodipodi-0.dtd"
   xmlns:inkscape="http://www.inkscape.org/namespaces/inkscape"
   version="1.1"
   viewBox="0 0 160 160"
   id="svg2"
   inkscape:version="0.48.4 r9939"
   width="100%"
   height="100%"
   sodipodi:docname="gnu-linux.svg">
  <metadata
     id="metadata1738">
    <rdf:RDF>
      <cc:Work
         rdf:about="">
        <dc:format>image/svg+xml</dc:format>
        <dc:type
           rdf:resource="http://purl.org/dc/dcmitype/StillImage" />
        <dc:title>Tux</dc:title>
      </cc:Work>
    </rdf:RDF>
  </metadata>
  <defs
     id="defs1736" />
  <sodipodi:namedview
     pagecolor="#0c0c0c"
     bordercolor="#666666"
     borderopacity="1"
     objecttolerance="10"
     gridtolerance="10"
     guidetolerance="10"
     inkscape:pageopacity="0.10980392"
     inkscape:pageshadow="2"
     inkscape:window-width="1366"
     inkscape:window-height="713"
     id="namedview1734"
     showgrid="true"
     inkscape:zoom="1.4142136"
     inkscape:cx="41.415017"
     inkscape:cy="79.104895"
     inkscape:window-x="0"
     inkscape:window-y="-3"
     inkscape:window-maximized="1"
     inkscape:current-layer="g3953">
    <inkscape:grid
       type="xygrid"
       id="grid6244"
       empspacing="5"
       visible="true"
       enabled="true"
       snapvisiblegridlinesonly="true" />
  </sodipodi:namedview>
  <title
     id="title4">Tux</title>
  <desc
     id="desc6">For more information see: http://commons.wikimedia.org/wiki/Image:Tux.svg</desc>
  <radialGradient
     id="SVGID_1_"
     cx="274.82199"
     cy="-551.03961"
     r="165.384"
     gradientTransform="matrix(0.5671,0,0,-0.2835,226.32885,371.62366)"
     gradientUnits="userSpaceOnUse">
    <stop
       offset="0"
       stop-color="#000000"
       stop-opacity="0.502"
       id="stop9" />
    <stop
       offset="1"
       stop-color="#000000"
       stop-opacity="0"
       id="stop11" />
  </radialGradient>
  <radialGradient
     id="SVGID_2_"
     cx="268.7937"
     cy="-551.0415"
     r="165.3826"
     gradientTransform="matrix(0.5823,0,0,-0.2835,42.142846,430.1442)"
     gradientUnits="userSpaceOnUse">
    <stop
       offset="0"
       stop-color="#000000"
       stop-opacity="0.502"
       id="stop16" />
    <stop
       offset="1"
       stop-color="#000000"
       stop-opacity="0"
       id="stop18" />
  </radialGradient>
  <g
     id="g6246"
     transform="matrix(0.38387045,0,0,0.38387045,10.884591,98.947777)">
    <rect
       style="fill:#ffffff;fill-opacity:1;fill-rule:nonzero;stroke:none"
       id="rect3938"
       width="334.564"
       height="321.18201"
       x="-662.12042"
       y="-224.71107" />
    <path
       style="fill:#00acff;fill-opacity:1;stroke:none"
       d="m -541.2727,-215.23436 0,191.823395 195.11662,0 195.1166,0 0,-191.823395 0,-191.82364 -195.1166,0 -195.11662,0 z"
       id="path3169"
       inkscape:connector-curvature="0" />
    <g
       id="g3953"
       transform="matrix(1.3793088,0,0,1.3793088,-68.655822,22.109341)">
      <path
         id="path3167"
         d="m 202.16378,-181.59434 c 44.87243,7.37205 84.29599,39.26337 101.12324,81.892166 11.53868,29.006829 12.33999,61.379014 2.40385,91.5076884 -4.32706,13.1412231 -14.74379,32.5324876 -17.30788,32.5324876 -2.56416,-0.160233 -19.71181,-26.6029077 -22.43627,-34.61587 -1.44232,-4.166698 -3.2052,-18.109202 -4.00641,-32.852994 -3.20532,-52.564926 -5.42357,-68.623168 -28.2056,-91.988488 -23.43402,-23.09924 -58.23208,-30.60387 -87.98196,-15.38478 -11.69894,5.76915 -27.72474,21.31434 -33.33375,32.37219 -8.65384,17.14765 -9.45537,23.718244 -8.81418,79.969043 l 0.48068,51.603328 -4.326982,6.250028 c -2.403856,3.365508 -7.211734,9.455313 -10.577043,13.301539 l -6.25003,7.211475 -7.532202,-9.61525 C 65.302902,17.927699 54.565719,-4.6687713 51.039873,-20.534438 47.674512,-35.758991 47.353965,-64.285014 50.238633,-78.227545 61.456722,-130.3116 105.52791,-172.78028 157.29135,-181.59434 c 11.21815,-1.76297 33.33391,-1.76297 44.87243,0 z"
         style="fill:#f2f2f2;fill-opacity:1;stroke:none"
         inkscape:connector-curvature="0" />
      <path
         id="path12"
         d="m 208.89458,-79.830113 c 9.93609,8.493709 12.33992,27.083727 5.60924,43.9109 l -2.56425,6.570576 4.96808,5.609067 c 5.76936,6.730948 5.60907,5.769188 2.40382,16.8271851 -3.52573,11.8591224 -2.24355,16.9873549 8.81417,36.8593529 10.417,18.429841 16.667,33.013414 15.38492,35.256988 -1.60257,2.564108 -25.00023,11.378345 -37.18003,13.782316 -15.3848,3.205076 -47.59676,2.243581 -62.18035,-1.762872 -10.57709,-3.044942 -24.67986,-9.615588 -36.37871,-16.987497 l -7.5322,-4.807722 3.52589,-7.532118 c 1.92296,-4.166777 5.60883,-10.897549 8.01271,-15.224581 5.60917,-9.455255 8.17327,-9.615515 25.16069,-1.121823 13.94238,7.051391 21.1541,8.012986 29.32734,3.685885 9.29497,-4.807701 42.78895,-27.7246486 42.78895,-29.3272905 0,-3.365337 -7.05134,-1.2819963 -27.08373,8.0129475 -25.80152,11.859181 -29.6477,12.179664 -43.26974,3.044877 -5.28852,-3.525647 -9.7758,-7.2116096 -9.7758,-8.0128925 0,-1.923124 0.32051,-1.923124 11.5387,1.9230105 6.7308,2.243719 11.69886,2.884756 15.38477,2.243719 6.89105,-1.282028 49.8405,-19.7118159 53.2058,-22.5965185 4.80783,-4.6474595 -5.44868,-2.2435685 -26.28234,5.9296183 -31.57094,12.5001707 -34.9364,12.3398997 -56.57129,-2.0834032 -10.09629,-6.7308516 -11.69888,-8.4936746 -11.69888,-12.5002066 0,-3.044823 1.44233,-5.608975 4.16663,-7.852567 l 4.32701,-3.365475 -3.36539,-7.692371 c -9.93608,-22.917053 -3.36541,-43.590387 13.622,-43.590387 10.0962,0 15.38483,7.371913 16.50663,23.07716 l 0.80121,11.057922 11.21812,0 11.21814,0 0.48086,-5.448769 c 0.96148,-14.102742 2.40386,-19.391322 6.25008,-24.038711 5.12825,-5.929648 8.81421,-7.692512 17.6284,-7.692512 4.80775,-0.160257 7.8527,0.961565 11.53855,3.846192 z"
         style="fill:#f2f2f2;fill-opacity:1;stroke:none"
         inkscape:connector-curvature="0" />
      <path
         id="path3173"
         d="m 125.88074,-59.637497 c -4.8078,5.128262 -4.64751,15.865572 0.32048,21.634869 l 3.84616,4.327027 5.76935,-4.327027 c 4.96813,-3.846133 5.92947,-5.448772 5.92947,-10.577053 0,-10.897564 -9.77552,-17.628429 -15.86546,-11.057816 z"
         style="fill:#1a1d20;fill-opacity:1;stroke:none"
         inkscape:connector-curvature="0" />
      <path
         id="path3171"
         d="m 190.94573,-63.483721 c -3.84625,0.961562 -7.53218,8.653991 -7.53218,15.705346 0,5.288496 0.48084,5.929614 8.97443,9.615478 4.96805,2.243684 9.61553,3.685938 10.2566,3.205226 2.72439,-1.602529 5.12829,-12.339913 4.16667,-17.628441 -0.64098,-3.044953 -2.8846,-6.891133 -5.28855,-8.814217 -4.16667,-3.205192 -5.28849,-3.525729 -10.57697,-2.083392 z"
         style="fill:#1a1d20;fill-opacity:1;stroke:none"
         inkscape:connector-curvature="0" />
    </g>
  </g>
</svg>
