<?xml version="1.0" encoding="UTF-8" standalone="no"?>
<!-- Created with Inkscape (http://www.inkscape.org/) -->

<svg
   xmlns:dc="http://purl.org/dc/elements/1.1/"
   xmlns:cc="http://creativecommons.org/ns#"
   xmlns:rdf="http://www.w3.org/1999/02/22-rdf-syntax-ns#"
   xmlns:svg="http://www.w3.org/2000/svg"
   xmlns="http://www.w3.org/2000/svg"
   xmlns:xlink="http://www.w3.org/1999/xlink"
   xmlns:sodipodi="http://sodipodi.sourceforge.net/DTD/sodipodi-0.dtd"
   xmlns:inkscape="http://www.inkscape.org/namespaces/inkscape"
   width="160"
   height="160"
   id="svg2863"
   sodipodi:version="0.32"
   inkscape:version="0.48.4 r9939"
   version="1.0"
   sodipodi:docname="memtest.svg"
   inkscape:output_extension="org.inkscape.output.svg.inkscape">
  <defs
     id="defs2865">
    <inkscape:perspective
       sodipodi:type="inkscape:persp3d"
       inkscape:vp_x="0 : 526.18109 : 1"
       inkscape:vp_y="0 : 1000 : 0"
       inkscape:vp_z="744.09448 : 526.18109 : 1"
       inkscape:persp3d-origin="372.04724 : 350.78739 : 1"
       id="perspective2871" />
    <linearGradient
       id="linearGradient6404">
      <stop
         style="stop-color:#002277;stop-opacity:1;"
         offset="0"
         id="stop6406" />
      <stop
         style="stop-color:#0077c1;stop-opacity:1;"
         offset="1"
         id="stop6408" />
    </linearGradient>
    <linearGradient
       inkscape:collect="always"
       xlink:href="#linearGradient6674"
       id="linearGradient3646"
       gradientUnits="userSpaceOnUse"
       x1="19.096775"
       y1="50.580647"
       x2="80.047699"
       y2="66.897575"
       gradientTransform="matrix(0.47313813,0,0,0.47313813,136.1453,61.707799)" />
    <linearGradient
       id="linearGradient6674">
      <stop
         style="stop-color:#008bbf;stop-opacity:1;"
         offset="0"
         id="stop6676" />
      <stop
         style="stop-color:#11fffd;stop-opacity:0;"
         offset="1"
         id="stop6678" />
    </linearGradient>
    <linearGradient
       y2="66.897575"
       x2="80.047699"
       y1="50.580647"
       x1="19.096775"
       gradientTransform="matrix(0.47313813,0,0,0.47313813,136.1453,61.707799)"
       gradientUnits="userSpaceOnUse"
       id="linearGradient4286"
       xlink:href="#linearGradient6674"
       inkscape:collect="always" />
  </defs>
  <sodipodi:namedview
     id="base"
     pagecolor="#000000"
     bordercolor="#666666"
     borderopacity="1.0"
     inkscape:pageopacity="0.71372549"
     inkscape:pageshadow="2"
     inkscape:zoom="0.98994953"
     inkscape:cx="82.934519"
     inkscape:cy="75.558693"
     inkscape:document-units="px"
     inkscape:current-layer="g4253"
     showgrid="true"
     inkscape:window-width="1366"
     inkscape:window-height="713"
     inkscape:window-x="0"
     inkscape:window-y="-3"
     inkscape:window-maximized="1">
    <inkscape:grid
       type="xygrid"
       id="grid2993"
       empspacing="5"
       visible="true"
       enabled="true"
       snapvisiblegridlinesonly="true" />
  </sodipodi:namedview>
  <metadata
     id="metadata2868">
    <rdf:RDF>
      <cc:Work
         rdf:about="">
        <dc:format>image/svg+xml</dc:format>
        <dc:type
           rdf:resource="http://purl.org/dc/dcmitype/StillImage" />
        <dc:title />
      </cc:Work>
    </rdf:RDF>
  </metadata>
  <g
     inkscape:label="Ebene 1"
     inkscape:groupmode="layer"
     id="layer1"
     transform="translate(0,32)">
    <g
       transform="matrix(2.8304744,0,0,2.8304744,-391.0418,-212.18692)"
       id="g4253">
      <path
         inkscape:connector-curvature="0"
         sodipodi:nodetypes="ccccccccc"
         id="rect9641"
         d="m 128.94318,65.657454 -42.387907,0 c -1.83155,0 -3.30605,1.477439 -3.30605,3.312644 l 0,41.999392 c 0,1.8352 1.4745,3.31264 3.30605,3.31264 l 42.387907,0 c 1.83155,0 3.30604,-1.47744 3.30604,-3.31264 l 0,-41.999392 c 0,-1.835205 -1.4745,-3.312644 -3.30604,-3.312644 z"
         style="fill:#00acff;fill-opacity:1;stroke:none" />
      <g
         transform="translate(59.486525,21.643875)"
         id="text3493"
         style="font-size:32px;font-style:normal;font-variant:normal;font-weight:bold;font-stretch:normal;line-height:125%;letter-spacing:0px;word-spacing:0px;fill:#1a1d20;fill-opacity:1;stroke:none;font-family:Open Sans;-inkscape-font-specification:Open Sans Bold">
        <path
           inkscape:connector-curvature="0"
           id="path3498"
           style="fill:#1a1d20;fill-opacity:1"
           d="m 51.782728,67.298965 c -2.3e-5,3.781258 -0.937522,6.687505 -2.8125,8.71875 -1.875019,2.031251 -4.562516,3.046875 -8.0625,3.046875 -3.500009,0 -6.187506,-1.015624 -8.0625,-3.046875 -1.875003,-2.031245 -2.812502,-4.947909 -2.8125,-8.75 -2e-6,-3.802068 0.937497,-6.703106 2.8125,-8.703125 1.88541,-2.010394 4.583324,-3.015601 8.09375,-3.015625 3.510401,2.4e-5 6.19269,1.010439 8.046875,3.03125 1.864561,2.020852 2.796852,4.927099 2.796875,8.71875 m -16.671875,0 c -7e-6,2.552093 0.484368,4.473966 1.453125,5.765625 0.968741,1.291672 2.416656,1.937504 4.34375,1.9375 3.864567,4e-6 5.796857,-2.567702 5.796875,-7.703125 -1.8e-5,-5.145816 -1.921891,-7.71873 -5.765625,-7.71875 -1.927094,2e-5 -3.380218,0.651061 -4.359375,1.953125 -0.979174,1.291683 -1.468757,3.213556 -1.46875,5.765625" />
        <path
           inkscape:connector-curvature="0"
           id="path3500"
           style="fill:#1a1d20;fill-opacity:1"
           d="m 70.032728,72.40834 c -1.6e-5,2.062505 -0.744807,3.687503 -2.234375,4.875 -1.479179,1.187501 -3.541677,1.78125 -6.1875,1.78125 -2.437505,0 -4.593753,-0.458333 -6.46875,-1.375 l 0,-4.5 c 1.541664,0.687505 2.843746,1.17188 3.90625,1.453125 1.07291,0.281254 2.052076,0.421879 2.9375,0.421875 1.062491,4e-6 1.87499,-0.203121 2.4375,-0.609375 0.572906,-0.406245 0.859364,-1.010411 0.859375,-1.8125 -1.1e-5,-0.44791 -0.125011,-0.843743 -0.375,-1.1875 -0.250011,-0.354159 -0.619802,-0.6927 -1.109375,-1.015625 -0.479176,-0.322908 -1.46355,-0.838532 -2.953125,-1.546875 -1.395839,-0.656239 -2.442713,-1.286447 -3.140625,-1.890625 -0.69792,-0.604154 -1.255211,-1.307278 -1.671875,-2.109375 -0.416668,-0.802068 -0.625002,-1.739567 -0.625,-2.8125 -2e-6,-2.020814 0.682289,-3.609354 2.046875,-4.765625 1.374995,-1.156227 3.270826,-1.734351 5.6875,-1.734375 1.18749,2.4e-5 2.317697,0.140648 3.390625,0.421875 1.08332,0.281273 2.213527,0.677106 3.390625,1.1875 l -1.5625,3.765625 c -1.218763,-0.499981 -2.229179,-0.848939 -3.03125,-1.046875 -0.791677,-0.197897 -1.572927,-0.296855 -2.34375,-0.296875 -0.916675,2e-5 -1.619799,0.213561 -2.109375,0.640625 -0.48959,0.427102 -0.734381,0.984393 -0.734375,1.671875 -6e-6,0.4271 0.09895,0.8021 0.296875,1.125 0.19791,0.312516 0.51041,0.619807 0.9375,0.921875 0.437492,0.291682 1.463533,0.822931 3.078125,1.59375 2.135404,1.020846 3.598944,2.046887 4.390625,3.078125 0.791651,1.020843 1.187484,2.27605 1.1875,3.765625" />
      </g>
      <rect
         style="fill:#f2f2f2;fill-opacity:1;fill-rule:evenodd;stroke:none"
         id="rect2998"
         width="140"
         height="80"
         x="9.9999866"
         y="40"
         transform="matrix(0.35329767,0,0,0.35329767,138.15416,63.659618)"
         rx="1.050296e-06" />
      <rect
         style="fill:#f2f2f2;fill-opacity:1;fill-rule:evenodd;stroke:none"
         id="rect3016"
         width="10"
         height="30"
         x="25"
         y="20"
         transform="matrix(0.35329767,0,0,0.35329767,138.15416,63.659618)"
         rx="7.21601e-10" />
      <rect
         style="fill:#f2f2f2;fill-opacity:1;fill-rule:evenodd;stroke:none"
         id="rect3018"
         width="10"
         height="30"
         x="125"
         y="20"
         transform="matrix(0.35329767,0,0,0.35329767,138.15416,63.659618)"
         rx="2.5493996e-10" />
      <rect
         style="fill:#f2f2f2;fill-opacity:1;fill-rule:evenodd;stroke:none"
         id="rect3020"
         width="10"
         height="25"
         x="45"
         y="20"
         transform="matrix(0.35329767,0,0,0.35329767,138.15416,63.659618)"
         rx="9.0069695e-11" />
      <rect
         style="fill:#f2f2f2;fill-opacity:1;fill-rule:evenodd;stroke:none"
         id="rect3022"
         width="10"
         height="25"
         x="65"
         y="20"
         transform="matrix(0.35329767,0,0,0.35329767,138.15416,63.659618)"
         rx="3.1821414e-11" />
      <rect
         style="fill:#f2f2f2;fill-opacity:1;fill-rule:evenodd;stroke:none"
         id="rect3024"
         width="10"
         height="30"
         x="85"
         y="20"
         transform="matrix(0.35329767,0,0,0.35329767,138.15416,63.659618)"
         rx="1.1242431e-11" />
      <rect
         style="fill:#f2f2f2;fill-opacity:1;fill-rule:evenodd;stroke:none"
         id="rect3026"
         width="10"
         height="30"
         x="105"
         y="20"
         transform="matrix(0.35329767,0,0,0.35329767,138.15416,63.659618)"
         rx="3.9719244e-12" />
      <rect
         style="fill:#f2f2f2;fill-opacity:1;fill-rule:evenodd;stroke:none"
         id="rect3028"
         width="10"
         height="25"
         x="25"
         y="115"
         transform="matrix(0.35329767,0,0,0.35329767,138.15416,63.659618)"
         rx="1.4032716e-12" />
      <rect
         style="fill:#f2f2f2;fill-opacity:1;fill-rule:evenodd;stroke:none"
         id="rect3032"
         width="10"
         height="25"
         x="45"
         y="115"
         transform="matrix(0.35329767,0,0,0.35329767,138.15416,63.659618)"
         rx="1.751553e-13" />
      <rect
         style="fill:#f2f2f2;fill-opacity:1;fill-rule:evenodd;stroke:none"
         id="rect3034"
         width="10"
         height="25"
         x="65"
         y="115"
         transform="matrix(0.35329767,0,0,0.35329767,138.15416,63.659618)"
         rx="6.1881957e-14" />
      <rect
         style="fill:#f2f2f2;fill-opacity:1;fill-rule:evenodd;stroke:none"
         id="rect3036"
         width="10"
         height="25"
         x="85"
         y="115"
         transform="matrix(0.35329767,0,0,0.35329767,138.15416,63.659618)"
         rx="2.186275e-14" />
      <rect
         style="fill:#f2f2f2;fill-opacity:1;fill-rule:evenodd;stroke:none"
         id="rect3038"
         width="10"
         height="25"
         x="105"
         y="115"
         transform="matrix(0.35329767,0,0,0.35329767,138.15416,63.659618)"
         rx="7.7240587e-15" />
      <rect
         style="fill:#f2f2f2;fill-opacity:1;fill-rule:evenodd;stroke:none"
         id="rect3040"
         width="10"
         height="20"
         x="125"
         y="120"
         transform="matrix(0.35329767,0,0,0.35329767,138.15416,63.659618)"
         rx="2.728892e-15" />
      <rect
         style="fill:#1a1d20;fill-opacity:1;fill-rule:evenodd;stroke:none"
         id="rect3042"
         width="120"
         height="60"
         x="20"
         y="50"
         transform="matrix(0.35329767,0,0,0.35329767,138.15416,63.659618)"
         rx="9.6411122e-16" />
      <g
         id="g7930"
         transform="matrix(0.01800415,0,0,0.01800415,181.26847,82.800562)"
         style="fill:none;stroke:#f2f2f2;stroke-width:9.81156158;stroke-miterlimit:4;stroke-opacity:1;stroke-dasharray:none">
        <path
           inkscape:connector-curvature="0"
           id="path7811"
           d="m -1537.1103,788.42876 c 40.1398,-29.0813 9.6998,-27.5339 5.6137,-74.0062 -3.9023,-44.383 -128.7878,130.9195 -147.4765,38.8494 3.4347,78.1657 101.3416,64.5144 141.8628,35.1568 z"
           style="fill:none;stroke:#f2f2f2;stroke-width:9.81156158;stroke-miterlimit:4;stroke-opacity:1;stroke-dasharray:none"
           sodipodi:nodetypes="cscz" />
        <path
           inkscape:connector-curvature="0"
           sodipodi:nodetypes="cscz"
           style="fill:none;stroke:#f2f2f2;stroke-width:9.81156158;stroke-miterlimit:4;stroke-opacity:1;stroke-dasharray:none"
           d="m -1671.7979,878.79966 c 40.0619,29.1885 29.1837,0.7166 72.1188,-17.5303 41.0049,-17.4265 -164.3094,-82.0281 -82.5207,-128.2534 -73.2786,27.4212 -30.0406,116.3177 10.4019,145.7837 z"
           id="path7813" />
        <path
           inkscape:connector-curvature="0"
           id="path7815"
           d="m -1799.376,778.62596 c -15.3802,47.1208 8.3367,27.9768 38.9581,63.1719 29.2448,33.6129 27.239,-181.6157 96.476,-118.1143 -48.7234,-61.2185 -119.9078,7.3738 -135.4341,54.9424 z"
           style="fill:none;stroke:#f2f2f2;stroke-width:9.81156158;stroke-miterlimit:4;stroke-opacity:1;stroke-dasharray:none"
           sodipodi:nodetypes="cscz" />
        <path
           inkscape:connector-curvature="0"
           sodipodi:nodetypes="cscz"
           style="fill:none;stroke:#f2f2f2;stroke-width:9.81156158;stroke-miterlimit:4;stroke-opacity:1;stroke-dasharray:none"
           d="m -1743.5212,626.34656 c -49.5674,-0.0663 -24.0314,16.574 -48.0414,56.5726 -22.9306,38.2004 181.1441,-30.2165 142.1461,55.2547 43.166,-65.2562 -44.0664,-111.7604 -94.1047,-111.8273 z"
           id="path7817" />
        <path
           inkscape:connector-curvature="0"
           id="path7819"
           d="m -1581.4462,632.39636 c -15.2541,-47.1618 -23.1889,-17.7336 -68.6494,-28.2082 -43.4167,-10.0037 84.7142,162.9409 -8.6248,152.2637 75.4014,20.8879 92.6732,-76.4455 77.2742,-124.0555 z"
           style="fill:none;stroke:#f2f2f2;stroke-width:9.81156158;stroke-miterlimit:4;stroke-opacity:1;stroke-dasharray:none"
           sodipodi:nodetypes="cscz" />
      </g>
      <g
         transform="matrix(0.33523627,0,0,0.33523627,123.11139,62.046801)"
         style="font-size:18px;font-style:normal;font-variant:normal;font-weight:normal;font-stretch:normal;text-align:start;line-height:125%;letter-spacing:0px;word-spacing:0px;writing-mode:lr-tb;text-anchor:start;fill:#f2f2f2;fill-opacity:1;stroke:none;font-family:Oxygen Mono;-inkscape-font-specification:Oxygen Mono"
         id="text3829">
        <path
           d="m 79.954414,70.968254 -2.25,11.25 -1.634765,0 2.61914,-13.104492 2.241211,0 0.641602,6.143555 3.102539,-6.143555 2.188476,0 -2.61914,13.104492 -1.59082,0 2.25,-11.25 -2.689454,5.660156 -1.836914,0 -0.421875,-5.660156"
           style="font-size:18px;font-style:italic;font-variant:normal;font-weight:normal;font-stretch:normal;text-align:start;line-height:125%;writing-mode:lr-tb;text-anchor:start;font-family:Oxygen Mono;-inkscape-font-specification:Oxygen Mono Italic"
           id="path3838"
           inkscape:connector-curvature="0" />
        <path
           d="m 94.658516,76.478996 c 0.275381,-1.974601 -0.219736,-2.961905 -1.485352,-2.961914 -0.339851,9e-6 -0.653327,0.05567 -0.940429,0.166992 -0.281257,0.105478 -0.52735,0.246102 -0.738282,0.421875 -0.210943,0.17579 -0.404302,0.395516 -0.580078,0.65918 -0.175786,0.263679 -0.3252,0.53321 -0.448242,0.808594 -0.123052,0.269537 -0.23438,0.571295 -0.333984,0.905273 l 4.526367,0 m -6.37207,0.861328 c 0.187497,-0.925775 0.506832,-1.766595 0.958007,-2.522461 0.451168,-0.76171 1.022457,-1.374014 1.713868,-1.836914 0.697259,-0.46874 1.447258,-0.703115 2.25,-0.703125 0.632804,1e-5 1.171866,0.128916 1.617187,0.386719 0.445303,0.251963 0.773428,0.603525 0.984375,1.054688 0.216787,0.44532 0.345693,0.955085 0.386719,1.529297 0.041,0.574225 -0.0059,1.195318 -0.140625,1.863281 l -0.105469,0.536133 -6.108398,0 c -0.08204,0.492191 -0.105473,0.946292 -0.07031,1.362304 0.04101,0.416019 0.137691,0.791018 0.290039,1.125 0.158199,0.333986 0.398433,0.597658 0.720703,0.791016 0.32812,0.187501 0.726557,0.281251 1.195313,0.28125 0.49218,1e-6 0.937492,-0.07031 1.335937,-0.210938 0.404289,-0.140623 0.802726,-0.35449 1.195313,-0.641601 l 0.527344,0.887695 c -0.480478,0.38086 -0.987314,0.676758 -1.520508,0.887695 -0.527351,0.205078 -1.139655,0.307617 -1.836914,0.307618 -0.943365,-10e-7 -1.708012,-0.222657 -2.293946,-0.667969 -0.580081,-0.451171 -0.95801,-1.054686 -1.133789,-1.810547 -0.175783,-0.761716 -0.164065,-1.634762 0.03516,-2.619141"
           style="font-size:18px;font-style:italic;font-variant:normal;font-weight:normal;font-stretch:normal;text-align:start;line-height:125%;writing-mode:lr-tb;text-anchor:start;font-family:Oxygen Mono;-inkscape-font-specification:Oxygen Mono Italic"
           id="path3840"
           inkscape:connector-curvature="0" />
        <path
           d="m 105.60969,73.517082 c -0.18751,9e-6 -0.36329,0.03516 -0.52735,0.105469 -0.15821,0.06446 -0.29297,0.146493 -0.40429,0.246094 -0.11134,0.09376 -0.21681,0.225594 -0.31641,0.395508 -0.0996,0.169929 -0.17872,0.322273 -0.2373,0.457031 -0.0586,0.128913 -0.12013,0.304694 -0.18457,0.527344 -0.0586,0.216803 -0.10255,0.383795 -0.13184,0.500976 -0.0234,0.117194 -0.0557,0.281256 -0.0967,0.492188 l -1.19531,5.976562 -1.34473,0 1.17774,-5.879883 c 0.041,-0.210931 0.0732,-0.386712 0.0967,-0.527343 0.0293,-0.140619 0.0556,-0.31933 0.0791,-0.536133 0.0293,-0.21679 0.0439,-0.395501 0.0439,-0.536133 0,-0.146477 -0.009,-0.30175 -0.0264,-0.46582 -0.0176,-0.169914 -0.0586,-0.30468 -0.12304,-0.404297 -0.0586,-0.0996 -0.14063,-0.181632 -0.2461,-0.246094 -0.0996,-0.0703 -0.22559,-0.10546 -0.37793,-0.105469 -0.31055,9e-6 -0.60059,0.131845 -0.87011,0.395508 -0.26368,0.257821 -0.47462,0.559578 -0.63282,0.905273 -0.15234,0.339851 -0.2666,0.694343 -0.342768,1.063477 l -1.265625,6.336914 -1.467774,0 1.924805,-9.641601 1.274412,0 -0.1582,1.274414 c 0.25781,-0.439445 0.56542,-0.808585 0.92285,-1.107422 0.36328,-0.304678 0.76464,-0.457022 1.2041,-0.457032 0.45703,1e-5 0.81445,0.131846 1.07227,0.395508 0.26366,0.263681 0.41015,0.629892 0.43945,1.098633 0.29296,-0.498038 0.62695,-0.870108 1.00195,-1.116211 0.37499,-0.251943 0.81738,-0.37792 1.32715,-0.37793 0.35155,1e-5 0.64159,0.07325 0.87012,0.219727 0.23436,0.146494 0.40429,0.333994 0.50976,0.5625 0.10546,0.228525 0.16699,0.515634 0.18458,0.861328 0.0234,0.339852 0.0176,0.673836 -0.0176,1.001953 -0.0352,0.328132 -0.0938,0.697272 -0.17578,1.107422 l -1.23926,6.178711 -1.46778,0 1.19532,-5.994141 c 0.0469,-0.210931 0.0791,-0.369134 0.0967,-0.474609 0.0176,-0.111321 0.0439,-0.266595 0.0791,-0.46582 0.0351,-0.199212 0.0527,-0.354485 0.0527,-0.465821 0.006,-0.11718 0.009,-0.251945 0.009,-0.404296 -10e-6,-0.158196 -0.0176,-0.281242 -0.0527,-0.369141 -0.0293,-0.09374 -0.0703,-0.184562 -0.12305,-0.272461 -0.0527,-0.09374 -0.12599,-0.158194 -0.21973,-0.193359 -0.0879,-0.04101 -0.19336,-0.06151 -0.3164,-0.06152"
           style="font-size:18px;font-style:italic;font-variant:normal;font-weight:normal;font-stretch:normal;text-align:start;line-height:125%;writing-mode:lr-tb;text-anchor:start;font-family:Oxygen Mono;-inkscape-font-specification:Oxygen Mono Italic"
           id="path3842"
           inkscape:connector-curvature="0" />
        <path
           d="m 114.49543,72.286613 c 0.70312,1e-5 1.30077,0.128917 1.79297,0.386719 0.49804,0.251963 0.87011,0.606454 1.11621,1.063477 0.24608,0.45118 0.39257,0.978523 0.43945,1.582031 0.0469,0.603522 -1e-5,1.26856 -0.14062,1.995117 -0.31056,1.546879 -0.93751,2.789065 -1.88086,3.726563 -0.94337,0.931641 -2.06251,1.39746 -3.35742,1.397461 -0.69141,-10e-7 -1.28028,-0.131836 -1.76661,-0.395508 -0.48633,-0.263672 -0.84961,-0.626952 -1.08984,-1.089844 -0.24024,-0.462889 -0.38672,-0.996091 -0.43945,-1.599609 -0.0469,-0.603512 0,-1.262691 0.14062,-1.977539 0.31055,-1.53515 0.92871,-2.765618 1.8545,-3.691407 0.93163,-0.931631 2.04198,-1.397451 3.33105,-1.397461 m -3.56836,5.097657 c -0.0996,0.50391 -0.15235,0.96973 -0.1582,1.397461 -1e-5,0.427737 0.0527,0.832034 0.1582,1.21289 0.10547,0.375002 0.30761,0.6709 0.60645,0.887696 0.30468,0.216798 0.69726,0.325196 1.17773,0.325195 0.39843,1e-6 0.76757,-0.07324 1.10742,-0.219727 0.33984,-0.146483 0.62695,-0.339842 0.86133,-0.580078 0.24023,-0.240232 0.45702,-0.530271 0.65039,-0.870117 0.19335,-0.339841 0.34863,-0.685543 0.46582,-1.037109 0.11718,-0.357418 0.21386,-0.738277 0.29004,-1.142578 0.082,-0.404292 0.13476,-0.782221 0.1582,-1.13379 0.0234,-0.351556 0.009,-0.697258 -0.0439,-1.037109 -0.0527,-0.339836 -0.15235,-0.629875 -0.29883,-0.870117 -0.14063,-0.240226 -0.35157,-0.433586 -0.63281,-0.580078 -0.28126,-0.146476 -0.6211,-0.219718 -1.01953,-0.219727 -0.38673,9e-6 -0.74708,0.07618 -1.08106,0.228516 -0.32813,0.146493 -0.61231,0.342781 -0.85254,0.588867 -0.23438,0.246101 -0.44531,0.542 -0.63281,0.887695 -0.1875,0.339851 -0.33985,0.685554 -0.45703,1.03711 -0.11719,0.351568 -0.2168,0.726567 -0.29883,1.125"
           style="font-size:18px;font-style:italic;font-variant:normal;font-weight:normal;font-stretch:normal;text-align:start;line-height:125%;writing-mode:lr-tb;text-anchor:start;font-family:Oxygen Mono;-inkscape-font-specification:Oxygen Mono Italic"
           id="path3844"
           inkscape:connector-curvature="0" />
        <path
           d="m 122.69563,82.218254 -1.59961,0 1.9248,-9.641601 1.30957,0 -0.21973,1.784179 c 0.52734,-0.679679 1.1455,-1.195303 1.8545,-1.546875 0.70897,-0.351553 1.46776,-0.527334 2.27636,-0.527344 l 0.71192,0 -0.29883,1.485352 -0.94043,0 c -1.0254,8e-6 -1.88966,0.257821 -2.59277,0.773438 -0.69728,0.509772 -1.14845,1.280279 -1.35352,2.311523 l -1.07226,5.361328"
           style="font-size:18px;font-style:italic;font-variant:normal;font-weight:normal;font-stretch:normal;text-align:start;line-height:125%;writing-mode:lr-tb;text-anchor:start;font-family:Oxygen Mono;-inkscape-font-specification:Oxygen Mono Italic"
           id="path3846"
           inkscape:connector-curvature="0" />
        <path
           d="m 134.71027,80.486809 4.13965,-7.910156 1.73145,0 c -2.64259,4.839848 -4.37403,7.959962 -5.19434,9.360351 -0.0352,0.07031 -0.0996,0.181641 -0.19336,0.333984 -0.0879,0.152344 -0.15235,0.260742 -0.19336,0.325196 -0.28711,0.492186 -0.55371,0.908202 -0.7998,1.248047 -0.2461,0.339841 -0.50098,0.63281 -0.76465,0.878906 -0.25782,0.246091 -0.50391,0.43652 -0.73828,0.571289 -0.23438,0.140622 -0.51563,0.25195 -0.84375,0.333984 -0.32813,0.08203 -0.65332,0.134762 -0.97559,0.158203 -0.31641,0.02343 -0.71777,0.03515 -1.2041,0.03516 l 0.0703,-1.291992 0.63282,0 c 0.29882,-3e-6 0.5332,-0.0059 0.70312,-0.01758 0.17578,-0.01172 0.36328,-0.04688 0.5625,-0.105468 0.19922,-0.05274 0.36328,-0.128909 0.49219,-0.228516 0.13476,-0.09375 0.28124,-0.234377 0.43945,-0.421875 0.16406,-0.181642 0.32226,-0.401368 0.47461,-0.65918 0.1582,-0.257813 0.33398,-0.580078 0.52734,-0.966797 l -2.06543,-9.55371 1.67872,0 1.5205,7.910156"
           style="font-size:18px;font-style:italic;font-variant:normal;font-weight:normal;font-stretch:normal;text-align:start;line-height:125%;writing-mode:lr-tb;text-anchor:start;font-family:Oxygen Mono;-inkscape-font-specification:Oxygen Mono Italic"
           id="path3848"
           inkscape:connector-curvature="0" />
        <path
           d="m 149.43195,69.113762 0,1.283203 -3.72656,0 0,11.821289 -1.64355,0 0,-11.821289 -3.72657,0 0,-1.283203 9.09668,0"
           style="font-size:18px;font-style:normal;font-variant:normal;font-weight:bold;font-stretch:normal;text-align:start;line-height:125%;writing-mode:lr-tb;text-anchor:start;font-family:Oxygen Mono;-inkscape-font-specification:Oxygen Mono Bold"
           id="path3850"
           inkscape:connector-curvature="0" />
        <path
           d="m 158.26496,76.478996 c -0.11719,-1.974601 -0.8086,-2.961905 -2.07422,-2.961914 -0.33985,9e-6 -0.6416,0.05567 -0.90527,0.166992 -0.26368,0.105478 -0.4834,0.246102 -0.65918,0.421875 -0.17579,0.17579 -0.3252,0.395516 -0.44824,0.65918 -0.12305,0.263679 -0.21973,0.53321 -0.29004,0.808594 -0.0645,0.269537 -0.11426,0.571295 -0.14942,0.905273 l 4.52637,0 m -6.19629,0.861328 c 0,-0.925775 0.14941,-1.766595 0.44824,-2.522461 0.30469,-0.76171 0.75586,-1.374014 1.35352,-1.836914 0.60351,-0.46874 1.30664,-0.703115 2.10937,-0.703125 0.63281,1e-5 1.19531,0.128916 1.6875,0.386719 0.49804,0.251963 0.89941,0.603525 1.20411,1.054688 0.30468,0.44532 0.53319,0.955085 0.68554,1.529297 0.1582,0.574225 0.2373,1.195318 0.23731,1.863281 l 0,0.536133 -6.1084,0 c 0.0176,0.492191 0.085,0.946292 0.20215,1.362304 0.12304,0.416019 0.29589,0.791018 0.51855,1.125 0.22265,0.333986 0.51562,0.597658 0.87891,0.791016 0.36327,0.187501 0.77929,0.281251 1.24805,0.28125 0.49218,1e-6 0.92284,-0.07031 1.29199,-0.210938 0.37499,-0.140623 0.73241,-0.35449 1.07226,-0.641601 l 0.70313,0.887695 c -0.40431,0.38086 -0.85255,0.676758 -1.34473,0.887695 -0.48633,0.205078 -1.07813,0.307617 -1.77539,0.307618 -0.94336,-10e-7 -1.75196,-0.222657 -2.42578,-0.667969 -0.67383,-0.451171 -1.17481,-1.054686 -1.50293,-1.810547 -0.32227,-0.761716 -0.4834,-1.634762 -0.4834,-2.619141"
           style="font-size:18px;font-style:normal;font-variant:normal;font-weight:bold;font-stretch:normal;text-align:start;line-height:125%;writing-mode:lr-tb;text-anchor:start;font-family:Oxygen Mono;-inkscape-font-specification:Oxygen Mono Bold"
           id="path3852"
           inkscape:connector-curvature="0" />
        <path
           d="m 170.1302,79.616692 c -1e-5,0.878908 -0.32521,1.570313 -0.97559,2.074218 -0.64454,0.498047 -1.4502,0.74707 -2.41699,0.747071 -0.69141,-10e-7 -1.36231,-0.08496 -2.0127,-0.254883 -0.65039,-0.175781 -1.13086,-0.380859 -1.4414,-0.615235 l 0.65918,-1.063476 c 0.7207,0.457032 1.58495,0.685548 2.59277,0.685547 0.65038,1e-6 1.1748,-0.143554 1.57324,-0.430664 0.39843,-0.287108 0.59765,-0.682615 0.59766,-1.186524 -1e-5,-0.357419 -0.0996,-0.659176 -0.29883,-0.905273 -0.19923,-0.24609 -0.5713,-0.43652 -1.11621,-0.571289 l -1.63477,-0.404297 c -0.47461,-0.117183 -0.87012,-0.263667 -1.18652,-0.439453 -0.31641,-0.175776 -0.55664,-0.380854 -0.7207,-0.615235 -0.16407,-0.240228 -0.27833,-0.483392 -0.34278,-0.729492 -0.0645,-0.251946 -0.0967,-0.539055 -0.0967,-0.861328 0,-0.345696 0.0674,-0.67968 0.20215,-1.001953 0.14062,-0.322257 0.33691,-0.615226 0.58887,-0.878906 0.25781,-0.263663 0.59179,-0.4746 1.00195,-0.632813 0.41601,-0.158193 0.8789,-0.240224 1.38867,-0.246094 l 0.11426,0 c 1.16601,1e-5 2.15917,0.219737 2.97949,0.65918 l -0.53613,1.03711 c -0.84376,-0.357414 -1.64649,-0.536125 -2.4082,-0.536133 -0.54493,0.0059 -0.99317,0.143563 -1.34473,0.413086 -0.35157,0.26368 -0.52735,0.63575 -0.52734,1.116211 -10e-6,0.33985 0.085,0.61817 0.25488,0.834961 0.17578,0.216803 0.51269,0.389654 1.01074,0.518554 l 1.67871,0.421875 c 0.80859,0.205084 1.4121,0.536138 1.81055,0.993164 0.40429,0.451176 0.60644,1.075199 0.60645,1.872071"
           style="font-size:18px;font-style:normal;font-variant:normal;font-weight:bold;font-stretch:normal;text-align:start;line-height:125%;writing-mode:lr-tb;text-anchor:start;font-family:Oxygen Mono;-inkscape-font-specification:Oxygen Mono Bold"
           id="path3854"
           inkscape:connector-curvature="0" />
        <path
           d="m 177.06477,73.807121 0,4.526367 c -1e-5,0.515629 0.0205,0.928714 0.0615,1.239258 0.041,0.30469 0.12011,0.571291 0.2373,0.799805 0.12305,0.228517 0.29297,0.38965 0.50977,0.483398 0.21679,0.08789 0.5039,0.137697 0.86133,0.149414 l 2.20605,0 0,1.239258 -2.42578,0 c -0.50977,0 -0.94336,-0.05859 -1.30078,-0.175781 -0.35743,-0.117187 -0.6504,-0.28125 -0.87891,-0.492187 -0.22852,-0.216796 -0.40723,-0.506835 -0.53613,-0.870118 -0.12891,-0.369138 -0.2168,-0.767576 -0.26367,-1.195312 -0.0469,-0.433591 -0.0703,-0.960934 -0.0703,-1.582031 l 0,-4.122071 -2.72461,0 0.17578,-1.230468 2.54883,0 0,-3.322266 1.59961,-0.474609 0,3.796875 3.87597,0 0,1.230468 -3.87597,0"
           style="font-size:18px;font-style:normal;font-variant:normal;font-weight:bold;font-stretch:normal;text-align:start;line-height:125%;writing-mode:lr-tb;text-anchor:start;font-family:Oxygen Mono;-inkscape-font-specification:Oxygen Mono Bold"
           id="path3856"
           inkscape:connector-curvature="0" />
      </g>
    </g>
  </g>
</svg>
