<?xml version="1.0" encoding="UTF-8" standalone="no"?>
<!-- Created with Inkscape (http://www.inkscape.org/) -->

<svg
   xmlns:dc="http://purl.org/dc/elements/1.1/"
   xmlns:cc="http://creativecommons.org/ns#"
   xmlns:rdf="http://www.w3.org/1999/02/22-rdf-syntax-ns#"
   xmlns:svg="http://www.w3.org/2000/svg"
   xmlns="http://www.w3.org/2000/svg"
   xmlns:sodipodi="http://sodipodi.sourceforge.net/DTD/sodipodi-0.dtd"
   xmlns:inkscape="http://www.inkscape.org/namespaces/inkscape"
   width="5669.291"
   height="5669.291"
   id="svg2"
   sodipodi:version="0.32"
   inkscape:version="0.48.4 r9939"
   sodipodi:docname="osx.svg"
   version="1.0">
  <defs
     id="defs4" />
  <sodipodi:namedview
     id="base"
     pagecolor="#ffffff"
     bordercolor="#666666"
     borderopacity="1.0"
     inkscape:pageopacity="0.0"
     inkscape:pageshadow="2"
     inkscape:zoom="0.056568542"
     inkscape:cx="-772.07413"
     inkscape:cy="2979.9191"
     inkscape:document-units="cm"
     inkscape:current-layer="layer1"
     inkscape:window-width="1366"
     inkscape:window-height="713"
     inkscape:window-x="0"
     inkscape:window-y="-3"
     showgrid="true"
     units="cm"
     inkscape:window-maximized="1">
    <inkscape:grid
       type="xygrid"
       id="grid2987"
       empspacing="5"
       visible="true"
       enabled="true"
       snapvisiblegridlinesonly="true" />
  </sodipodi:namedview>
  <metadata
     id="metadata7">
    <rdf:RDF>
      <cc:Work
         rdf:about="">
        <dc:format>image/svg+xml</dc:format>
        <dc:type
           rdf:resource="http://purl.org/dc/dcmitype/StillImage" />
        <dc:title />
      </cc:Work>
    </rdf:RDF>
  </metadata>
  <g
     inkscape:label="Layer 1"
     inkscape:groupmode="layer"
     id="layer1"
     transform="translate(0,5548.2912)">
    <text
       xml:space="preserve"
       style="font-size:215.8918457px;font-style:normal;font-variant:normal;font-weight:normal;font-stretch:normal;text-align:start;line-height:100%;writing-mode:lr-tb;text-anchor:start;fill:#000000;fill-opacity:1;stroke:none;font-family:Helvetica"
       x="465.92642"
       y="458.70044"
       id="text1517"
       transform="scale(0.642844,1.555588)"
       sodipodi:linespacing="100%"><tspan
         sodipodi:role="line"
         id="tspan1519"
         x="465.92642"
         y="458.70044"><tspan
           style="font-size:215.89189148px;font-style:normal;font-variant:normal;font-weight:normal;font-stretch:normal;text-align:start;line-height:100%;writing-mode:lr-tb;text-anchor:start;font-family:Helvetica Neue"
           id="tspan1521"><tspan
             style="font-size:215.89193726px;font-style:normal;font-variant:normal;font-weight:normal;font-stretch:normal;text-align:start;line-height:100%;writing-mode:lr-tb;text-anchor:start;font-family:Lucida Grande"
             id="tspan1533"> </tspan></tspan></tspan></text>
    <path
       style="font-size:144px;font-style:normal;font-variant:normal;font-weight:normal;font-stretch:normal;text-align:start;line-height:100%;writing-mode:lr-tb;text-anchor:start;fill:#f2f2f2;fill-opacity:1;stroke:none;font-family:Helvetica"
       d="m 1905.3872,-4123.4697 c 149.6848,0 330.3068,30.9412 541.8662,92.8072 213.5509,61.8725 355.2536,92.8097 425.1094,92.8045 89.8116,0 236.5031,-34.9225 440.0802,-104.7793 203.5722,-69.8503 380.1998,-104.777 529.8925,-104.7824 245.4822,0 464.0253,65.8664 655.6298,197.5881 107.7631,75.8432 214.5426,178.6306 320.3273,308.3543 -159.6712,135.7191 -276.4242,256.4651 -350.2663,362.2432 -133.727,191.5994 -200.5853,403.1583 -200.5829,634.6708 0,253.472 70.8489,481.9943 212.5566,685.5631 141.7006,203.5782 303.3595,332.3071 484.9855,386.1939 -75.8427,245.4879 -201.5811,501.9498 -377.2116,769.39097 -265.4515,401.15947 -528.8987,601.73818 -790.346,601.73818 -103.7864,0 -247.4812,-32.92881 -431.0976,-98.79104 -181.6235,-65.8639 -335.3025,-98.79342 -461.0361,-98.79355 -125.7396,1.3e-4 -272.4307,33.92726 -440.0779,101.78569 -165.6566,69.85279 -300.3735,104.78161 -404.1537,104.78162 -313.3474,-10e-6 -620.7021,-265.445 -922.0711,-796.33366 C 837.62197,-1513.9285 686.93723,-2028.8489 686.9377,-2533.7952 c -4.7e-4,-469.015 114.75936,-851.217 344.2796,-1146.6001 231.5151,-295.379 522.9058,-443.0696 874.1699,-443.0744 m 1886.0541,-1179.5307 c 7.9789,25.9518 12.9676,48.903 14.9675,68.8545 1.9964,19.9652 2.9916,39.9227 2.9993,59.8745 0,127.7383 -29.9422,267.4419 -89.821,419.1252 -59.8762,151.6865 -154.6739,292.3903 -284.4,422.1148 -111.7696,109.7746 -222.5385,183.6203 -332.3054,221.5369 -69.8576,21.9581 -175.6332,38.9251 -317.3353,50.8928 3.9887,-303.3596 82.8248,-565.8108 236.5046,-787.3506 155.67,-221.5325 412.1337,-373.2136 769.3903,-455.0481"
       id="text1535"
       inkscape:connector-curvature="0" />
  </g>
</svg>
