<?xml version="1.0" encoding="UTF-8" standalone="no"?>
<!-- Created with Inkscape (http://www.inkscape.org/) -->

<svg
   xmlns:dc="http://purl.org/dc/elements/1.1/"
   xmlns:cc="http://creativecommons.org/ns#"
   xmlns:rdf="http://www.w3.org/1999/02/22-rdf-syntax-ns#"
   xmlns:svg="http://www.w3.org/2000/svg"
   xmlns="http://www.w3.org/2000/svg"
   xmlns:xlink="http://www.w3.org/1999/xlink"
   xmlns:sodipodi="http://sodipodi.sourceforge.net/DTD/sodipodi-0.dtd"
   xmlns:inkscape="http://www.inkscape.org/namespaces/inkscape"
   width="160"
   height="160"
   id="svg2863"
   sodipodi:version="0.32"
   inkscape:version="0.48.4 r9939"
   version="1.0"
   sodipodi:docname="recovery.svg"
   inkscape:output_extension="org.inkscape.output.svg.inkscape">
  <defs
     id="defs2865">
    <inkscape:perspective
       sodipodi:type="inkscape:persp3d"
       inkscape:vp_x="0 : 526.18109 : 1"
       inkscape:vp_y="0 : 1000 : 0"
       inkscape:vp_z="744.09448 : 526.18109 : 1"
       inkscape:persp3d-origin="372.04724 : 350.78739 : 1"
       id="perspective2871" />
    <linearGradient
       id="linearGradient6404">
      <stop
         style="stop-color:#002277;stop-opacity:1;"
         offset="0"
         id="stop6406" />
      <stop
         style="stop-color:#0077c1;stop-opacity:1;"
         offset="1"
         id="stop6408" />
    </linearGradient>
    <linearGradient
       inkscape:collect="always"
       xlink:href="#linearGradient6674"
       id="linearGradient3646"
       gradientUnits="userSpaceOnUse"
       x1="19.096775"
       y1="50.580647"
       x2="80.047699"
       y2="66.897575"
       gradientTransform="matrix(0.47313813,0,0,0.47313813,136.1453,61.707799)" />
    <linearGradient
       id="linearGradient6674">
      <stop
         style="stop-color:#008bbf;stop-opacity:1;"
         offset="0"
         id="stop6676" />
      <stop
         style="stop-color:#11fffd;stop-opacity:0;"
         offset="1"
         id="stop6678" />
    </linearGradient>
    <linearGradient
       y2="66.897575"
       x2="80.047699"
       y1="50.580647"
       x1="19.096775"
       gradientTransform="matrix(0.47313813,0,0,0.47313813,136.1453,61.707799)"
       gradientUnits="userSpaceOnUse"
       id="linearGradient4286"
       xlink:href="#linearGradient6674"
       inkscape:collect="always" />
  </defs>
  <sodipodi:namedview
     id="base"
     pagecolor="#ffffff"
     bordercolor="#666666"
     borderopacity="1.0"
     inkscape:pageopacity="0.0"
     inkscape:pageshadow="2"
     inkscape:zoom="2.5110459"
     inkscape:cx="7.4198049"
     inkscape:cy="91.560536"
     inkscape:document-units="px"
     inkscape:current-layer="layer1"
     showgrid="true"
     inkscape:window-width="1366"
     inkscape:window-height="713"
     inkscape:window-x="0"
     inkscape:window-y="-3"
     inkscape:window-maximized="1">
    <inkscape:grid
       type="xygrid"
       id="grid2993"
       empspacing="5"
       visible="true"
       enabled="true"
       snapvisiblegridlinesonly="true" />
  </sodipodi:namedview>
  <metadata
     id="metadata2868">
    <rdf:RDF>
      <cc:Work
         rdf:about="">
        <dc:format>image/svg+xml</dc:format>
        <dc:type
           rdf:resource="http://purl.org/dc/dcmitype/StillImage" />
        <dc:title />
      </cc:Work>
    </rdf:RDF>
  </metadata>
  <g
     inkscape:label="Ebene 1"
     inkscape:groupmode="layer"
     id="layer1"
     transform="translate(0,32)">
    <path
       sodipodi:type="arc"
       style="fill:#1a1d20;fill-opacity:1;stroke:none"
       id="path3028"
       sodipodi:cx="82.5"
       sodipodi:cy="85"
       sodipodi:rx="72.5"
       sodipodi:ry="75"
       d="M 155,85 A 72.5,75 0 1 1 10,85 72.5,75 0 1 1 155,85 z"
       transform="matrix(0.96716714,0,0,0.93492759,0.48391533,-31.263833)" />
    <g
       id="text3038"
       style="font-size:72px;font-style:normal;font-variant:normal;font-weight:normal;font-stretch:normal;line-height:125%;letter-spacing:0px;word-spacing:0px;fill:#f2f2f2;fill-opacity:1;stroke:none;font-family:Open Sans;-inkscape-font-specification:Open Sans"
       transform="matrix(1.8467663,0,0,1.8698598,357.28618,28.898167)">
      <path
         id="path4543"
         d="m -13,6 c -5.522847,0 -10,4.477152 -10,10 0,5.522848 4.477153,10 10,10 5.5228496,0 10,-4.477152 10,-10 l 0,-0.03125 C -3.0123829,10.454683 -7.48592,6 -13,6 z m 0.1875,3.25 c 0.656607,0.015727 1.312135,0.1504089 1.96875,0.375 0.745331,0.2635451 1.4084501,0.633884 2,1.125 0.5915277,0.49114 1.1171596,1.067223 1.53125,1.75 l 1.71875,-0.84375 c 0.2366012,-0.119776 0.393508,-0.139047 0.5,-0.03125 0.1182932,0.09584 0.1258816,0.279707 0.03125,0.53125 l -1.21875,3.6875 c -0.047338,0.167709 -0.1781336,0.291156 -0.34375,0.375 -0.1774743,0.07188 -0.3149619,0.07917 -0.46875,0.03125 L -10.75,15 c -0.248457,-0.08384 -0.394429,-0.199997 -0.40625,-0.34375 -10e-6,-0.143737 0.107124,-0.286454 0.34375,-0.40625 l 1.6875,-0.84375 c -0.2839491,-0.431225 -0.6290126,-0.801564 -1.03125,-1.125 -0.402257,-0.323415 -0.846866,-0.582287 -1.34375,-0.75 -0.603378,-0.215606 -1.197306,-0.278632 -1.8125,-0.21875 -0.615209,0.04793 -1.186369,0.205229 -1.71875,0.46875 -0.532391,0.263543 -1.023427,0.62659 -1.4375,1.09375 -0.41408,0.46718 -0.724548,1.014094 -0.9375,1.625 -0.02366,0.09584 -0.07344,0.151572 -0.15625,0.1875 -0.08282,0.03594 -0.167187,0.02397 -0.25,0 l -1.25,-0.4375 c -0.09465,-0.02395 -0.152008,-0.07239 -0.1875,-0.15625 -0.03549,-0.08384 -0.05491,-0.16614 -0.03125,-0.25 0.29577,-0.874438 0.752207,-1.653659 1.34375,-2.3125 0.591538,-0.670797 1.242826,-1.179168 2,-1.5625 0.768997,-0.3833062 1.593266,-0.6156141 2.46875,-0.6875 0.218868,-0.017965 0.437381,-0.036492 0.65625,-0.03125 z m -6.28125,6.5 c 0.08282,-0.006 0.1731,-0.02395 0.25,0 l 3.65625,1.28125 c 0.248442,0.08386 0.343745,0.200011 0.34375,0.34375 0.01183,0.14375 -0.07589,0.255218 -0.3125,0.375 l -1.6875,0.84375 c 0.283937,0.431238 0.609579,0.801578 1,1.125 0.402242,0.323429 0.846851,0.5823 1.34375,0.75 0.603363,0.215619 1.228541,0.297917 1.84375,0.25 0.615194,-0.05989 1.186354,-0.205216 1.71875,-0.46875 0.544207,-0.263529 1.0234121,-0.657826 1.4375,-1.125 0.4140657,-0.467166 0.7245333,-0.98283 0.9375,-1.59375 0.023637,-0.09582 0.085253,-0.182808 0.15625,-0.21875 0.082803,-0.03593 0.1553413,-0.02395 0.25,0 l 1.25,0.4375 c 0.2011113,0.08386 0.2778892,0.202616 0.21875,0.40625 C -6.9832823,19.04268 -7.4084723,19.841173 -8,20.5 c -0.5915524,0.658832 -1.2935078,1.179182 -2.0625,1.5625 -0.757181,0.371341 -1.581447,0.584378 -2.46875,0.65625 -0.875487,0.07187 -1.730106,-0.04428 -2.59375,-0.34375 -0.745345,-0.251553 -1.427882,-0.633871 -2.03125,-1.125 -0.591543,-0.491126 -1.097755,-1.06721 -1.5,-1.75 l -1.71875,0.84375 c -0.236616,0.131768 -0.412942,0.158332 -0.53125,0.0625 -0.106477,-0.107806 -0.09465,-0.310944 0,-0.5625 l 1.21875,-3.6875 c 0.04732,-0.155717 0.178119,-0.259892 0.34375,-0.34375 0.08873,-0.03593 0.167184,-0.05651 0.25,-0.0625 z"
         style="fill:#f2f2f2;fill-opacity:1"
         inkscape:connector-curvature="0"
         transform="matrix(4.0572063,0,0,4.0071019,-97.272097,-53.991198)" />
    </g>
    <path
       style="fill:#0077c1;fill-opacity:1;stroke:none"
       d="m -258.25015,-26.810932 122.98295,0 c 7.48123,0 13.50402,6.022791 13.50402,13.504012 l 0,122.98298 c 0,7.4812 -6.02279,13.50402 -13.50402,13.50402 l -122.98295,0 c -7.48123,0 -13.50403,-6.02282 -13.50403,-13.50402 l 0,-122.98298 c 0,-7.481221 6.0228,-13.504012 13.50403,-13.504012 z"
       id="rect8666"
       sodipodi:nodetypes="ccccccccc"
       inkscape:connector-curvature="0" />
    <path
       style="fill:#00bde8;fill-opacity:1;stroke:none"
       d="m -136.78179,-20.630891 -119.97789,0 c -5.18416,0 -9.35769,4.181853 -9.35769,9.376354 l 0,118.878197 c 0,5.19448 4.17353,9.37634 9.35769,9.37634 l 119.97789,0 c 5.18416,0 9.35767,-4.18186 9.35767,-9.37634 l 0,-118.878197 c 0,-5.194501 -4.17354,-9.376354 -9.35767,-9.376354 z"
       id="rect9641"
       sodipodi:nodetypes="ccccccccc"
       inkscape:connector-curvature="0" />
    <g
       style="font-size:32px;font-style:normal;font-variant:normal;font-weight:bold;font-stretch:normal;line-height:125%;letter-spacing:0px;word-spacing:0px;fill:#ffffff;fill-opacity:1;stroke:none;font-family:Open Sans;-inkscape-font-specification:Open Sans Bold"
       id="text3493"
       transform="matrix(2.8304744,0,0,2.8304744,-339.44851,-143.06734)">
      <path
         d="m 51.782728,67.298965 c -2.3e-5,3.781258 -0.937522,6.687505 -2.8125,8.71875 -1.875019,2.031251 -4.562516,3.046875 -8.0625,3.046875 -3.500009,0 -6.187506,-1.015624 -8.0625,-3.046875 -1.875003,-2.031245 -2.812502,-4.947909 -2.8125,-8.75 -2e-6,-3.802068 0.937497,-6.703106 2.8125,-8.703125 1.88541,-2.010394 4.583324,-3.015601 8.09375,-3.015625 3.510401,2.4e-5 6.19269,1.010439 8.046875,3.03125 1.864561,2.020852 2.796852,4.927099 2.796875,8.71875 m -16.671875,0 c -7e-6,2.552093 0.484368,4.473966 1.453125,5.765625 0.968741,1.291672 2.416656,1.937504 4.34375,1.9375 3.864567,4e-6 5.796857,-2.567702 5.796875,-7.703125 -1.8e-5,-5.145816 -1.921891,-7.71873 -5.765625,-7.71875 -1.927094,2e-5 -3.380218,0.651061 -4.359375,1.953125 -0.979174,1.291683 -1.468757,3.213556 -1.46875,5.765625"
         style="fill:#ffffff"
         id="path3498"
         inkscape:connector-curvature="0" />
      <path
         d="m 70.032728,72.40834 c -1.6e-5,2.062505 -0.744807,3.687503 -2.234375,4.875 -1.479179,1.187501 -3.541677,1.78125 -6.1875,1.78125 -2.437505,0 -4.593753,-0.458333 -6.46875,-1.375 l 0,-4.5 c 1.541664,0.687505 2.843746,1.17188 3.90625,1.453125 1.07291,0.281254 2.052076,0.421879 2.9375,0.421875 1.062491,4e-6 1.87499,-0.203121 2.4375,-0.609375 0.572906,-0.406245 0.859364,-1.010411 0.859375,-1.8125 -1.1e-5,-0.44791 -0.125011,-0.843743 -0.375,-1.1875 -0.250011,-0.354159 -0.619802,-0.6927 -1.109375,-1.015625 -0.479176,-0.322908 -1.46355,-0.838532 -2.953125,-1.546875 -1.395839,-0.656239 -2.442713,-1.286447 -3.140625,-1.890625 -0.69792,-0.604154 -1.255211,-1.307278 -1.671875,-2.109375 -0.416668,-0.802068 -0.625002,-1.739567 -0.625,-2.8125 -2e-6,-2.020814 0.682289,-3.609354 2.046875,-4.765625 1.374995,-1.156227 3.270826,-1.734351 5.6875,-1.734375 1.18749,2.4e-5 2.317697,0.140648 3.390625,0.421875 1.08332,0.281273 2.213527,0.677106 3.390625,1.1875 l -1.5625,3.765625 c -1.218763,-0.499981 -2.229179,-0.848939 -3.03125,-1.046875 -0.791677,-0.197897 -1.572927,-0.296855 -2.34375,-0.296875 -0.916675,2e-5 -1.619799,0.213561 -2.109375,0.640625 -0.48959,0.427102 -0.734381,0.984393 -0.734375,1.671875 -6e-6,0.4271 0.09895,0.8021 0.296875,1.125 0.19791,0.312516 0.51041,0.619807 0.9375,0.921875 0.437492,0.291682 1.463533,0.822931 3.078125,1.59375 2.135404,1.020846 3.598944,2.046887 4.390625,3.078125 0.791651,1.020843 1.187484,2.27605 1.1875,3.765625"
         style="fill:#ffffff"
         id="path3500"
         inkscape:connector-curvature="0" />
    </g>
    <path
       transform="matrix(1.2309795,0,0,1.2309795,-197.64671,-99.063693)"
       d="M 140,80 A 52.5,50 0 1 1 35,80 52.5,50 0 1 1 140,80 z"
       sodipodi:ry="50"
       sodipodi:rx="52.5"
       sodipodi:cy="80"
       sodipodi:cx="87.5"
       id="path3798"
       style="fill:#ffffff;fill-opacity:1;stroke:none"
       sodipodi:type="arc" />
  </g>
</svg>
