<?xml version="1.0" encoding="UTF-8" standalone="no"?>
<!-- Created with Inkscape (http://www.inkscape.org/) -->

<svg
   xmlns:dc="http://purl.org/dc/elements/1.1/"
   xmlns:cc="http://creativecommons.org/ns#"
   xmlns:rdf="http://www.w3.org/1999/02/22-rdf-syntax-ns#"
   xmlns:svg="http://www.w3.org/2000/svg"
   xmlns="http://www.w3.org/2000/svg"
   xmlns:xlink="http://www.w3.org/1999/xlink"
   xmlns:sodipodi="http://sodipodi.sourceforge.net/DTD/sodipodi-0.dtd"
   xmlns:inkscape="http://www.inkscape.org/namespaces/inkscape"
   width="128"
   height="128"
   id="svg2"
   version="1.1"
   inkscape:version="0.48.3.1 r9886"
   sodipodi:docname="CCR.svg"
   inkscape:export-filename="/home/Fernando/Hyuuga/Hycons/iconset/128x128/mimetypes/package-x-generic.png"
   inkscape:export-xdpi="90"
   inkscape:export-ydpi="90">
  <defs
     id="defs4">
    <linearGradient
       id="linearGradient3811">
      <stop
         style="stop-color:#10b9e6;stop-opacity:1;"
         offset="0"
         id="stop3813" />
      <stop
         style="stop-color:#5b86a1;stop-opacity:1;"
         offset="1"
         id="stop3815" />
    </linearGradient>
    <inkscape:perspective
       sodipodi:type="inkscape:persp3d"
       inkscape:vp_x="0 : 526.18109 : 1"
       inkscape:vp_y="0 : 1000 : 0"
       inkscape:vp_z="744.09448 : 526.18109 : 1"
       inkscape:persp3d-origin="372.04724 : 350.78739 : 1"
       id="perspective10" />
    <inkscape:perspective
       id="perspective4203"
       inkscape:persp3d-origin="0.5 : 0.33333333 : 1"
       inkscape:vp_z="1 : 0.5 : 1"
       inkscape:vp_y="0 : 1000 : 0"
       inkscape:vp_x="0 : 0.5 : 1"
       sodipodi:type="inkscape:persp3d" />
    <radialGradient
       inkscape:collect="always"
       xlink:href="#linearGradient3357"
       id="radialGradient4377"
       gradientUnits="userSpaceOnUse"
       gradientTransform="matrix(3.0516063,0,0,1.2872652,-151.02055,-348.87251)"
       cx="23.999998"
       cy="1013.3619"
       fx="23.999998"
       fy="1013.3619"
       r="18.000002" />
    <linearGradient
       id="linearGradient3357">
      <stop
         style="stop-color:#e0bc88;stop-opacity:1"
         offset="0"
         id="stop3359" />
      <stop
         style="stop-color:#a57c41;stop-opacity:1"
         offset="1"
         id="stop3361" />
    </linearGradient>
    <radialGradient
       inkscape:collect="always"
       xlink:href="#linearGradient3357"
       id="radialGradient5915"
       cx="24"
       cy="1017.3622"
       fx="24"
       fy="1017.3622"
       r="18.000002"
       gradientTransform="matrix(4.2255374e-6,4.1836178,-4.0184722,4.0737874e-6,4010.4597,866.76744)"
       gradientUnits="userSpaceOnUse" />
    <linearGradient
       id="linearGradient4214">
      <stop
         style="stop-color:#e0bc88;stop-opacity:1"
         offset="0"
         id="stop4216" />
      <stop
         style="stop-color:#a57c41;stop-opacity:1"
         offset="1"
         id="stop4218" />
    </linearGradient>
    <linearGradient
       gradientTransform="matrix(2.8909953,0,0,2.8963505,-147.16588,-1993.9409)"
       inkscape:collect="always"
       xlink:href="#linearGradient4305"
       id="linearGradient4311"
       x1="18.197292"
       y1="1022.3615"
       x2="18.197292"
       y2="1048.3755"
       gradientUnits="userSpaceOnUse" />
    <linearGradient
       inkscape:collect="always"
       id="linearGradient4305">
      <stop
         style="stop-color:#a57c41;stop-opacity:1"
         offset="0"
         id="stop4307" />
      <stop
         style="stop-color:#886636;stop-opacity:1"
         offset="1"
         id="stop4309" />
    </linearGradient>
    <linearGradient
       gradientTransform="matrix(2.8909953,0,0,2.8963505,-147.16588,-1993.9409)"
       inkscape:collect="always"
       xlink:href="#linearGradient5180"
       id="linearGradient5186"
       x1="18"
       y1="1023.3622"
       x2="18"
       y2="1047.3622"
       gradientUnits="userSpaceOnUse" />
    <linearGradient
       id="linearGradient5180">
      <stop
         style="stop-color:#ffffff;stop-opacity:0.19607843;"
         offset="0"
         id="stop5182" />
      <stop
         style="stop-color:#ffffff;stop-opacity:0.15686275;"
         offset="1"
         id="stop5184" />
    </linearGradient>
    <radialGradient
       inkscape:collect="always"
       xlink:href="#linearGradient4363"
       id="radialGradient4361"
       gradientUnits="userSpaceOnUse"
       gradientTransform="matrix(-2.9999979,2.7499979,-3.0000021,-2.7500016,177.99985,945.86215)"
       cx="23.999977"
       cy="14.000001"
       fx="23.999977"
       fy="14.000001"
       r="17" />
    <linearGradient
       id="linearGradient4363">
      <stop
         id="stop4365"
         offset="0"
         style="stop-color:#ffffff;stop-opacity:1;" />
      <stop
         id="stop4367"
         offset="1"
         style="stop-color:#ffffff;stop-opacity:0;" />
    </linearGradient>
    <linearGradient
       inkscape:collect="always"
       xlink:href="#linearGradient4239"
       id="linearGradient4246"
       x1="6.9987454"
       y1="18.70793"
       x2="41.001373"
       y2="18.70793"
       gradientUnits="userSpaceOnUse"
       gradientTransform="matrix(2.8909953,0,0,2.8963505,-147.16588,917.94048)" />
    <linearGradient
       id="linearGradient4239">
      <stop
         style="stop-color:#ffffff;stop-opacity:0;"
         offset="0"
         id="stop4241" />
      <stop
         id="stop4248"
         offset="0.5"
         style="stop-color:#ffffff;stop-opacity:1;" />
      <stop
         style="stop-color:#ffffff;stop-opacity:0;"
         offset="1"
         id="stop4243" />
    </linearGradient>
    <radialGradient
       r="17"
       fy="14.000001"
       fx="23.999977"
       cy="14.000001"
       cx="23.999977"
       gradientTransform="matrix(-2.9999979,2.7499979,-3.0000021,-2.7500016,177.99984,945.86232)"
       gradientUnits="userSpaceOnUse"
       id="radialGradient2929"
       xlink:href="#linearGradient4213-0"
       inkscape:collect="always" />
    <linearGradient
       id="linearGradient4213-0">
      <stop
         style="stop-color:#000000;stop-opacity:0;"
         offset="0"
         id="stop4215-7" />
      <stop
         style="stop-color:#000000;stop-opacity:1;"
         offset="1"
         id="stop4217-8" />
    </linearGradient>
    <radialGradient
       inkscape:collect="always"
       xlink:href="#linearGradient3357"
       id="radialGradient4339"
       gradientUnits="userSpaceOnUse"
       gradientTransform="matrix(2.8991617e-7,3.7746479,-4.2222075,0,4359.5144,880.95226)"
       cx="24.224268"
       cy="1017.3622"
       fx="24.224268"
       fy="1017.3622"
       r="18.000002" />
    <linearGradient
       inkscape:collect="always"
       xlink:href="#linearGradient4305"
       id="linearGradient4341"
       gradientUnits="userSpaceOnUse"
       gradientTransform="matrix(2.9428572,0,0,2.6800019,-6.6285614,-1768.4105)"
       x1="18.197292"
       y1="1022.6833"
       x2="18.197292"
       y2="1048.041" />
    <radialGradient
       inkscape:collect="always"
       xlink:href="#linearGradient3357"
       id="radialGradient4345"
       gradientUnits="userSpaceOnUse"
       gradientTransform="matrix(3.3337964,2.6338257e-8,-1.185045e-8,1.4999848,-16.011099,-560.66558)"
       cx="23.999998"
       cy="1013.3619"
       fx="23.999998"
       fy="1013.3619"
       r="18.000002" />
    <linearGradient
       inkscape:collect="always"
       xlink:href="#linearGradient5180"
       id="linearGradient4349"
       gradientUnits="userSpaceOnUse"
       gradientTransform="matrix(3.0606055,0,0,2.8260931,-9.4545368,-1919.6679)"
       x1="18"
       y1="1023.3622"
       x2="18"
       y2="1047.3622" />
    <linearGradient
       inkscape:collect="always"
       xlink:href="#linearGradient4239"
       id="linearGradient4353"
       gradientUnits="userSpaceOnUse"
       gradientTransform="matrix(3.0000001,0,0,0.99999742,-8.0000039,955.36226)"
       x1="9.5309658"
       y1="18.70793"
       x2="38.469154"
       y2="18.70793" />
    <filter
       inkscape:collect="always"
       id="filter4377"
       x="-0.1118077"
       width="1.2236154"
       y="-1.1627997"
       height="3.3255994">
      <feGaussianBlur
         inkscape:collect="always"
         stdDeviation="4.8450001"
         id="feGaussianBlur4379" />
    </filter>
    <radialGradient
       inkscape:collect="always"
       xlink:href="#linearGradient4363"
       id="radialGradient4403"
       cx="64"
       cy="35"
       fx="64"
       fy="35"
       r="50.53125"
       gradientTransform="matrix(1,0,0,0.25726654,0,25.995671)"
       gradientUnits="userSpaceOnUse" />
    <radialGradient
       inkscape:collect="always"
       xlink:href="#linearGradient4213-0"
       id="radialGradient4407"
       gradientUnits="userSpaceOnUse"
       gradientTransform="matrix(1,0,0,0.25726654,0,25.995671)"
       cx="64"
       cy="35"
       fx="64"
       fy="35"
       r="50.53125" />
    <radialGradient
       inkscape:collect="always"
       xlink:href="#linearGradient3357"
       id="radialGradient4409"
       gradientUnits="userSpaceOnUse"
       gradientTransform="matrix(3.7781863,0,0,1.9444272,-26.676469,-1011.0465)"
       cx="23.999998"
       cy="1013.3619"
       fx="23.999998"
       fy="1013.3619"
       r="18.000002" />
    <linearGradient
       inkscape:collect="always"
       xlink:href="#linearGradient3811"
       id="linearGradient3817"
       x1="20"
       y1="948.36218"
       x2="28"
       y2="984.36218"
       gradientUnits="userSpaceOnUse"
       gradientTransform="matrix(1.1720297,0,0,1.4176118,-0.20591283,-408.56248)" />
    <linearGradient
       inkscape:collect="always"
       xlink:href="#linearGradient3811-6"
       id="linearGradient3817-4"
       x1="20"
       y1="948.36218"
       x2="28"
       y2="984.36218"
       gradientUnits="userSpaceOnUse"
       gradientTransform="matrix(0.89940528,0,0,1.0556306,0.77482048,-54.889186)" />
    <linearGradient
       id="linearGradient3811-6">
      <stop
         style="stop-color:#10b9e6;stop-opacity:1;"
         offset="0"
         id="stop3813-2" />
      <stop
         style="stop-color:#5b86a1;stop-opacity:1;"
         offset="1"
         id="stop3815-5" />
    </linearGradient>
    <linearGradient
       inkscape:collect="always"
       xlink:href="#linearGradient4363"
       id="linearGradient3886"
       x1="9.1758623"
       y1="943.21362"
       x2="21.451923"
       y2="991.39099"
       gradientUnits="userSpaceOnUse"
       gradientTransform="matrix(1.249572,0,0,1.1990683,2.7276533,-198.66421)" />
    <linearGradient
       inkscape:collect="always"
       xlink:href="#linearGradient4363-0"
       id="linearGradient3886-1"
       x1="9.1758623"
       y1="943.21362"
       x2="21.451923"
       y2="991.39099"
       gradientUnits="userSpaceOnUse"
       gradientTransform="matrix(0.97686985,0,0,1.4237807,-98.645053,-428.71614)" />
    <linearGradient
       id="linearGradient4363-0">
      <stop
         id="stop4365-6"
         offset="0"
         style="stop-color:#ffffff;stop-opacity:1;" />
      <stop
         id="stop4367-3"
         offset="1"
         style="stop-color:#ffffff;stop-opacity:0;" />
    </linearGradient>
    <linearGradient
       inkscape:collect="always"
       xlink:href="#linearGradient3811-0"
       id="linearGradient3817-2"
       x1="20"
       y1="948.36218"
       x2="28"
       y2="984.36218"
       gradientUnits="userSpaceOnUse"
       gradientTransform="matrix(0.91624998,0,0,1.68328,0.85600085,-667.18247)" />
    <linearGradient
       id="linearGradient3811-0">
      <stop
         style="stop-color:#10b9e6;stop-opacity:1;"
         offset="0"
         id="stop3813-6" />
      <stop
         style="stop-color:#5b86a1;stop-opacity:1;"
         offset="1"
         id="stop3815-1" />
    </linearGradient>
    <linearGradient
       y2="984.36218"
       x2="28"
       y1="948.36218"
       x1="20"
       gradientTransform="matrix(0.91624998,0,0,1.68328,-100.93841,-677.95034)"
       gradientUnits="userSpaceOnUse"
       id="linearGradient3128"
       xlink:href="#linearGradient3811-0"
       inkscape:collect="always" />
  </defs>
  <sodipodi:namedview
     id="base"
     pagecolor="#ffffff"
     bordercolor="#666666"
     borderopacity="1.0"
     inkscape:pageopacity="0.0"
     inkscape:pageshadow="2"
     inkscape:zoom="2.03125"
     inkscape:cx="-55.06719"
     inkscape:cy="81.671926"
     inkscape:document-units="px"
     inkscape:current-layer="layer1"
     showgrid="true"
     inkscape:window-width="1366"
     inkscape:window-height="709"
     inkscape:window-x="0"
     inkscape:window-y="-3"
     inkscape:window-maximized="1"
     inkscape:snap-bbox="true">
    <inkscape:grid
       type="xygrid"
       id="grid2816"
       empspacing="4"
       visible="true"
       enabled="true"
       snapvisiblegridlinesonly="true" />
  </sodipodi:namedview>
  <metadata
     id="metadata7">
    <rdf:RDF>
      <cc:Work
         rdf:about="">
        <dc:format>image/svg+xml</dc:format>
        <dc:type
           rdf:resource="http://purl.org/dc/dcmitype/StillImage" />
        <dc:title />
      </cc:Work>
    </rdf:RDF>
  </metadata>
  <g
     inkscape:label="Capa 1"
     inkscape:groupmode="layer"
     id="layer1"
     transform="translate(0,-924.36218)">
    <rect
       ry="6"
       rx="6"
       y="1030.3622"
       x="12"
       height="10.000003"
       width="104"
       id="rect4359"
       style="opacity:0.50000000000000000;fill:#000000;fill-opacity:1;stroke:none;filter:url(#filter4377);stroke-width:1;stroke-miterlimit:4;stroke-dasharray:none" />
    <rect
       ry="0"
       rx="0"
       y="972.86218"
       x="12.5"
       height="67"
       width="103"
       id="rect4337"
       style="fill:url(#radialGradient4339);fill-opacity:1;stroke:url(#linearGradient4341);stroke-width:1;stroke-linecap:round;stroke-linejoin:round;stroke-miterlimit:4;stroke-opacity:1;stroke-dasharray:none" />
    <path
       sodipodi:nodetypes="ccccc"
       id="path4343"
       d="m 32,945.86214 64,0 19.5,27 -102.999997,0 19.499997,-27 z"
       style="fill:url(#radialGradient4409);fill-opacity:1;stroke:#a57c41;stroke-width:1;stroke-linecap:round;stroke-linejoin:round;stroke-miterlimit:4;stroke-opacity:1;stroke-dasharray:none" />
    <rect
       style="fill:none;stroke:url(#linearGradient4349);stroke-width:1;stroke-linecap:butt;stroke-linejoin:miter;stroke-miterlimit:4;stroke-opacity:1;stroke-dasharray:none"
       id="rect4347"
       width="100.99999"
       height="64.999992"
       x="13.499999"
       y="973.86212"
       rx="0"
       ry="0" />
    <rect
       ry="0"
       rx="0"
       y="973.36218"
       x="13"
       height="0.99999738"
       width="102"
       id="rect4351"
       style="opacity:0.29999999999999999;fill:url(#linearGradient4353);fill-opacity:1;stroke:none;stroke-width:1;stroke-miterlimit:4;stroke-dasharray:none" />
    <path
       sodipodi:nodetypes="ccccc"
       id="path4355"
       d="m 60,946.36218 8,0 3,26 -14,0 3,-26 z"
       style="opacity:0.40000000000000002;fill:#ffffff;fill-opacity:1;stroke:none;stroke-width:1;stroke-miterlimit:4;stroke-dasharray:none" />
    <g
       id="text3058"
       style="font-size:120px;font-style:normal;font-variant:normal;font-weight:normal;font-stretch:normal;line-height:125%;letter-spacing:0px;word-spacing:0px;opacity:0.69999999999999996;fill:#000000;fill-opacity:1;stroke:none;font-family:Entypo;-inkscape-font-specification:Entypo;stroke-width:1;stroke-miterlimit:4;stroke-dasharray:none"
       transform="translate(125.31077,902.94681)">
      <path
         inkscape:connector-curvature="0"
         id="path3063"
         d="m -44.670774,128.97537 0,-8.64 c -5.2e-5,-1.03998 -0.120052,-1.91998 -0.36,-2.64 -0.240052,-0.71998 -0.760051,-1.39998 -1.56,-2.04 -0.72005,-0.71998 -1.840049,-1.43998 -3.36,-2.16 -1.440046,-0.79997 -3.360044,-1.79997 -5.76,-3 1.679957,-1.19997 2.519956,-2.83997 2.52,-4.92 -4.4e-5,-0.47997 -0.08004,-0.83997 -0.24,-1.08 -0.160044,-0.23997 -0.360043,-0.47997 -0.6,-0.72 -0.160043,-0.31997 -0.360043,-0.67996 -0.6,-1.08 -0.240042,-0.47996 -0.440042,-1.15996 -0.6,-2.04 -0.08004,-0.31996 -0.200042,-0.51996 -0.36,-0.6 -0.160041,-0.07996 -0.320041,-0.159962 -0.48,-0.239995 -0.160041,-0.159966 -0.320041,-0.399966 -0.48,-0.72 -0.16004,-0.319966 -0.28004,-0.919965 -0.36,-1.8 -4e-5,-0.639963 0.11996,-1.079963 0.36,-1.32 0.07996,-0.159963 0.199959,-0.279963 0.36,-0.36 -0.08004,-0.399962 -0.160041,-0.799962 -0.24,-1.2 -0.08004,-0.399961 -0.160041,-0.75996 -0.24,-1.08 -4e-5,-0.39996 -4e-5,-0.799959 0,-1.2 -4e-5,-0.479958 0.07996,-1.079958 0.24,-1.8 0.159959,-0.799956 0.479959,-1.559956 0.96,-2.28 0.559958,-0.799954 1.279957,-1.439953 2.16,-1.92 0.959955,-0.559952 2.239954,-0.839952 3.84,-0.84 1.519951,4.8e-5 2.75995,0.280048 3.72,0.84 0.959948,0.480047 1.679947,1.120046 2.16,1.92 0.559946,0.720044 0.919946,1.480044 1.08,2.28 0.159945,0.720042 0.239945,1.320042 0.24,1.8 -0.08005,0.400041 -0.120055,0.80004 -0.12,1.2 -5.5e-5,0.32004 -0.04006,0.680039 -0.12,1.08 -0.08006,0.400038 -0.160054,0.800038 -0.24,1.2 0.07995,0.08004 0.159945,0.200037 0.24,0.36 0.07994,0.160037 0.159945,0.360037 0.24,0.6 0.07995,0.160036 0.119945,0.400036 0.12,0.72 -0.08006,0.880035 -0.200055,1.480034 -0.36,1.8 -0.160054,0.320034 -0.320054,0.560034 -0.48,0.72 -0.160054,0.08003 -0.320054,0.160033 -0.48,0.239995 -0.160054,0.08 -0.280053,0.28004 -0.36,0.6 -0.160053,0.88004 -0.360053,1.56004 -0.6,2.04 -0.160053,0.40004 -0.360052,0.76003 -0.6,1.08 -0.160052,0.24003 -0.320052,0.48003 -0.48,0.72 -0.160051,0.24003 -0.240051,0.60003 -0.24,1.08 -5.1e-5,1.60003 0.399948,2.88003 1.2,3.84 0.879947,0.96003 2.439945,1.88003 4.68,2.76 2.23994,0.88003 3.959939,1.68002 5.16,2.4 1.279936,0.64002 2.199935,1.40002 2.76,2.28 0.159935,0.32002 0.279935,1.12002 0.36,2.4 0.07993,1.28002 0.159934,2.64002 0.24,4.08 0.07993,1.68001 0.119934,3.56001 0.12,5.64 l -13.44,0 m -15.84,-15.24 c 3.03996,1.20002 5.639958,2.40002 7.8,3.6 2.159953,1.20002 3.239952,2.44002 3.24,3.72 l 0,7.92 -41.76,0 0,-10.56 c -6e-6,-0.71998 0.159994,-1.31998 0.48,-1.8 0.399993,-0.47998 0.879993,-0.87998 1.44,-1.2 0.559992,-0.39998 1.119991,-0.71998 1.68,-0.96 0.55999,-0.31998 1.079989,-0.55998 1.56,-0.72 2.959986,-1.19997 4.999984,-2.39997 6.12,-3.6 1.119982,-1.19997 1.679981,-2.87997 1.68,-5.04 -1.9e-5,-0.63997 -0.120019,-1.11997 -0.36,-1.44 -0.160018,-0.31997 -0.400018,-0.63996 -0.72,-0.96 -0.240018,-0.39996 -0.520017,-0.87996 -0.84,-1.44 -0.240017,-0.63996 -0.480016,-1.559962 -0.72,-2.759995 -0.08002,-0.479965 -0.240016,-0.759965 -0.48,-0.84 -0.240016,-0.159964 -0.480015,-0.319964 -0.72,-0.48 -0.240015,-0.159964 -0.480015,-0.439964 -0.72,-0.84 -0.160014,-0.399963 -0.280014,-1.159962 -0.36,-2.28 -1.4e-5,-0.71996 0.159986,-1.31996 0.48,-1.8 0.159985,-0.239959 0.319985,-0.399959 0.48,-0.48 -0.08002,-0.479958 -0.160015,-0.999958 -0.24,-1.56 -0.08001,-0.479957 -0.160015,-0.959956 -0.24,-1.44 -0.08001,-0.559955 -0.120014,-1.119954 -0.12,-1.68 -0.08001,-0.639953 -1.4e-5,-1.479952 0.24,-2.52 0.239985,-1.03995 0.679985,-2.039949 1.32,-3 0.719983,-0.959947 1.679982,-1.799947 2.88,-2.52 1.27998,-0.719945 2.959978,-1.079945 5.04,-1.08 2.079974,5.5e-5 3.759972,0.360055 5.04,1.08 1.27997,0.720053 2.239969,1.560053 2.88,2.52 0.719968,0.960051 1.199967,1.96005 1.44,3 0.239967,1.040048 0.319967,1.880047 0.24,2.52 -0.08003,0.560046 -0.160033,1.120045 -0.24,1.68 -3.3e-5,0.480044 -0.04003,0.960043 -0.12,1.44 -0.08003,0.560042 -0.160033,1.080042 -0.24,1.56 0.07997,0.08004 0.199967,0.240041 0.36,0.48 0.319967,0.48004 0.479966,1.08004 0.48,1.8 -0.08003,1.120038 -0.240033,1.880037 -0.48,2.28 -0.160033,0.400036 -0.360033,0.680036 -0.6,0.84 -0.240032,0.160036 -0.480032,0.320036 -0.72,0.48 -0.160032,0.08003 -0.280032,0.360035 -0.36,0.84 -0.240031,1.200033 -0.520031,2.120035 -0.84,2.759995 -0.24003,0.56004 -0.52003,1.04004 -0.84,1.44 -0.24003,0.32004 -0.480029,0.64003 -0.72,0.96 -0.160029,0.32003 -0.240029,0.80003 -0.24,1.44 -2.9e-5,2.16003 0.559971,3.84003 1.68,5.04 1.119968,1.20003 3.159966,2.40003 6.12,3.6"
         style="stroke-width:1;stroke-miterlimit:4;stroke-dasharray:none" />
    </g>
    <path
       sodipodi:nodetypes="cccccccc"
       id="path4357"
       d="m 57,972.36218 14,0 0,23 -3.5,-3 -3.5,3 -3.5,-3 -3.5,3 0,-23 z"
       style="opacity:0.40000000000000002;fill:#ffffff;fill-opacity:1;stroke:none;stroke-width:1;stroke-miterlimit:4;stroke-dasharray:none" />
    <path
       style="opacity:0.14999999999999999;fill:url(#radialGradient4361);fill-opacity:1;stroke:none;stroke-width:1;stroke-miterlimit:4;stroke-dasharray:none"
       d="m 13,973.36216 0,66.00004 102,0 0,-66.00004 -102,0 z"
       id="rect4206"
       inkscape:connector-curvature="0" />
    <path
       id="path4221"
       d="m 13,973.36218 0,66.00002 102,0 0,-66.00002 -102,0 z"
       style="opacity:0.05000000000000000;fill:url(#radialGradient2929);fill-opacity:1;stroke:none;stroke-width:1;stroke-miterlimit:4;stroke-dasharray:none"
       inkscape:connector-curvature="0" />
    <path
       style="fill:url(#radialGradient4403);fill-opacity:1;stroke:none;stroke-width:1;stroke-linecap:round;stroke-linejoin:round;stroke-miterlimit:4;stroke-opacity:1;stroke-dasharray:none;opacity:0.14999999999999999"
       d="M 32.25 22 L 13.46875 48 L 114.53125 48 L 95.75 22 L 32.25 22 z "
       transform="translate(0,924.36218)"
       id="path4396" />
    <rect
       style="fill:#886636;fill-opacity:1;stroke:none;opacity:0.05000000000000000;stroke-width:1;stroke-miterlimit:4;stroke-dasharray:none"
       id="rect4411"
       width="2.000001"
       height="25.999998"
       x="63"
       y="946.36218"
       rx="0"
       ry="0" />
    <rect
       style="fill:url(#linearGradient3817);fill-opacity:1;stroke:#035d8a;stroke-width:1;stroke-linecap:square;stroke-linejoin:round;stroke-miterlimit:4;stroke-opacity:1;stroke-dasharray:none;stroke-dashoffset:0"
       id="rect3041"
       width="60.037579"
       height="21.583584"
       x="4.6431737"
       y="959.43152"
       ry="10.791792" />
    <rect
       style="fill:none;stroke:url(#linearGradient3886);stroke-width:1;stroke-linecap:square;stroke-linejoin:round;stroke-miterlimit:4;stroke-opacity:1;stroke-dasharray:none;stroke-dashoffset:0"
       id="rect3041-8"
       width="57.570618"
       height="19.271797"
       x="5.8465476"
       y="960.5874"
       ry="9.6358986" />
    <path
       inkscape:connector-curvature="0"
       style="font-size:18.05555534px;font-style:normal;font-variant:normal;font-weight:bold;font-stretch:normal;text-align:start;line-height:100%;writing-mode:lr-tb;text-anchor:start;fill:#f7f7f7;fill-opacity:1;stroke:none;font-family:Quicksand;-inkscape-font-specification:Quicksand Bold"
       d="m -140.37361,981.77839 c 1.58889,0 3.03334,-0.5236 4.17083,-1.4084 0.43334,-0.34301 0.50556,-0.99301 0.18056,-1.44441 -0.36111,-0.4333 -1.02917,-0.5056 -1.44444,-0.1986 -0.8125,0.65 -1.78751,0.99301 -2.90695,0.99301 -1.24583,0 -2.40139,-0.50551 -3.25,-1.30001 -0.8125,-0.7944 -1.31805,-1.9138 -1.31805,-3.14157 0,-1.22781 0.50555,-2.31111 1.31805,-3.14172 0.84861,-0.79439 2.00417,-1.3 3.25,-1.3 1.11944,0 2.1125,0.34311 2.90695,0.99311 0.41527,0.325 1.08333,0.2527 1.44444,-0.1986 0.325,-0.4514 0.25278,-1.0834 -0.18056,-1.44451 -1.13749,-0.8847 -2.58194,-1.4083 -4.17083,-1.4083 -3.61111,0.018 -6.60833,2.92501 -6.62639,6.50002 0.0181,3.59298 3.01528,6.49998 6.62639,6.49998"
       id="path2898" />
    <path
       sodipodi:nodetypes="ccscsccccccscccsscsscsscccccsc"
       d="m -110.43441,978.70861 0.009,-0.0132 c -0.25027,-0.82172 -0.30291,-1.8317 -0.64859,-2.37037 -0.17284,-0.27853 -0.38025,-0.68701 -0.60494,-0.87284 0.82964,-0.74287 1.34816,-1.45539 1.34816,-2.68104 0,-2.21001 -1.642,-3.99281 -3.6988,-3.99281 l -3.07658,0 c 0,0 0,0 0,0 -0.0173,0 -0.0173,0 -0.0173,0 -0.53581,0 -0.95063,0.44573 -0.95063,1.02151 l 0,10.95698 c 0,0.55716 0.41482,1.02151 0.95063,1.02151 0.53581,0 1.12345,-0.46435 1.12345,-1.02151 l 0,-4.39466 1.88399,0 c 0.15556,0.0364 0.71827,0.33171 0.96791,0.63149 0.39013,0.4686 0.55374,1.10734 0.72593,1.70174 0.20895,0.72131 0.12099,1.69 0.36297,2.22863 0.13827,0.26001 0.3284,0.50139 0.55309,0.64997 0.24198,0.16719 0.50124,0.20434 0.67408,0.20434 0.0173,0 0.0173,0 0.0173,0 0.17284,0 0.31112,-0.0364 0.38025,-0.0567 0.50124,-0.18561 0.77779,-0.7613 0.60495,-1.29994 -0.10371,-0.31566 -0.43789,-1.48848 -0.60495,-1.71469 m -3.5951,-4.51185 -1.97041,0 0,-3.24994 1.97041,0 c 0.9852,0 1.78027,0.54785 1.78027,1.62501 0,1.03993 -0.79507,1.62493 -1.78027,1.62493"
       style="font-size:18px;font-style:normal;font-variant:normal;font-weight:bold;font-stretch:normal;text-align:start;line-height:125%;writing-mode:lr-tb;text-anchor:start;fill:#f7f7f7;fill-opacity:1;stroke:none;display:inline;font-family:Quicksand;-inkscape-font-specification:Quicksand Bold"
       id="path7610-1"
       inkscape:connector-curvature="0" />
    <path
       inkscape:connector-curvature="0"
       style="font-size:18.05555534px;font-style:normal;font-variant:normal;font-weight:bold;font-stretch:normal;text-align:start;line-height:100%;writing-mode:lr-tb;text-anchor:start;fill:#f7f7f7;fill-opacity:1;stroke:none;font-family:Quicksand;-inkscape-font-specification:Quicksand Bold"
       d="m -126.37361,981.77839 c 1.58889,0 3.03334,-0.5236 4.17083,-1.4084 0.43334,-0.343 0.50556,-0.9931 0.18056,-1.4444 -0.36111,-0.4334 -1.02917,-0.5056 -1.44444,-0.1987 -0.8125,0.65 -1.78751,0.9931 -2.90695,0.9931 -1.24583,0 -2.40139,-0.5055 -3.25,-1.3 -0.8125,-0.7944 -1.31805,-1.9138 -1.31805,-3.1416 0,-1.2278 0.50555,-2.3111 1.31805,-3.1417 0.84861,-0.7944 2.00417,-1.3 3.25,-1.3 1.11944,0 2.1125,0.3431 2.90695,0.9931 0.41527,0.325 1.08333,0.2527 1.44444,-0.1986 0.325,-0.4514 0.25278,-1.0834 -0.18056,-1.4445 -1.13749,-0.8847 -2.58194,-1.4083 -4.17083,-1.4083 -3.61111,0.018 -6.60833,2.925 -6.62639,6.5 0.0181,3.593 3.01528,6.5 6.62639,6.5"
       id="path2898-6" />
    <g
       transform="matrix(0.95689521,0,0,0.90088883,-20.882222,962.0346)"
       style="font-size:24px;font-style:normal;font-variant:normal;font-weight:bold;font-stretch:normal;line-height:125%;letter-spacing:0px;word-spacing:0px;fill:#f2f2f2;fill-opacity:1;stroke:none;font-family:Open Sans;-inkscape-font-specification:Open Sans Bold;stroke-width:1.07704093;stroke-miterlimit:4;stroke-dasharray:none"
       id="text3895">
      <path
         d="m 43.683594,3.3945313 c -1.367196,1.43e-5 -2.425789,0.5156388 -3.175782,1.5468749 -0.750005,1.0234493 -1.125005,2.4531354 -1.125,4.2890626 -5e-6,3.8203172 1.433588,5.7304712 4.300782,5.7304692 1.203114,2e-6 2.660144,-0.300779 4.371093,-0.902344 l 0,3.046875 c -1.406262,0.585937 -2.976573,0.878906 -4.710937,0.878906 -2.492194,0 -4.398442,-0.753906 -5.71875,-2.261719 -1.320315,-1.515621 -1.98047,-3.687494 -1.980469,-6.5156247 -10e-7,-1.7812397 0.324217,-3.3398319 0.972656,-4.6757813 0.648435,-1.3437354 1.578122,-2.3710782 2.789063,-3.0820313 1.218744,-0.71873293 2.644523,-1.07810757 4.277344,-1.07812495 1.664051,1.738e-5 3.335924,0.40236073 5.015625,1.20703125 L 47.527344,4.53125 C 46.886706,4.226576 46.242176,3.9609513 45.59375,3.734375 44.945302,3.5078267 44.308584,3.3945456 43.683594,3.3945313"
         style="fill:#f2f2f2;stroke-width:1.07704093;stroke-miterlimit:4;stroke-dasharray:none"
         id="path3900"
         inkscape:connector-curvature="0" />
      <path
         d="m 58.496094,3.3945313 c -1.367196,1.43e-5 -2.425789,0.5156388 -3.175782,1.5468749 -0.750005,1.0234493 -1.125005,2.4531354 -1.125,4.2890626 -5e-6,3.8203172 1.433588,5.7304712 4.300782,5.7304692 1.203114,2e-6 2.660144,-0.300779 4.371093,-0.902344 l 0,3.046875 c -1.406262,0.585937 -2.976573,0.878906 -4.710937,0.878906 -2.492194,0 -4.398442,-0.753906 -5.71875,-2.261719 -1.320315,-1.515621 -1.98047,-3.687494 -1.980469,-6.5156247 -10e-7,-1.7812397 0.324217,-3.3398319 0.972656,-4.6757813 0.648435,-1.3437354 1.578122,-2.3710782 2.789063,-3.0820313 1.218744,-0.71873293 2.644523,-1.07810757 4.277344,-1.07812495 1.664051,1.738e-5 3.335924,0.40236073 5.015625,1.20703125 L 62.339844,4.53125 C 61.699206,4.226576 61.054676,3.9609513 60.40625,3.734375 59.757802,3.5078267 59.121084,3.3945456 58.496094,3.3945313"
         style="fill:#f2f2f2;stroke-width:1.07704093;stroke-miterlimit:4;stroke-dasharray:none"
         id="path3902"
         inkscape:connector-curvature="0" />
      <path
         d="m 70.132812,8.2226563 1.171875,0 c 1.14843,9.5e-6 1.996085,-0.1913966 2.542969,-0.5742188 C 74.394521,7.2656355 74.667958,6.6640736 74.667969,5.84375 74.667958,5.0312627 74.386709,4.4531383 73.824219,4.109375 73.269522,3.765639 72.406242,3.5937642 71.234375,3.59375 l -1.101563,0 0,4.6289063 m 0,2.9531247 0,6.574219 -3.632812,0 0,-17.1328125 4.992187,0 c 2.328116,1.713e-5 4.050771,0.425798 5.167969,1.2773437 1.117174,0.8437651 1.675768,2.12892 1.675781,3.8554688 -1.3e-5,1.0078235 -0.277357,1.9062601 -0.832031,2.6953125 -0.5547,0.7812585 -1.339855,1.3945392 -2.355469,1.8398435 2.578112,3.851566 4.257798,6.339845 5.039063,7.464844 l -4.03125,0 -4.089844,-6.574219 -1.933594,0"
         style="fill:#f2f2f2;stroke-width:1.07704093;stroke-miterlimit:4;stroke-dasharray:none"
         id="path3904"
         inkscape:connector-curvature="0" />
    </g>
  </g>
</svg>
