<?xml version="1.0" encoding="UTF-8" standalone="no"?>
<!-- Created with Inkscape (http://www.inkscape.org/) -->

<svg
   xmlns:dc="http://purl.org/dc/elements/1.1/"
   xmlns:cc="http://creativecommons.org/ns#"
   xmlns:rdf="http://www.w3.org/1999/02/22-rdf-syntax-ns#"
   xmlns:svg="http://www.w3.org/2000/svg"
   xmlns="http://www.w3.org/2000/svg"
   xmlns:xlink="http://www.w3.org/1999/xlink"
   xmlns:sodipodi="http://sodipodi.sourceforge.net/DTD/sodipodi-0.dtd"
   xmlns:inkscape="http://www.inkscape.org/namespaces/inkscape"
   width="86"
   height="32"
   id="svg2"
   version="1.1"
   inkscape:version="0.48.3.1 r9886"
   sodipodi:docname="CCR-minimal.svg"
   inkscape:export-filename="/home/Fernando/Hyuuga/Hycons/iconset/128x128/mimetypes/package-x-generic.png"
   inkscape:export-xdpi="90"
   inkscape:export-ydpi="90">
  <defs
     id="defs4">
    <linearGradient
       id="linearGradient3811">
      <stop
         style="stop-color:#10b9e6;stop-opacity:1;"
         offset="0"
         id="stop3813" />
      <stop
         style="stop-color:#5b86a1;stop-opacity:1;"
         offset="1"
         id="stop3815" />
    </linearGradient>
    <inkscape:perspective
       sodipodi:type="inkscape:persp3d"
       inkscape:vp_x="0 : 526.18109 : 1"
       inkscape:vp_y="0 : 1000 : 0"
       inkscape:vp_z="744.09448 : 526.18109 : 1"
       inkscape:persp3d-origin="372.04724 : 350.78739 : 1"
       id="perspective10" />
    <inkscape:perspective
       id="perspective4203"
       inkscape:persp3d-origin="0.5 : 0.33333333 : 1"
       inkscape:vp_z="1 : 0.5 : 1"
       inkscape:vp_y="0 : 1000 : 0"
       inkscape:vp_x="0 : 0.5 : 1"
       sodipodi:type="inkscape:persp3d" />
    <radialGradient
       inkscape:collect="always"
       xlink:href="#linearGradient3357"
       id="radialGradient4377"
       gradientUnits="userSpaceOnUse"
       gradientTransform="matrix(3.0516063,0,0,1.2872652,-151.02055,-348.87251)"
       cx="23.999998"
       cy="1013.3619"
       fx="23.999998"
       fy="1013.3619"
       r="18.000002" />
    <linearGradient
       id="linearGradient3357">
      <stop
         style="stop-color:#c3c3c3;stop-opacity:1;"
         offset="0"
         id="stop3359" />
      <stop
         style="stop-color:#666666;stop-opacity:1;"
         offset="1"
         id="stop3361" />
    </linearGradient>
    <radialGradient
       inkscape:collect="always"
       xlink:href="#linearGradient3357"
       id="radialGradient5915"
       cx="24"
       cy="1017.3622"
       fx="24"
       fy="1017.3622"
       r="18.000002"
       gradientTransform="matrix(4.2255374e-6,4.1836178,-4.0184722,4.0737874e-6,4010.4597,866.76744)"
       gradientUnits="userSpaceOnUse" />
    <linearGradient
       id="linearGradient4214">
      <stop
         style="stop-color:#e0bc88;stop-opacity:1"
         offset="0"
         id="stop4216" />
      <stop
         style="stop-color:#a57c41;stop-opacity:1"
         offset="1"
         id="stop4218" />
    </linearGradient>
    <linearGradient
       gradientTransform="matrix(2.8909953,0,0,2.8963505,-147.16588,-1993.9409)"
       inkscape:collect="always"
       xlink:href="#linearGradient4305"
       id="linearGradient4311"
       x1="18.197292"
       y1="1022.3615"
       x2="18.197292"
       y2="1048.3755"
       gradientUnits="userSpaceOnUse" />
    <linearGradient
       inkscape:collect="always"
       id="linearGradient4305">
      <stop
         style="stop-color:#a57c41;stop-opacity:1"
         offset="0"
         id="stop4307" />
      <stop
         style="stop-color:#886636;stop-opacity:1"
         offset="1"
         id="stop4309" />
    </linearGradient>
    <linearGradient
       gradientTransform="matrix(2.8909953,0,0,2.8963505,-147.16588,-1993.9409)"
       inkscape:collect="always"
       xlink:href="#linearGradient5180"
       id="linearGradient5186"
       x1="18"
       y1="1023.3622"
       x2="18"
       y2="1047.3622"
       gradientUnits="userSpaceOnUse" />
    <linearGradient
       id="linearGradient5180">
      <stop
         style="stop-color:#ffffff;stop-opacity:0.19607843;"
         offset="0"
         id="stop5182" />
      <stop
         style="stop-color:#ffffff;stop-opacity:0.15686275;"
         offset="1"
         id="stop5184" />
    </linearGradient>
    <linearGradient
       id="linearGradient4363">
      <stop
         id="stop4365"
         offset="0"
         style="stop-color:#ffffff;stop-opacity:1;" />
      <stop
         id="stop4367"
         offset="1"
         style="stop-color:#ffffff;stop-opacity:0;" />
    </linearGradient>
    <linearGradient
       inkscape:collect="always"
       xlink:href="#linearGradient4239"
       id="linearGradient4246"
       x1="6.9987454"
       y1="18.70793"
       x2="41.001373"
       y2="18.70793"
       gradientUnits="userSpaceOnUse"
       gradientTransform="matrix(2.8909953,0,0,2.8963505,-147.16588,917.94048)" />
    <linearGradient
       id="linearGradient4239">
      <stop
         style="stop-color:#ffffff;stop-opacity:0;"
         offset="0"
         id="stop4241" />
      <stop
         id="stop4248"
         offset="0.5"
         style="stop-color:#ffffff;stop-opacity:1;" />
      <stop
         style="stop-color:#ffffff;stop-opacity:0;"
         offset="1"
         id="stop4243" />
    </linearGradient>
    <linearGradient
       id="linearGradient4213-0">
      <stop
         style="stop-color:#000000;stop-opacity:0;"
         offset="0"
         id="stop4215-7" />
      <stop
         style="stop-color:#000000;stop-opacity:1;"
         offset="1"
         id="stop4217-8" />
    </linearGradient>
    <radialGradient
       inkscape:collect="always"
       xlink:href="#linearGradient3357"
       id="radialGradient4345"
       gradientUnits="userSpaceOnUse"
       gradientTransform="matrix(3.3337964,2.6338257e-8,-1.185045e-8,1.4999848,-16.011099,-560.66558)"
       cx="23.999998"
       cy="1013.3619"
       fx="23.999998"
       fy="1013.3619"
       r="18.000002" />
    <radialGradient
       inkscape:collect="always"
       xlink:href="#linearGradient4213-0"
       id="radialGradient4407"
       gradientUnits="userSpaceOnUse"
       gradientTransform="matrix(1,0,0,0.25726654,0,25.995671)"
       cx="64"
       cy="35"
       fx="64"
       fy="35"
       r="50.53125" />
    <linearGradient
       inkscape:collect="always"
       xlink:href="#linearGradient3811-6"
       id="linearGradient3817-4"
       x1="20"
       y1="948.36218"
       x2="28"
       y2="984.36218"
       gradientUnits="userSpaceOnUse"
       gradientTransform="matrix(0.89940528,0,0,1.0556306,0.77482048,-54.889186)" />
    <linearGradient
       id="linearGradient3811-6">
      <stop
         style="stop-color:#10b9e6;stop-opacity:1;"
         offset="0"
         id="stop3813-2" />
      <stop
         style="stop-color:#5b86a1;stop-opacity:1;"
         offset="1"
         id="stop3815-5" />
    </linearGradient>
    <linearGradient
       inkscape:collect="always"
       xlink:href="#linearGradient3357"
       id="linearGradient3077"
       gradientUnits="userSpaceOnUse"
       gradientTransform="matrix(0.54624608,0,0,0.70177876,35.856017,314.57551)"
       x1="20"
       y1="948.36218"
       x2="28"
       y2="984.36218" />
    <linearGradient
       inkscape:collect="always"
       xlink:href="#linearGradient4363"
       id="linearGradient3079"
       gradientUnits="userSpaceOnUse"
       gradientTransform="matrix(0.5823862,0,0,0.59359066,37.22326,418.4842)"
       x1="9.1758623"
       y1="943.21362"
       x2="21.451923"
       y2="991.39099" />
    <radialGradient
       inkscape:collect="always"
       xlink:href="#linearGradient3811-6"
       id="radialGradient3855"
       cx="-61.230774"
       cy="103.47537"
       fx="-61.230774"
       fy="103.47537"
       r="30"
       gradientTransform="matrix(1,0,0,0.84999992,0,15.521314)"
       gradientUnits="userSpaceOnUse" />
    <linearGradient
       inkscape:collect="always"
       xlink:href="#linearGradient4363"
       id="linearGradient3866"
       gradientUnits="userSpaceOnUse"
       gradientTransform="matrix(1.5993011,0,0,1.6300708,7.486627,-622.94497)"
       x1="9.1758623"
       y1="943.21362"
       x2="21.451923"
       y2="991.39099" />
    <linearGradient
       inkscape:collect="always"
       xlink:href="#linearGradient3811"
       id="linearGradient3869"
       gradientUnits="userSpaceOnUse"
       gradientTransform="matrix(1.5000555,0,0,1.9271669,-87.267986,-900.2904)"
       x1="20.17791"
       y1="956.14587"
       x2="25.511047"
       y2="985.20404" />
    <linearGradient
       id="linearGradient3811-6-8">
      <stop
         style="stop-color:#10b9e6;stop-opacity:1;"
         offset="0"
         id="stop3813-2-0" />
      <stop
         style="stop-color:#5b86a1;stop-opacity:1;"
         offset="1"
         id="stop3815-5-4" />
    </linearGradient>
    <radialGradient
       inkscape:collect="always"
       xlink:href="#linearGradient3811-6-8"
       id="radialGradient3857-9"
       gradientUnits="userSpaceOnUse"
       gradientTransform="matrix(3.5462095,-0.06221449,0.04912134,2.7998998,195.53208,-148.86578)"
       cx="-81.894638"
       cy="76.0187"
       fx="-81.894638"
       fy="76.0187"
       r="30" />
    <linearGradient
       id="linearGradient3909">
      <stop
         style="stop-color:#10b9e6;stop-opacity:1;"
         offset="0"
         id="stop3911" />
      <stop
         style="stop-color:#5b86a1;stop-opacity:1;"
         offset="1"
         id="stop3913" />
    </linearGradient>
    <linearGradient
       inkscape:collect="always"
       xlink:href="#linearGradient3357-0"
       id="linearGradient3877-8"
       x1="-4"
       y1="1024.3622"
       x2="10"
       y2="1053.3622"
       gradientUnits="userSpaceOnUse"
       gradientTransform="translate(0,-0.39956214)" />
    <linearGradient
       id="linearGradient3357-0">
      <stop
         style="stop-color:#c3c3c3;stop-opacity:1;"
         offset="0"
         id="stop3359-9" />
      <stop
         style="stop-color:#666666;stop-opacity:1;"
         offset="1"
         id="stop3361-5" />
    </linearGradient>
    <linearGradient
       id="linearGradient3811-6-5">
      <stop
         style="stop-color:#10b9e6;stop-opacity:1;"
         offset="0"
         id="stop3813-2-6" />
      <stop
         style="stop-color:#5b86a1;stop-opacity:1;"
         offset="1"
         id="stop3815-5-6" />
    </linearGradient>
    <radialGradient
       inkscape:collect="always"
       xlink:href="#linearGradient3811-6-5"
       id="radialGradient3857-4"
       gradientUnits="userSpaceOnUse"
       gradientTransform="matrix(3.5462095,-0.06221449,0.04912134,2.7998998,195.53208,-148.86578)"
       cx="-81.894638"
       cy="76.0187"
       fx="-81.894638"
       fy="76.0187"
       r="30" />
    <linearGradient
       id="linearGradient3858">
      <stop
         style="stop-color:#10b9e6;stop-opacity:1;"
         offset="0"
         id="stop3860" />
      <stop
         style="stop-color:#5b86a1;stop-opacity:1;"
         offset="1"
         id="stop3862" />
    </linearGradient>
    <radialGradient
       inkscape:collect="always"
       xlink:href="#linearGradient3858"
       id="radialGradient3843"
       cx="35.762417"
       cy="-4.1475749"
       fx="35.762417"
       fy="-4.1475749"
       r="22.271484"
       gradientTransform="matrix(3.353282,5.5045492e-8,1.1475041e-7,2.794364,-88.427003,-3.514304)"
       gradientUnits="userSpaceOnUse" />
    <radialGradient
       inkscape:collect="always"
       xlink:href="#linearGradient3858"
       id="radialGradient3845"
       cx="-54.396553"
       cy="82.363449"
       fx="-54.396553"
       fy="82.363449"
       r="29.082285"
       gradientTransform="matrix(5.8835542,-3.1393353e-7,2.3244453e-7,4.9028957,286.7339,-356.24354)"
       gradientUnits="userSpaceOnUse" />
    <linearGradient
       id="linearGradient3858-3">
      <stop
         style="stop-color:#10b9e6;stop-opacity:1;"
         offset="0"
         id="stop3860-7" />
      <stop
         style="stop-color:#5b86a1;stop-opacity:1;"
         offset="1"
         id="stop3862-9" />
    </linearGradient>
    <radialGradient
       inkscape:collect="always"
       xlink:href="#linearGradient3858-3"
       id="radialGradient3880"
       cx="35.762417"
       cy="-4.1475749"
       fx="35.762417"
       fy="-4.1475749"
       r="22.271484"
       gradientTransform="matrix(3.353282,5.5045492e-8,1.1475041e-7,2.794364,-88.427003,-3.514304)"
       gradientUnits="userSpaceOnUse" />
    <linearGradient
       id="linearGradient3882">
      <stop
         style="stop-color:#10b9e6;stop-opacity:1;"
         offset="0"
         id="stop3884" />
      <stop
         style="stop-color:#5b86a1;stop-opacity:1;"
         offset="1"
         id="stop3886" />
    </linearGradient>
    <radialGradient
       inkscape:collect="always"
       xlink:href="#linearGradient3858-3"
       id="radialGradient3888"
       cx="35.762417"
       cy="-4.1475749"
       fx="35.762417"
       fy="-4.1475749"
       r="22.271484"
       gradientTransform="matrix(3.353282,5.5045492e-8,1.1475041e-7,2.794364,-88.427003,-3.514304)"
       gradientUnits="userSpaceOnUse" />
    <linearGradient
       id="linearGradient3890">
      <stop
         style="stop-color:#10b9e6;stop-opacity:1;"
         offset="0"
         id="stop3892" />
      <stop
         style="stop-color:#5b86a1;stop-opacity:1;"
         offset="1"
         id="stop3894" />
    </linearGradient>
    <radialGradient
       inkscape:collect="always"
       xlink:href="#linearGradient3858-3"
       id="radialGradient3896"
       cx="35.762417"
       cy="-4.1475749"
       fx="35.762417"
       fy="-4.1475749"
       r="22.271484"
       gradientTransform="matrix(3.353282,5.5045492e-8,1.1475041e-7,2.794364,-88.427003,-3.514304)"
       gradientUnits="userSpaceOnUse" />
    <linearGradient
       id="linearGradient3898">
      <stop
         style="stop-color:#10b9e6;stop-opacity:1;"
         offset="0"
         id="stop3900" />
      <stop
         style="stop-color:#5b86a1;stop-opacity:1;"
         offset="1"
         id="stop3902" />
    </linearGradient>
    <radialGradient
       inkscape:collect="always"
       xlink:href="#linearGradient3858-3"
       id="radialGradient3845-4"
       cx="-54.396553"
       cy="82.363449"
       fx="-54.396553"
       fy="82.363449"
       r="29.082285"
       gradientTransform="matrix(5.8835542,-3.1393353e-7,2.3244453e-7,4.9028957,286.7339,-356.24354)"
       gradientUnits="userSpaceOnUse" />
    <linearGradient
       id="linearGradient3905">
      <stop
         style="stop-color:#10b9e6;stop-opacity:1;"
         offset="0"
         id="stop3907" />
      <stop
         style="stop-color:#5b86a1;stop-opacity:1;"
         offset="1"
         id="stop3909" />
    </linearGradient>
    <radialGradient
       inkscape:collect="always"
       xlink:href="#linearGradient3858-3"
       id="radialGradient3911"
       cx="-54.396553"
       cy="82.363449"
       fx="-54.396553"
       fy="82.363449"
       r="29.082285"
       gradientTransform="matrix(5.8835542,-3.1393353e-7,2.3244453e-7,4.9028957,286.7339,-356.24354)"
       gradientUnits="userSpaceOnUse" />
    <linearGradient
       id="linearGradient3913">
      <stop
         style="stop-color:#10b9e6;stop-opacity:1;"
         offset="0"
         id="stop3915" />
      <stop
         style="stop-color:#5b86a1;stop-opacity:1;"
         offset="1"
         id="stop3917" />
    </linearGradient>
  </defs>
  <sodipodi:namedview
     id="base"
     pagecolor="#4e4e4e"
     bordercolor="#666666"
     borderopacity="1.0"
     inkscape:pageopacity="1"
     inkscape:pageshadow="2"
     inkscape:zoom="1.4142136"
     inkscape:cx="90.126797"
     inkscape:cy="8.3842022"
     inkscape:document-units="px"
     inkscape:current-layer="layer1"
     showgrid="true"
     inkscape:window-width="1366"
     inkscape:window-height="709"
     inkscape:window-x="0"
     inkscape:window-y="-3"
     inkscape:window-maximized="1"
     inkscape:snap-bbox="true">
    <inkscape:grid
       type="xygrid"
       id="grid2816"
       empspacing="4"
       visible="true"
       enabled="true"
       snapvisiblegridlinesonly="true" />
  </sodipodi:namedview>
  <metadata
     id="metadata7">
    <rdf:RDF>
      <cc:Work
         rdf:about="">
        <dc:format>image/svg+xml</dc:format>
        <dc:type
           rdf:resource="http://purl.org/dc/dcmitype/StillImage" />
        <dc:title></dc:title>
      </cc:Work>
    </rdf:RDF>
  </metadata>
  <g
     inkscape:label="Capa 1"
     inkscape:groupmode="layer"
     id="layer1"
     transform="translate(0,-1020.3622)">
    <g
       id="g4016">
      <g
         transform="matrix(0.42078881,0,0,0.42078881,46.016962,992.3428)"
         style="font-size:120px;font-style:normal;font-variant:normal;font-weight:normal;font-stretch:normal;line-height:125%;letter-spacing:0px;word-spacing:0px;fill:url(#radialGradient3845);fill-opacity:1;stroke:#035d8a;font-family:Entypo;-inkscape-font-specification:Entypo;stroke-opacity:1;stroke-width:1.18824452999999997;stroke-miterlimit:4;stroke-dasharray:none"
         id="text3058-00">
        <path
           style="fill:url(#radialGradient3845);fill-opacity:1;stroke:#035d8a;stroke-opacity:1;stroke-width:1.18824452999999997;stroke-miterlimit:4;stroke-dasharray:none"
           d="m -45.213564,128.10321 0,-8.37566 c -5e-5,-1.00819 -0.116379,-1.86129 -0.348987,-2.55931 -0.232708,-0.6979 -0.7368,-1.3571 -1.512277,-1.97753 -0.698023,-0.69798 -1.783761,-1.39598 -3.257218,-2.094 -1.395995,-0.77548 -3.257257,-1.74489 -5.583798,-2.90822 1.628567,-1.16327 2.442869,-2.75309 2.442913,-4.76944 -4.4e-5,-0.46528 -0.07756,-0.81428 -0.232659,-1.047 -0.155145,-0.23258 -0.349028,-0.46528 -0.581646,-0.69801 -0.155146,-0.31017 -0.34903,-0.65909 -0.581644,-1.04691 -0.2327,-0.46526 -0.426582,-1.12447 -0.581646,-1.97761 -0.07755,-0.31016 -0.193923,-0.50406 -0.348987,-0.58161 -0.155146,-0.07794 -0.310253,-0.155056 -0.465317,-0.232692 -0.155148,-0.155072 -0.310252,-0.387724 -0.465319,-0.697969 -0.155143,-0.310177 -0.271472,-0.891821 -0.348986,-1.744934 -3.8e-5,-0.620385 0.116292,-1.046928 0.348986,-1.279623 0.07755,-0.155067 0.193844,-0.271398 0.348989,-0.348986 -0.07755,-0.387725 -0.155145,-0.77549 -0.232659,-1.16329 -0.07762,-0.387729 -0.155145,-0.736713 -0.232658,-1.046964 -3.6e-5,-0.387724 -3.6e-5,-0.775485 0,-1.163289 -3.6e-5,-0.465278 0.07752,-1.046924 0.232658,-1.744938 0.155068,-0.775485 0.46528,-1.512237 0.930633,-2.210256 0.54283,-0.775481 1.240804,-1.395902 2.093925,-1.861265 0.930591,-0.542824 2.171432,-0.814257 3.722535,-0.814304 1.473452,4.7e-5 2.675519,0.27148 3.606199,0.814304 0.930584,0.465363 1.628557,1.085784 2.093926,1.861265 0.542816,0.698019 0.891807,1.434771 1.046961,2.210256 0.155056,0.698014 0.232608,1.27966 0.232661,1.744938 -0.07762,0.387804 -0.116385,0.775565 -0.116329,1.163289 -5.6e-5,0.310251 -0.03886,0.659235 -0.116332,1.046964 -0.07758,0.3878 -0.155154,0.775565 -0.232658,1.16329 0.07751,0.07758 0.155053,0.193919 0.232658,0.348986 0.0775,0.155145 0.155056,0.349026 0.232661,0.581648 0.0775,0.15514 0.116275,0.387799 0.116327,0.697975 -0.0776,0.853113 -0.193932,1.434757 -0.348988,1.744934 -0.155154,0.310245 -0.310263,0.542897 -0.465314,0.697969 -0.15516,0.07789 -0.310265,0.15513 -0.465319,0.232692 -0.155157,0.0765 -0.271486,0.27145 -0.348985,0.58161 -0.155157,0.85314 -0.34904,1.51235 -0.581646,1.97761 -0.155159,0.38782 -0.349039,0.73674 -0.581647,1.04691 -0.155156,0.23273 -0.31026,0.46543 -0.465316,0.69801 -0.155154,0.23272 -0.232706,0.58172 -0.23266,1.047 -4.6e-5,1.55104 0.387716,2.79192 1.163296,3.72252 0.853025,0.93064 2.365301,1.82254 4.536832,2.67553 2.171422,0.85313 3.838803,1.62863 5.002153,2.32661 1.240783,0.62043 2.132638,1.35723 2.675569,2.21022 0.155044,0.31022 0.271375,1.08582 0.348991,2.32661 0.07748,1.24083 0.155042,2.55924 0.23266,3.95523 0.0775,1.62862 0.116264,3.45104 0.116325,5.46744 l -13.028863,0 m -15.355445,-14.7738 c 2.946964,1.16332 5.467429,2.32663 7.561394,3.48984 2.093878,1.16331 3.140841,2.36541 3.140889,3.60621 l 0,7.67775 -40.482544,0 0,-10.23697 c -6e-6,-0.69798 0.155105,-1.27959 0.465314,-1.74492 0.387765,-0.46528 0.853078,-0.85308 1.395952,-1.1633 0.542863,-0.38778 1.085735,-0.69799 1.628608,-0.93061 0.542864,-0.31019 1.046956,-0.54288 1.512281,-0.698 2.869435,-1.16328 4.847033,-2.32659 5.932789,-3.48992 1.08572,-1.16319 1.628584,-2.7918 1.628603,-4.88575 -1.9e-5,-0.62046 -0.116346,-1.08577 -0.348983,-1.396 -0.155129,-0.31017 -0.387781,-0.62037 -0.697975,-0.93061 -0.232679,-0.38776 -0.50411,-0.85306 -0.814306,-1.39594 -0.232678,-0.62043 -0.465331,-1.512232 -0.697974,-2.675585 -0.07757,-0.465283 -0.232678,-0.736717 -0.465316,-0.814304 -0.232675,-0.155071 -0.465335,-0.310176 -0.697975,-0.465315 -0.232674,-0.155072 -0.465335,-0.426506 -0.697973,-0.814305 -0.155124,-0.387726 -0.271455,-1.124479 -0.348991,-2.210255 -1.4e-5,-0.697935 0.155094,-1.279579 0.465313,-1.744936 0.155096,-0.232617 0.310197,-0.387725 0.465323,-0.465316 -0.07758,-0.465275 -0.155126,-0.969368 -0.232662,-1.51228 -0.07755,-0.465274 -0.155116,-0.93059 -0.232661,-1.39595 -0.07757,-0.542823 -0.116337,-1.085692 -0.116322,-1.628606 -0.0776,-0.620376 -1.5e-5,-1.43468 0.232653,-2.442913 0.232646,-1.008137 0.659189,-1.977545 1.279619,-2.908231 0.697959,-0.93058 1.628593,-1.744882 2.791899,-2.442908 1.240828,-0.697922 2.869437,-1.046909 4.885825,-1.046964 2.016346,5.5e-5 3.644955,0.349042 4.885828,1.046964 1.240812,0.698026 2.171446,1.512328 2.791898,2.442908 0.697945,0.930686 1.163259,1.900094 1.39595,2.908231 0.232623,1.008233 0.310179,1.822537 0.232656,2.442913 -0.07758,0.542914 -0.155136,1.085783 -0.232656,1.628606 -3.1e-5,0.46536 -0.03883,0.930676 -0.11633,1.39595 -0.07756,0.542912 -0.15514,1.047005 -0.232658,1.51228 0.07749,0.07758 0.193848,0.232699 0.348988,0.465316 0.310179,0.465357 0.465283,1.047001 0.465316,1.744936 -0.07758,1.085776 -0.232693,1.822529 -0.465316,2.210255 -0.15514,0.387799 -0.349021,0.659233 -0.58165,0.814305 -0.232685,0.155139 -0.465345,0.310244 -0.697974,0.465315 -0.155134,0.07758 -0.271464,0.349021 -0.348984,0.814304 -0.232691,1.163353 -0.504124,2.055155 -0.814305,2.675585 -0.232689,0.54288 -0.504123,1.00818 -0.814305,1.39594 -0.232683,0.31024 -0.465343,0.62044 -0.697975,0.93061 -0.155131,0.31023 -0.232682,0.77554 -0.232655,1.396 -2.7e-5,2.09395 0.542838,3.72256 1.628605,4.88575 1.085706,1.16333 3.063303,2.32664 5.932787,3.48992"
           id="path3063-4"
           inkscape:connector-curvature="0" />
      </g>
      <g
         id="text3895"
         style="font-size:24px;font-style:normal;font-variant:normal;font-weight:bold;font-stretch:normal;line-height:125%;letter-spacing:0px;word-spacing:0px;fill:url(#radialGradient3843);fill-opacity:1;stroke:#035d8a;font-family:Open Sans;-inkscape-font-specification:Open Sans Bold;stroke-opacity:1;stroke-width:0.51862898999999996;stroke-miterlimit:4;stroke-dasharray:none"
         transform="matrix(0.96408032,0,0,0.96408032,1.6368091,1026.9238)">
        <path
           inkscape:connector-curvature="0"
           id="path3900"
           style="fill:url(#radialGradient3843);fill-opacity:1;stroke:#035d8a;stroke-opacity:1;stroke-width:0.51862898999999996;stroke-miterlimit:4;stroke-dasharray:none"
           d="m 43.683594,3.3945313 c -1.367196,1.43e-5 -2.425789,0.5156388 -3.175782,1.5468749 -0.750005,1.0234493 -1.125005,2.4531354 -1.125,4.2890626 -5e-6,3.8203172 1.433588,5.7304712 4.300782,5.7304692 1.203114,2e-6 2.660144,-0.300779 4.371093,-0.902344 l 0,3.046875 c -1.406262,0.585937 -2.976573,0.878906 -4.710937,0.878906 -2.492194,0 -4.398442,-0.753906 -5.71875,-2.261719 -1.320315,-1.515621 -1.98047,-3.687494 -1.980469,-6.5156247 -10e-7,-1.7812397 0.324217,-3.3398319 0.972656,-4.6757813 0.648435,-1.3437354 1.578122,-2.3710782 2.789063,-3.0820313 1.218744,-0.71873293 2.644523,-1.07810757 4.277344,-1.07812495 1.664051,1.738e-5 3.335924,0.40236073 5.015625,1.20703125 L 47.527344,4.53125 C 46.886706,4.226576 46.242176,3.9609513 45.59375,3.734375 44.945302,3.5078267 44.308584,3.3945456 43.683594,3.3945313" />
        <path
           inkscape:connector-curvature="0"
           id="path3902"
           style="fill:url(#radialGradient3843);fill-opacity:1;stroke:#035d8a;stroke-opacity:1;stroke-width:0.51862898999999996;stroke-miterlimit:4;stroke-dasharray:none"
           d="m 58.496094,3.3945313 c -1.367196,1.43e-5 -2.425789,0.5156388 -3.175782,1.5468749 -0.750005,1.0234493 -1.125005,2.4531354 -1.125,4.2890626 -5e-6,3.8203172 1.433588,5.7304712 4.300782,5.7304692 1.203114,2e-6 2.660144,-0.300779 4.371093,-0.902344 l 0,3.046875 c -1.406262,0.585937 -2.976573,0.878906 -4.710937,0.878906 -2.492194,0 -4.398442,-0.753906 -5.71875,-2.261719 -1.320315,-1.515621 -1.98047,-3.687494 -1.980469,-6.5156247 -10e-7,-1.7812397 0.324217,-3.3398319 0.972656,-4.6757813 0.648435,-1.3437354 1.578122,-2.3710782 2.789063,-3.0820313 1.218744,-0.71873293 2.644523,-1.07810757 4.277344,-1.07812495 1.664051,1.738e-5 3.335924,0.40236073 5.015625,1.20703125 L 62.339844,4.53125 C 61.699206,4.226576 61.054676,3.9609513 60.40625,3.734375 59.757802,3.5078267 59.121084,3.3945456 58.496094,3.3945313" />
        <path
           inkscape:connector-curvature="0"
           id="path3904"
           style="fill:url(#radialGradient3843);fill-opacity:1;stroke:#035d8a;stroke-opacity:1;stroke-width:0.51862898999999996;stroke-miterlimit:4;stroke-dasharray:none"
           d="m 70.132812,8.2226563 1.171875,0 c 1.14843,9.5e-6 1.996085,-0.1913966 2.542969,-0.5742188 C 74.394521,7.2656355 74.667958,6.6640736 74.667969,5.84375 74.667958,5.0312627 74.386709,4.4531383 73.824219,4.109375 73.269522,3.765639 72.406242,3.5937642 71.234375,3.59375 l -1.101563,0 0,4.6289063 m 0,2.9531247 0,6.574219 -3.632812,0 0,-17.1328125 4.992187,0 c 2.328116,1.713e-5 4.050771,0.425798 5.167969,1.2773437 1.117174,0.8437651 1.675768,2.12892 1.675781,3.8554688 -1.3e-5,1.0078235 -0.277357,1.9062601 -0.832031,2.6953125 -0.5547,0.7812585 -1.339855,1.3945392 -2.355469,1.8398435 2.578112,3.851566 4.257798,6.339845 5.039063,7.464844 l -4.03125,0 -4.089844,-6.574219 -1.933594,0" />
      </g>
    </g>
    <g
       id="g4024"
       transform="translate(19.399698,-14.199828)">
      <g
         transform="matrix(0.42078881,0,0,0.42078881,22.016962,1052.3428)"
         style="font-size:120px;font-style:normal;font-variant:normal;font-weight:normal;font-stretch:normal;line-height:125%;letter-spacing:0px;word-spacing:0px;fill:#ffffff;fill-opacity:1;stroke:none;font-family:Entypo;-inkscape-font-specification:Entypo"
         id="text3058-00-9">
        <path
           style="fill:#ffffff;fill-opacity:1;stroke:none"
           d="m -45.213564,128.10321 0,-8.37566 c -5e-5,-1.00819 -0.116379,-1.86129 -0.348987,-2.55931 -0.232708,-0.6979 -0.7368,-1.3571 -1.512277,-1.97753 -0.698023,-0.69798 -1.783761,-1.39598 -3.257218,-2.094 -1.395995,-0.77548 -3.257257,-1.74489 -5.583798,-2.90822 1.628567,-1.16327 2.442869,-2.75309 2.442913,-4.76944 -4.4e-5,-0.46528 -0.07756,-0.81428 -0.232659,-1.047 -0.155145,-0.23258 -0.349028,-0.46528 -0.581646,-0.69801 -0.155146,-0.31017 -0.34903,-0.65909 -0.581644,-1.04691 -0.2327,-0.46526 -0.426582,-1.12447 -0.581646,-1.97761 -0.07755,-0.31016 -0.193923,-0.50406 -0.348987,-0.58161 -0.155146,-0.07794 -0.310253,-0.155056 -0.465317,-0.232692 -0.155148,-0.155072 -0.310252,-0.387724 -0.465319,-0.697969 -0.155143,-0.310177 -0.271472,-0.891821 -0.348986,-1.744934 -3.8e-5,-0.620385 0.116292,-1.046928 0.348986,-1.279623 0.07755,-0.155067 0.193844,-0.271398 0.348989,-0.348986 -0.07755,-0.387725 -0.155145,-0.77549 -0.232659,-1.16329 -0.07762,-0.387729 -0.155145,-0.736713 -0.232658,-1.046964 -3.6e-5,-0.387724 -3.6e-5,-0.775485 0,-1.163289 -3.6e-5,-0.465278 0.07752,-1.046924 0.232658,-1.744938 0.155068,-0.775485 0.46528,-1.512237 0.930633,-2.210256 0.54283,-0.775481 1.240804,-1.395902 2.093925,-1.861265 0.930591,-0.542824 2.171432,-0.814257 3.722535,-0.814304 1.473452,4.7e-5 2.675519,0.27148 3.606199,0.814304 0.930584,0.465363 1.628557,1.085784 2.093926,1.861265 0.542816,0.698019 0.891807,1.434771 1.046961,2.210256 0.155056,0.698014 0.232608,1.27966 0.232661,1.744938 -0.07762,0.387804 -0.116385,0.775565 -0.116329,1.163289 -5.6e-5,0.310251 -0.03886,0.659235 -0.116332,1.046964 -0.07758,0.3878 -0.155154,0.775565 -0.232658,1.16329 0.07751,0.07758 0.155053,0.193919 0.232658,0.348986 0.0775,0.155145 0.155056,0.349026 0.232661,0.581648 0.0775,0.15514 0.116275,0.387799 0.116327,0.697975 -0.0776,0.853113 -0.193932,1.434757 -0.348988,1.744934 -0.155154,0.310245 -0.310263,0.542897 -0.465314,0.697969 -0.15516,0.07789 -0.310265,0.15513 -0.465319,0.232692 -0.155157,0.0765 -0.271486,0.27145 -0.348985,0.58161 -0.155157,0.85314 -0.34904,1.51235 -0.581646,1.97761 -0.155159,0.38782 -0.349039,0.73674 -0.581647,1.04691 -0.155156,0.23273 -0.31026,0.46543 -0.465316,0.69801 -0.155154,0.23272 -0.232706,0.58172 -0.23266,1.047 -4.6e-5,1.55104 0.387716,2.79192 1.163296,3.72252 0.853025,0.93064 2.365301,1.82254 4.536832,2.67553 2.171422,0.85313 3.838803,1.62863 5.002153,2.32661 1.240783,0.62043 2.132638,1.35723 2.675569,2.21022 0.155044,0.31022 0.271375,1.08582 0.348991,2.32661 0.07748,1.24083 0.155042,2.55924 0.23266,3.95523 0.0775,1.62862 0.116264,3.45104 0.116325,5.46744 l -13.028863,0 m -15.355445,-14.7738 c 2.946964,1.16332 5.467429,2.32663 7.561394,3.48984 2.093878,1.16331 3.140841,2.36541 3.140889,3.60621 l 0,7.67775 -40.482544,0 0,-10.23697 c -6e-6,-0.69798 0.155105,-1.27959 0.465314,-1.74492 0.387765,-0.46528 0.853078,-0.85308 1.395952,-1.1633 0.542863,-0.38778 1.085735,-0.69799 1.628608,-0.93061 0.542864,-0.31019 1.046956,-0.54288 1.512281,-0.698 2.869435,-1.16328 4.847033,-2.32659 5.932789,-3.48992 1.08572,-1.16319 1.628584,-2.7918 1.628603,-4.88575 -1.9e-5,-0.62046 -0.116346,-1.08577 -0.348983,-1.396 -0.155129,-0.31017 -0.387781,-0.62037 -0.697975,-0.93061 -0.232679,-0.38776 -0.50411,-0.85306 -0.814306,-1.39594 -0.232678,-0.62043 -0.465331,-1.512232 -0.697974,-2.675585 -0.07757,-0.465283 -0.232678,-0.736717 -0.465316,-0.814304 -0.232675,-0.155071 -0.465335,-0.310176 -0.697975,-0.465315 -0.232674,-0.155072 -0.465335,-0.426506 -0.697973,-0.814305 -0.155124,-0.387726 -0.271455,-1.124479 -0.348991,-2.210255 -1.4e-5,-0.697935 0.155094,-1.279579 0.465313,-1.744936 0.155096,-0.232617 0.310197,-0.387725 0.465323,-0.465316 -0.07758,-0.465275 -0.155126,-0.969368 -0.232662,-1.51228 -0.07755,-0.465274 -0.155116,-0.93059 -0.232661,-1.39595 -0.07757,-0.542823 -0.116337,-1.085692 -0.116322,-1.628606 -0.0776,-0.620376 -1.5e-5,-1.43468 0.232653,-2.442913 0.232646,-1.008137 0.659189,-1.977545 1.279619,-2.908231 0.697959,-0.93058 1.628593,-1.744882 2.791899,-2.442908 1.240828,-0.697922 2.869437,-1.046909 4.885825,-1.046964 2.016346,5.5e-5 3.644955,0.349042 4.885828,1.046964 1.240812,0.698026 2.171446,1.512328 2.791898,2.442908 0.697945,0.930686 1.163259,1.900094 1.39595,2.908231 0.232623,1.008233 0.310179,1.822537 0.232656,2.442913 -0.07758,0.542914 -0.155136,1.085783 -0.232656,1.628606 -3.1e-5,0.46536 -0.03883,0.930676 -0.11633,1.39595 -0.07756,0.542912 -0.15514,1.047005 -0.232658,1.51228 0.07749,0.07758 0.193848,0.232699 0.348988,0.465316 0.310179,0.465357 0.465283,1.047001 0.465316,1.744936 -0.07758,1.085776 -0.232693,1.822529 -0.465316,2.210255 -0.15514,0.387799 -0.349021,0.659233 -0.58165,0.814305 -0.232685,0.155139 -0.465345,0.310244 -0.697974,0.465315 -0.155134,0.07758 -0.271464,0.349021 -0.348984,0.814304 -0.232691,1.163353 -0.504124,2.055155 -0.814305,2.675585 -0.232689,0.54288 -0.504123,1.00818 -0.814305,1.39594 -0.232683,0.31024 -0.465343,0.62044 -0.697975,0.93061 -0.155131,0.31023 -0.232682,0.77554 -0.232655,1.396 -2.7e-5,2.09395 0.542838,3.72256 1.628605,4.88575 1.085706,1.16333 3.063303,2.32664 5.932787,3.48992"
           id="path3063-4-9"
           inkscape:connector-curvature="0" />
      </g>
      <g
         id="text3895-1"
         style="font-size:24px;font-style:normal;font-variant:normal;font-weight:bold;font-stretch:normal;line-height:125%;letter-spacing:0px;word-spacing:0px;fill:#ffffff;fill-opacity:1;stroke:none;font-family:Open Sans;-inkscape-font-specification:Open Sans Bold"
         transform="matrix(0.96408032,0,0,0.96408032,-22.363191,1086.9239)">
        <path
           inkscape:connector-curvature="0"
           id="path3900-9"
           style="fill:#ffffff;fill-opacity:1;stroke:none"
           d="m 43.683594,3.3945313 c -1.367196,1.43e-5 -2.425789,0.5156388 -3.175782,1.5468749 -0.750005,1.0234493 -1.125005,2.4531354 -1.125,4.2890626 -5e-6,3.8203172 1.433588,5.7304712 4.300782,5.7304692 1.203114,2e-6 2.660144,-0.300779 4.371093,-0.902344 l 0,3.046875 c -1.406262,0.585937 -2.976573,0.878906 -4.710937,0.878906 -2.492194,0 -4.398442,-0.753906 -5.71875,-2.261719 -1.320315,-1.515621 -1.98047,-3.687494 -1.980469,-6.5156247 -10e-7,-1.7812397 0.324217,-3.3398319 0.972656,-4.6757813 0.648435,-1.3437354 1.578122,-2.3710782 2.789063,-3.0820313 1.218744,-0.71873293 2.644523,-1.07810757 4.277344,-1.07812495 1.664051,1.738e-5 3.335924,0.40236073 5.015625,1.20703125 L 47.527344,4.53125 C 46.886706,4.226576 46.242176,3.9609513 45.59375,3.734375 44.945302,3.5078267 44.308584,3.3945456 43.683594,3.3945313" />
        <path
           inkscape:connector-curvature="0"
           id="path3902-4"
           style="fill:#ffffff;fill-opacity:1;stroke:none"
           d="m 58.496094,3.3945313 c -1.367196,1.43e-5 -2.425789,0.5156388 -3.175782,1.5468749 -0.750005,1.0234493 -1.125005,2.4531354 -1.125,4.2890626 -5e-6,3.8203172 1.433588,5.7304712 4.300782,5.7304692 1.203114,2e-6 2.660144,-0.300779 4.371093,-0.902344 l 0,3.046875 c -1.406262,0.585937 -2.976573,0.878906 -4.710937,0.878906 -2.492194,0 -4.398442,-0.753906 -5.71875,-2.261719 -1.320315,-1.515621 -1.98047,-3.687494 -1.980469,-6.5156247 -10e-7,-1.7812397 0.324217,-3.3398319 0.972656,-4.6757813 0.648435,-1.3437354 1.578122,-2.3710782 2.789063,-3.0820313 1.218744,-0.71873293 2.644523,-1.07810757 4.277344,-1.07812495 1.664051,1.738e-5 3.335924,0.40236073 5.015625,1.20703125 L 62.339844,4.53125 C 61.699206,4.226576 61.054676,3.9609513 60.40625,3.734375 59.757802,3.5078267 59.121084,3.3945456 58.496094,3.3945313" />
        <path
           inkscape:connector-curvature="0"
           id="path3904-2"
           style="fill:#ffffff;fill-opacity:1;stroke:none"
           d="m 70.132812,8.2226563 1.171875,0 c 1.14843,9.5e-6 1.996085,-0.1913966 2.542969,-0.5742188 C 74.394521,7.2656355 74.667958,6.6640736 74.667969,5.84375 74.667958,5.0312627 74.386709,4.4531383 73.824219,4.109375 73.269522,3.765639 72.406242,3.5937642 71.234375,3.59375 l -1.101563,0 0,4.6289063 m 0,2.9531247 0,6.574219 -3.632812,0 0,-17.1328125 4.992187,0 c 2.328116,1.713e-5 4.050771,0.425798 5.167969,1.2773437 1.117174,0.8437651 1.675768,2.12892 1.675781,3.8554688 -1.3e-5,1.0078235 -0.277357,1.9062601 -0.832031,2.6953125 -0.5547,0.7812585 -1.339855,1.3945392 -2.355469,1.8398435 2.578112,3.851566 4.257798,6.339845 5.039063,7.464844 l -4.03125,0 -4.089844,-6.574219 -1.933594,0" />
      </g>
    </g>
  </g>
</svg>
