<?xml version="1.0" encoding="UTF-8" standalone="no"?>
<svg
   xmlns:dc="http://purl.org/dc/elements/1.1/"
   xmlns:cc="http://creativecommons.org/ns#"
   xmlns:rdf="http://www.w3.org/1999/02/22-rdf-syntax-ns#"
   xmlns:svg="http://www.w3.org/2000/svg"
   xmlns="http://www.w3.org/2000/svg"
   xmlns:xlink="http://www.w3.org/1999/xlink"
   xmlns:sodipodi="http://sodipodi.sourceforge.net/DTD/sodipodi-0.dtd"
   xmlns:inkscape="http://www.inkscape.org/namespaces/inkscape"
   width="128pt"
   height="128pt"
   viewBox="0 0 128 128"
   id="svg2"
   version="1.1"
   inkscape:version="0.48.4 r9939"
   sodipodi:docname="basket.svg">
  <metadata
     id="metadata36">
    <rdf:RDF>
      <cc:Work
         rdf:about="">
        <dc:format>image/svg+xml</dc:format>
        <dc:type
           rdf:resource="http://purl.org/dc/dcmitype/StillImage" />
        <dc:title></dc:title>
      </cc:Work>
    </rdf:RDF>
  </metadata>
  <sodipodi:namedview
     pagecolor="#000000"
     bordercolor="#666666"
     borderopacity="1"
     objecttolerance="10"
     gridtolerance="10"
     guidetolerance="10"
     inkscape:pageopacity="0.46666667"
     inkscape:pageshadow="2"
     inkscape:window-width="1366"
     inkscape:window-height="713"
     id="namedview34"
     showgrid="true"
     inkscape:zoom="1.475"
     inkscape:cx="-56.753297"
     inkscape:cy="87.907024"
     inkscape:window-x="0"
     inkscape:window-y="-3"
     inkscape:window-maximized="1"
     inkscape:current-layer="svg2"
     showguides="true"
     inkscape:guide-bbox="true">
    <inkscape:grid
       type="xygrid"
       id="grid2996"
       empspacing="5"
       visible="true"
       enabled="true"
       snapvisiblegridlinesonly="true" />
    <sodipodi:guide
       orientation="1,0"
       position="80,140"
       id="guide3770" />
    <sodipodi:guide
       orientation="0,1"
       position="115,160"
       id="guide3815" />
  </sodipodi:namedview>
  <defs
     id="defs4">
    <linearGradient
       id="linearGradient3849">
      <stop
         id="stop3851"
         offset="0"
         style="stop-color:#1d96ba;stop-opacity:1;" />
      <stop
         style="stop-color:#8cbc3f;stop-opacity:1;"
         offset="0.33333334"
         id="stop3853" />
      <stop
         style="stop-color:#f3c026;stop-opacity:1;"
         offset="0.66666669"
         id="stop3855" />
      <stop
         style="stop-color:#ec6224;stop-opacity:1;"
         offset="1"
         id="stop3857" />
    </linearGradient>
    <linearGradient
       id="linearGradient3790">
      <stop
         style="stop-color:#227808;stop-opacity:1;"
         offset="0"
         id="stop3792" />
      <stop
         style="stop-color:#006e29;stop-opacity:1;"
         offset="1"
         id="stop3794" />
    </linearGradient>
    <radialGradient
       cx="9.0864"
       gradientUnits="userSpaceOnUse"
       cy="44.9507"
       r="36.658"
       id="Grad0">
      <stop
         offset="0%"
         stop-color="#fdfdfc"
         stop-opacity="1"
         id="stop7" />
      <stop
         offset="32.78%"
         stop-color="#fdfdfc"
         stop-opacity="1"
         id="stop9" />
      <stop
         offset="67.7359%"
         stop-color="#f4f5f4"
         stop-opacity="1"
         id="stop11" />
      <stop
         offset="100%"
         stop-color="#cbcfd0"
         stop-opacity="1"
         id="stop13" />
    </radialGradient>
    <linearGradient
       inkscape:collect="always"
       xlink:href="#linearGradient4305"
       id="linearGradient4004"
       x1="2120"
       y1="39.999992"
       x2="2640"
       y2="560"
       gradientUnits="userSpaceOnUse" />
    <linearGradient
       id="linearGradient4305">
      <stop
         style="stop-color:#1d96ba;stop-opacity:1;"
         offset="0"
         id="stop4307" />
      <stop
         id="stop4309"
         offset="0.23076917"
         style="stop-color:#8cbc3f;stop-opacity:1;" />
      <stop
         id="stop4311"
         offset="0.37499991"
         style="stop-color:#f3c026;stop-opacity:1;" />
      <stop
         id="stop4313"
         offset="0.61538458"
         style="stop-color:#ec6224;stop-opacity:1;" />
      <stop
         id="stop4315"
         offset="0.76923078"
         style="stop-color:#c21b7d;stop-opacity:1;" />
      <stop
         style="stop-color:#424f99;stop-opacity:1;"
         offset="1"
         id="stop4317" />
    </linearGradient>
    <linearGradient
       inkscape:collect="always"
       xlink:href="#linearGradient3764"
       id="linearGradient3770"
       x1="-238.59148"
       y1="-57.283463"
       x2="-95.153793"
       y2="86.154213"
       gradientUnits="userSpaceOnUse" />
    <linearGradient
       id="linearGradient3764">
      <stop
         style="stop-color:#94d006;stop-opacity:1;"
         offset="0"
         id="stop3766" />
      <stop
         style="stop-color:#227808;stop-opacity:1;"
         offset="1"
         id="stop3768" />
    </linearGradient>
    <linearGradient
       inkscape:collect="always"
       xlink:href="#linearGradient3764"
       id="linearGradient3014"
       x1="-238.59148"
       y1="-57.283463"
       x2="-95.153793"
       y2="86.154213"
       gradientUnits="userSpaceOnUse" />
    <linearGradient
       id="linearGradient3016">
      <stop
         style="stop-color:#94d006;stop-opacity:1;"
         offset="0"
         id="stop3018" />
      <stop
         style="stop-color:#227808;stop-opacity:1;"
         offset="1"
         id="stop3020" />
    </linearGradient>
    <linearGradient
       inkscape:collect="always"
       xlink:href="#linearGradient3772"
       id="linearGradient3816"
       x1="2083.4731"
       y1="0.99866295"
       x2="2682.4365"
       y2="599.9621"
       gradientUnits="userSpaceOnUse" />
    <linearGradient
       inkscape:collect="always"
       xlink:href="#linearGradient3772"
       id="linearGradient3778"
       x1="0"
       y1="0"
       x2="128"
       y2="128"
       gradientUnits="userSpaceOnUse" />
    <linearGradient
       id="linearGradient3772">
      <stop
         style="stop-color:#00b2ff;stop-opacity:1;"
         offset="0"
         id="stop3774" />
      <stop
         style="stop-color:#1756b6;stop-opacity:1;"
         offset="1"
         id="stop3776" />
    </linearGradient>
    <linearGradient
       inkscape:collect="always"
       xlink:href="#linearGradient3772"
       id="linearGradient3016-3"
       x1="0"
       y1="0"
       x2="128"
       y2="128"
       gradientUnits="userSpaceOnUse" />
    <linearGradient
       id="linearGradient3018">
      <stop
         style="stop-color:#00b2ff;stop-opacity:1;"
         offset="0"
         id="stop3020-8" />
      <stop
         style="stop-color:#1756b6;stop-opacity:1;"
         offset="1"
         id="stop3022" />
    </linearGradient>
    <linearGradient
       inkscape:collect="always"
       xlink:href="#linearGradient3772"
       id="linearGradient3024"
       x1="0"
       y1="0"
       x2="128"
       y2="128"
       gradientUnits="userSpaceOnUse" />
    <linearGradient
       id="linearGradient3026">
      <stop
         style="stop-color:#00b2ff;stop-opacity:1;"
         offset="0"
         id="stop3028" />
      <stop
         style="stop-color:#1756b6;stop-opacity:1;"
         offset="1"
         id="stop3030" />
    </linearGradient>
    <linearGradient
       inkscape:collect="always"
       xlink:href="#linearGradient3772"
       id="linearGradient3032"
       x1="0"
       y1="0"
       x2="128"
       y2="128"
       gradientUnits="userSpaceOnUse" />
    <linearGradient
       id="linearGradient3034">
      <stop
         style="stop-color:#00b2ff;stop-opacity:1;"
         offset="0"
         id="stop3036" />
      <stop
         style="stop-color:#1756b6;stop-opacity:1;"
         offset="1"
         id="stop3038" />
    </linearGradient>
    <linearGradient
       inkscape:collect="always"
       xlink:href="#linearGradient3772"
       id="linearGradient3040"
       x1="0"
       y1="0"
       x2="128"
       y2="128"
       gradientUnits="userSpaceOnUse" />
    <linearGradient
       id="linearGradient3042">
      <stop
         style="stop-color:#00b2ff;stop-opacity:1;"
         offset="0"
         id="stop3044" />
      <stop
         style="stop-color:#1756b6;stop-opacity:1;"
         offset="1"
         id="stop3046" />
    </linearGradient>
  </defs>
  <defs
     id="defs19">
    <radialGradient
       cx="49"
       gradientUnits="userSpaceOnUse"
       cy="27.681"
       r="43.1611"
       id="Grad1">
      <stop
         offset="0%"
         stop-color="#fdfdfc"
         stop-opacity="1"
         id="stop22" />
      <stop
         offset="32.78%"
         stop-color="#fdfdfc"
         stop-opacity="1"
         id="stop24" />
      <stop
         offset="67.7359%"
         stop-color="#f4f5f4"
         stop-opacity="1"
         id="stop26" />
      <stop
         offset="100%"
         stop-color="#cbcfd0"
         stop-opacity="1"
         id="stop28" />
    </radialGradient>
  </defs>
  <path
     sodipodi:type="arc"
     style="fill:url(#linearGradient3816);fill-opacity:1.0;stroke:none"
     id="path3227"
     sodipodi:cx="2380"
     sodipodi:cy="300"
     sodipodi:rx="260"
     sodipodi:ry="260"
     d="m 2640,300 a 260,260 0 1 1 -520,0 260,260 0 1 1 520,0 z"
     transform="matrix(0.21370253,0,0,0.21370253,-445.24347,-0.2134168)" />
  <g
     transform="matrix(0.70007349,0,0,0.70007349,13.203246,19.811529)"
     id="g2998"
     style="fill:#f2f2f2;fill-opacity:1">
    <g
       id="g15"
       style="fill:#f2f2f2;fill-opacity:1;fill-rule:nonzero;stroke:none"
       transform="translate(59.2336,11.2066)">
      <path
         inkscape:connector-curvature="0"
         style="fill:#f2f2f2;fill-opacity:1;stroke:none"
         id="path17"
         d="M 17.2162,0 C 17.2162,0 0,1.65541 0,1.65541 c 0,0 0,70.92489 0,70.92489 0,0 17.0323,-2.575 17.0323,-2.575 0,0 0,-30.2388 0,-30.2388 0,0 22.9183,33.5495 22.9183,33.5495 0,0 17.9518,-5.7019 17.9518,-5.7019 0,0 -23.47,-32.2621 -23.47,-32.2621 0,0 23.654,-30.42257 23.654,-30.42257 0,0 -18.3198,-4.193694 -18.3198,-4.193694 0,0 -22.7343,30.422764 -22.7343,30.422764 0,0 0.1839,-31.1585 0.1839,-31.1585 0,0 0,0 0,0 z" />
    </g>
    <g
       id="g30"
       style="fill:#f2f2f2;fill-opacity:1;fill-rule:nonzero;stroke:none"
       transform="translate(19.32,28.4763)">
      <path
         inkscape:connector-curvature="0"
         style="fill:#f2f2f2;fill-opacity:1;stroke:none"
         id="path32"
         d="m 18.0991,0.0201 c -0.1947,0.0201 -0.4053,0.0738 -0.5517,0.2207 0,0 -6.7689,6.7688 -6.7689,6.7688 -0.2843,0.2851 -0.319,0.7216 -0.1103,1.0667 0,0 7.9092,13.0594 7.9092,13.0594 -1.4044,2.3608 -2.5448,4.8933 -3.3477,7.5781 0,0 -14.530751,3.0165 -14.530751,3.0165 C 0.29459,31.8139 0,32.1988 0,32.6132 c 0,0 0,9.5645 0,9.5645 0,0.4044 0.307536,0.7507 0.698949,0.8461 0,0 14.089351,3.4212 14.089351,3.4212 0.7534,3.1084 1.9174,6.0828 3.4579,8.792 0,0 -8.1666,12.4339 -8.1666,12.4339 -0.2278,0.3473 -0.18337,0.8106 0.1103,1.1038 0,0 6.7689,6.7687 6.7689,6.7687 0.2851,0.2842 0.7224,0.3199 1.0667,0.1103 0,0 12.8018,-7.7619 12.8018,-7.7619 2.5109,1.4495 5.2294,2.6109 8.0931,3.3844 0,0 2.9798,14.3471 2.9798,14.3471 0.0835,0.405 0.432,0.699 0.846,0.699 0,0 9.5646,0 9.5646,0 0.4014,0 0.7508,-0.27 0.846,-0.663 0,0 3.5316,-14.42 3.5316,-14.42 2.9535,-0.7964 5.7382,-1.9786 8.3139,-3.4947 0,0 12.6178,8.277 12.6178,8.277 0.3479,0.2266 0.8087,0.1828 1.1036,-0.1103 0,0 6.7321,-6.7689 6.7321,-6.7689 0.2859,-0.2853 0.3565,-0.7224 0.1471,-1.0668 0,0 -4.5984,-7.578 -4.5984,-7.578 0,0 -1.5083,0.4783 -1.5083,0.4783 -0.2178,0.0671 -0.4591,-0.0314 -0.5886,-0.2209 0,0 -2.9047,-4.2728 -6.6952,-9.822 -4.5332,8.8706 -13.7783,14.9354 -24.4264,14.9354 -15.1308,0 -27.4061,-12.2753 -27.4061,-27.4061 0,-11.1298 6.6555,-20.6892 16.1862,-24.9782 0,0 0,-7.0631 0,-7.0631 -1.7346,0.6071 -3.4103,1.3396 -5.003,2.2072 -0.003,-0.0018 0.0029,-0.0351 0,-0.0367 0,0 -12.9121,-8.4611 -12.9121,-8.4611 C 18.4773,0.0169 18.2938,0 18.0991,0.0201 c 0,0 0,0 0,0 z" />
    </g>
  </g>
</svg>
