<?xml version="1.0" encoding="UTF-8" standalone="no"?>
<svg
   xmlns:dc="http://purl.org/dc/elements/1.1/"
   xmlns:cc="http://creativecommons.org/ns#"
   xmlns:rdf="http://www.w3.org/1999/02/22-rdf-syntax-ns#"
   xmlns:svg="http://www.w3.org/2000/svg"
   xmlns="http://www.w3.org/2000/svg"
   xmlns:xlink="http://www.w3.org/1999/xlink"
   xmlns:sodipodi="http://sodipodi.sourceforge.net/DTD/sodipodi-0.dtd"
   xmlns:inkscape="http://www.inkscape.org/namespaces/inkscape"
   width="128pt"
   height="128pt"
   viewBox="0 0 128 128"
   id="svg2"
   version="1.1"
   inkscape:version="0.48.4 r9939"
   sodipodi:docname="mouse.svg">
  <metadata
     id="metadata36">
    <rdf:RDF>
      <cc:Work
         rdf:about="">
        <dc:format>image/svg+xml</dc:format>
        <dc:type
           rdf:resource="http://purl.org/dc/dcmitype/StillImage" />
        <dc:title />
      </cc:Work>
    </rdf:RDF>
  </metadata>
  <sodipodi:namedview
     pagecolor="#000000"
     bordercolor="#666666"
     borderopacity="1"
     objecttolerance="10"
     gridtolerance="10"
     guidetolerance="10"
     inkscape:pageopacity="0.46666667"
     inkscape:pageshadow="2"
     inkscape:window-width="1366"
     inkscape:window-height="713"
     id="namedview34"
     showgrid="true"
     inkscape:zoom="2.085965"
     inkscape:cx="53.314037"
     inkscape:cy="47.670244"
     inkscape:window-x="0"
     inkscape:window-y="-3"
     inkscape:window-maximized="1"
     inkscape:current-layer="svg2"
     showguides="true"
     inkscape:guide-bbox="true">
    <inkscape:grid
       type="xygrid"
       id="grid2996"
       empspacing="5"
       visible="true"
       enabled="true"
       snapvisiblegridlinesonly="true" />
    <sodipodi:guide
       orientation="1,0"
       position="80,140"
       id="guide3770" />
    <sodipodi:guide
       orientation="0,1"
       position="115,160"
       id="guide3815" />
  </sodipodi:namedview>
  <defs
     id="defs4">
    <linearGradient
       id="linearGradient3849">
      <stop
         id="stop3851"
         offset="0"
         style="stop-color:#1d96ba;stop-opacity:1;" />
      <stop
         style="stop-color:#8cbc3f;stop-opacity:1;"
         offset="0.33333334"
         id="stop3853" />
      <stop
         style="stop-color:#f3c026;stop-opacity:1;"
         offset="0.66666669"
         id="stop3855" />
      <stop
         style="stop-color:#ec6224;stop-opacity:1;"
         offset="1"
         id="stop3857" />
    </linearGradient>
    <linearGradient
       id="linearGradient3790">
      <stop
         style="stop-color:#227808;stop-opacity:1;"
         offset="0"
         id="stop3792" />
      <stop
         style="stop-color:#006e29;stop-opacity:1;"
         offset="1"
         id="stop3794" />
    </linearGradient>
    <radialGradient
       cx="9.0864"
       gradientUnits="userSpaceOnUse"
       cy="44.9507"
       r="36.658"
       id="Grad0">
      <stop
         offset="0%"
         stop-color="#fdfdfc"
         stop-opacity="1"
         id="stop7" />
      <stop
         offset="32.78%"
         stop-color="#fdfdfc"
         stop-opacity="1"
         id="stop9" />
      <stop
         offset="67.7359%"
         stop-color="#f4f5f4"
         stop-opacity="1"
         id="stop11" />
      <stop
         offset="100%"
         stop-color="#cbcfd0"
         stop-opacity="1"
         id="stop13" />
    </radialGradient>
    <linearGradient
       inkscape:collect="always"
       xlink:href="#linearGradient4305"
       id="linearGradient4004"
       x1="2120"
       y1="39.999992"
       x2="2640"
       y2="560"
       gradientUnits="userSpaceOnUse" />
    <linearGradient
       id="linearGradient4305">
      <stop
         style="stop-color:#1d96ba;stop-opacity:1;"
         offset="0"
         id="stop4307" />
      <stop
         id="stop4309"
         offset="0.23076917"
         style="stop-color:#8cbc3f;stop-opacity:1;" />
      <stop
         id="stop4311"
         offset="0.37499991"
         style="stop-color:#f3c026;stop-opacity:1;" />
      <stop
         id="stop4313"
         offset="0.61538458"
         style="stop-color:#ec6224;stop-opacity:1;" />
      <stop
         id="stop4315"
         offset="0.76923078"
         style="stop-color:#c21b7d;stop-opacity:1;" />
      <stop
         style="stop-color:#424f99;stop-opacity:1;"
         offset="1"
         id="stop4317" />
    </linearGradient>
    <linearGradient
       inkscape:collect="always"
       xlink:href="#linearGradient3764"
       id="linearGradient3770"
       x1="-238.59148"
       y1="-57.283463"
       x2="-95.153793"
       y2="86.154213"
       gradientUnits="userSpaceOnUse" />
    <linearGradient
       id="linearGradient3764">
      <stop
         style="stop-color:#94d006;stop-opacity:1;"
         offset="0"
         id="stop3766" />
      <stop
         style="stop-color:#227808;stop-opacity:1;"
         offset="1"
         id="stop3768" />
    </linearGradient>
    <linearGradient
       inkscape:collect="always"
       xlink:href="#linearGradient3764"
       id="linearGradient3014"
       x1="-238.59148"
       y1="-57.283463"
       x2="-95.153793"
       y2="86.154213"
       gradientUnits="userSpaceOnUse" />
    <linearGradient
       id="linearGradient3016">
      <stop
         style="stop-color:#94d006;stop-opacity:1;"
         offset="0"
         id="stop3018" />
      <stop
         style="stop-color:#227808;stop-opacity:1;"
         offset="1"
         id="stop3020" />
    </linearGradient>
    <linearGradient
       inkscape:collect="always"
       xlink:href="#linearGradient3790-4"
       id="linearGradient3816"
       x1="2083.4731"
       y1="0.99866295"
       x2="2682.4365"
       y2="599.9621"
       gradientUnits="userSpaceOnUse" />
    <linearGradient
       inkscape:collect="always"
       xlink:href="#linearGradient3790-4"
       id="linearGradient3796"
       x1="0"
       y1="0"
       x2="128"
       y2="128"
       gradientUnits="userSpaceOnUse" />
    <linearGradient
       id="linearGradient3790-4">
      <stop
         style="stop-color:#f07241;stop-opacity:1;"
         offset="0"
         id="stop3792-6" />
      <stop
         style="stop-color:#c04848;stop-opacity:1;"
         offset="1"
         id="stop3794-2" />
    </linearGradient>
    <linearGradient
       inkscape:collect="always"
       xlink:href="#linearGradient4690"
       id="linearGradient4696"
       x1="550"
       y1="812.3562"
       x2="490"
       y2="722.3562"
       gradientUnits="userSpaceOnUse" />
    <linearGradient
       id="linearGradient4690">
      <stop
         style="stop-color:#c04848;stop-opacity:1;"
         offset="0"
         id="stop4692" />
      <stop
         style="stop-color:#f07241;stop-opacity:1;"
         offset="1"
         id="stop4694" />
    </linearGradient>
    <linearGradient
       inkscape:collect="always"
       xlink:href="#linearGradient3794"
       id="linearGradient3817"
       x1="0"
       y1="0"
       x2="128"
       y2="128"
       gradientUnits="userSpaceOnUse" />
    <linearGradient
       id="linearGradient3794">
      <stop
         style="stop-color:#ffffff;stop-opacity:1;"
         offset="0"
         id="stop3796" />
      <stop
         style="stop-color:#dee1e2;stop-opacity:1;"
         offset="1"
         id="stop3798" />
    </linearGradient>
    <linearGradient
       inkscape:collect="always"
       xlink:href="#linearGradient3794"
       id="linearGradient3036"
       x1="0"
       y1="0"
       x2="128"
       y2="128"
       gradientUnits="userSpaceOnUse" />
    <linearGradient
       id="linearGradient3038">
      <stop
         style="stop-color:#ffffff;stop-opacity:1;"
         offset="0"
         id="stop3040" />
      <stop
         style="stop-color:#dee1e2;stop-opacity:1;"
         offset="1"
         id="stop3042" />
    </linearGradient>
    <linearGradient
       inkscape:collect="always"
       xlink:href="#linearGradient3794"
       id="linearGradient3044"
       x1="0"
       y1="0"
       x2="128"
       y2="128"
       gradientUnits="userSpaceOnUse" />
    <linearGradient
       id="linearGradient3046">
      <stop
         style="stop-color:#ffffff;stop-opacity:1;"
         offset="0"
         id="stop3048" />
      <stop
         style="stop-color:#dee1e2;stop-opacity:1;"
         offset="1"
         id="stop3050" />
    </linearGradient>
    <linearGradient
       inkscape:collect="always"
       xlink:href="#linearGradient3794"
       id="linearGradient3052"
       x1="0"
       y1="0"
       x2="128"
       y2="128"
       gradientUnits="userSpaceOnUse" />
    <linearGradient
       id="linearGradient3054">
      <stop
         style="stop-color:#ffffff;stop-opacity:1;"
         offset="0"
         id="stop3056" />
      <stop
         style="stop-color:#dee1e2;stop-opacity:1;"
         offset="1"
         id="stop3058" />
    </linearGradient>
    <linearGradient
       y2="128"
       x2="128"
       y1="0"
       x1="0"
       gradientUnits="userSpaceOnUse"
       id="linearGradient3065"
       xlink:href="#linearGradient3794"
       inkscape:collect="always" />
    <linearGradient
       y2="128"
       x2="128"
       y1="0"
       x1="0"
       gradientUnits="userSpaceOnUse"
       id="linearGradient3067"
       xlink:href="#linearGradient3794"
       inkscape:collect="always" />
    <linearGradient
       y2="128"
       x2="128"
       y1="0"
       x1="0"
       gradientUnits="userSpaceOnUse"
       id="linearGradient3069"
       xlink:href="#linearGradient3794"
       inkscape:collect="always" />
    <linearGradient
       inkscape:collect="always"
       xlink:href="#linearGradient3794"
       id="linearGradient3080"
       gradientUnits="userSpaceOnUse"
       x1="0"
       y1="0"
       x2="128"
       y2="128" />
    <linearGradient
       inkscape:collect="always"
       xlink:href="#linearGradient3794"
       id="linearGradient3082"
       gradientUnits="userSpaceOnUse"
       x1="0"
       y1="0"
       x2="128"
       y2="128" />
    <linearGradient
       inkscape:collect="always"
       xlink:href="#linearGradient3794"
       id="linearGradient3084"
       gradientUnits="userSpaceOnUse"
       x1="0"
       y1="0"
       x2="128"
       y2="128" />
    <linearGradient
       inkscape:collect="always"
       xlink:href="#linearGradient3794"
       id="linearGradient3086"
       gradientUnits="userSpaceOnUse"
       x1="0"
       y1="0"
       x2="128"
       y2="128" />
  </defs>
  <defs
     id="defs19">
    <radialGradient
       cx="49"
       gradientUnits="userSpaceOnUse"
       cy="27.681"
       r="43.1611"
       id="Grad1">
      <stop
         offset="0%"
         stop-color="#fdfdfc"
         stop-opacity="1"
         id="stop22" />
      <stop
         offset="32.78%"
         stop-color="#fdfdfc"
         stop-opacity="1"
         id="stop24" />
      <stop
         offset="67.7359%"
         stop-color="#f4f5f4"
         stop-opacity="1"
         id="stop26" />
      <stop
         offset="100%"
         stop-color="#cbcfd0"
         stop-opacity="1"
         id="stop28" />
    </radialGradient>
  </defs>
  <path
     sodipodi:type="arc"
     style="fill:url(#linearGradient3816);fill-opacity:1.0;stroke:none"
     id="path3227"
     sodipodi:cx="2380"
     sodipodi:cy="300"
     sodipodi:rx="260"
     sodipodi:ry="260"
     d="m 2640,300 a 260,260 0 1 1 -520,0 260,260 0 1 1 520,0 z"
     transform="matrix(0.21370253,0,0,0.21370253,-445.24347,-0.2134168)" />
  <g
     id="g3063"
     transform="translate(-0.56152158,0.06371223)">
    <path
       style="fill:#3d4047;fill-opacity:1;fill-rule:nonzero;stroke:none"
       d="m 56.391237,23.686793 c 4.063534,0 7.502019,0 15.003744,0 7.501823,0 18.754616,7.501756 18.754616,18.754418 0,11.252656 1.727477,50.613158 -10.699622,56.873918 -12.427284,6.260641 -20.0131,6.260641 -31.256394,-0.237235 C 36.950597,92.580132 37.636925,50.358799 37.636925,42.440306 c 0,-11.252642 11.2528,-18.754415 18.754312,-18.754415 z"
       id="rect3801"
       inkscape:connector-curvature="0"
       sodipodi:nodetypes="czzzzcc" />
    <g
       style="fill:url(#linearGradient3086);fill-opacity:1"
       id="g3806"
       transform="matrix(0.72912382,0,0,0.72912382,17.121412,11.161426)">
      <path
         sodipodi:nodetypes="cczzc"
         inkscape:connector-curvature="0"
         id="rect2987"
         d="m 33.281849,60.974228 61.30384,-5.02e-4 c 0,0 0.755675,46.260924 -11.146172,54.461404 -11.902119,8.20003 -27.642809,8.48543 -39.011657,0 C 33.059013,106.94948 33.281849,60.974228 33.281849,60.974228 z"
         style="fill:url(#linearGradient3080);fill-opacity:1;fill-rule:nonzero;stroke:none" />
      <path
         sodipodi:nodetypes="zzcccz"
         inkscape:connector-curvature="0"
         id="rect2987-7"
         d="m 33.281849,42.900512 c 0,-10.892163 9.431469,-20.577488 20.577078,-20.577488 11.146303,0 7.288387,0.52892 7.288387,0.52892 l 0,32.676026 -27.865465,0 c 0,0 0,-1.735706 0,-12.627348 z"
         style="fill:url(#linearGradient3082);fill-opacity:1;fill-rule:nonzero;stroke:none" />
      <path
         sodipodi:nodetypes="czsccc"
         inkscape:connector-curvature="0"
         id="rect2987-7-8"
         d="m 66.720466,22.851877 c 0,0 -3.429779,-0.528908 7.716233,-0.528908 11.146168,0 20.576989,9.685321 20.576989,20.577481 0,10.891665 0.08925,12.627354 0.08925,12.627354 l -28.380732,5.34e-4 z"
         style="fill:url(#linearGradient3084);fill-opacity:1;fill-rule:nonzero;stroke:none" />
    </g>
    <g
       id="text4389"
       style="font-size:16px;font-style:normal;font-variant:normal;font-weight:normal;font-stretch:normal;text-align:start;line-height:125%;letter-spacing:0px;word-spacing:0px;writing-mode:lr-tb;text-anchor:start;fill:#3d4047;fill-opacity:1;stroke:none;font-family:Open Sans;-inkscape-font-specification:Open Sans"
       transform="matrix(0.23749383,0,0,0.23749383,63.8261,51.042344)">
      <path
         inkscape:connector-curvature="0"
         id="path4400"
         style="font-size:16px;font-style:normal;font-variant:normal;font-weight:800;font-stretch:normal;text-align:start;line-height:125%;writing-mode:lr-tb;text-anchor:start;fill:#3d4047;fill-opacity:1;font-family:Open Sans;-inkscape-font-specification:Open Sans Ultra-Bold"
         d="m -23.671345,172.54237 0,-4.8125 c -1.2e-5,-0.59895 -0.08335,-1.04687 -0.25,-1.34375 -0.16147,-0.30207 -0.419282,-0.45311 -0.773437,-0.45312 -0.468761,1e-5 -0.81251,0.20053 -1.03125,0.60156 -0.21876,0.40105 -0.328135,1.02865 -0.328125,1.88281 l 0,4.125 -3.0625,0 0,-4.8125 c -7e-6,-0.59895 -0.07813,-1.04687 -0.234375,-1.34375 -0.156256,-0.30207 -0.40886,-0.45311 -0.757813,-0.45312 -0.479171,1e-5 -0.828129,0.21355 -1.046875,0.64062 -0.218754,0.42709 -0.328129,1.12501 -0.328125,2.09375 l 0,3.875 -3.054687,0 0,-8.85156 2.304687,0 0.382813,1.09375 0.179687,0 c 0.234371,-0.40624 0.572912,-0.71614 1.015625,-0.92969 0.447912,-0.21353 0.955724,-0.3203 1.523438,-0.32031 1.276034,1e-5 2.171866,0.38803 2.6875,1.16406 l 0.242187,0 c 0.249991,-0.36457 0.596344,-0.64843 1.039063,-0.85156 0.447906,-0.20832 0.940093,-0.31249 1.476562,-0.3125 1.046862,1e-5 1.820299,0.26824 2.320313,0.80469 0.499985,0.53646 0.749985,1.35157 0.75,2.44531 l 0,5.75781 -3.054688,0" />
      <path
         inkscape:connector-curvature="0"
         id="path4402"
         style="font-size:16px;font-style:normal;font-variant:normal;font-weight:800;font-stretch:normal;text-align:start;line-height:125%;writing-mode:lr-tb;text-anchor:start;fill:#3d4047;fill-opacity:1;font-family:Open Sans;-inkscape-font-specification:Open Sans Ultra-Bold"
         d="m -10.085407,168.09706 c -10e-6,1.44792 -0.390634,2.57813 -1.171875,3.39063 -0.776049,0.80729 -1.86459,1.21093 -3.265625,1.21093 -1.343754,0 -2.414065,-0.41406 -3.210938,-1.24218 -0.791667,-0.82813 -1.1875,-1.94792 -1.1875,-3.35938 0,-1.4427 0.38802,-2.56249 1.164063,-3.35937 0.781247,-0.80208 1.874996,-1.20312 3.28125,-1.20313 0.869785,1e-5 1.638014,0.18491 2.304687,0.55469 0.666659,0.3698 1.179679,0.90105 1.539063,1.59375 0.364574,0.6875 0.546865,1.49219 0.546875,2.41406 m -5.734375,0 c -4e-6,0.76042 0.101558,1.34115 0.304687,1.74219 0.203121,0.39583 0.544266,0.59375 1.023438,0.59375 0.473953,0 0.807286,-0.19792 1,-0.59375 0.19791,-0.40104 0.296868,-0.98177 0.296875,-1.74219 -7e-6,-0.7552 -0.09896,-1.32551 -0.296875,-1.71094 -0.197923,-0.38541 -0.536464,-0.57811 -1.015625,-0.57812 -0.468755,1e-5 -0.804692,0.19271 -1.007813,0.57812 -0.203129,0.38022 -0.304691,0.95053 -0.304687,1.71094" />
      <path
         inkscape:connector-curvature="0"
         id="path4404"
         style="font-size:16px;font-style:normal;font-variant:normal;font-weight:800;font-stretch:normal;text-align:start;line-height:125%;writing-mode:lr-tb;text-anchor:start;fill:#3d4047;fill-opacity:1;font-family:Open Sans;-inkscape-font-specification:Open Sans Ultra-Bold"
         d="m -2.0463448,172.54237 -0.3828125,-1.10156 -0.1796875,0 c -0.2552148,0.40625 -0.6119853,0.71875 -1.0703125,0.9375 -0.4531302,0.21354 -0.9869839,0.32031 -1.6015625,0.32031 -0.9739614,0 -1.7317732,-0.28125 -2.2734375,-0.84375 -0.5416679,-0.5677 -0.812501,-1.36718 -0.8125,-2.39843 l 0,-5.76563 3.0546875,0 0,4.83594 c -4.1e-6,0.57813 0.080725,1.01563 0.2421875,1.3125 0.1666622,0.29688 0.4374953,0.44531 0.8125,0.44531 0.526036,0 0.9010357,-0.20573 1.125,-0.61719 0.2239519,-0.41666 0.3359309,-1.11718 0.3359375,-2.10156 l 0,-3.875 3.05468754,0 0,8.85156 -2.30468754,0" />
      <path
         inkscape:connector-curvature="0"
         id="path4406"
         style="font-size:16px;font-style:normal;font-variant:normal;font-weight:800;font-stretch:normal;text-align:start;line-height:125%;writing-mode:lr-tb;text-anchor:start;fill:#3d4047;fill-opacity:1;font-family:Open Sans;-inkscape-font-specification:Open Sans Ultra-Bold"
         d="m 9.2036552,169.82362 c -7.8e-6,0.94792 -0.3229242,1.66407 -0.96875,2.14844 -0.6458396,0.48438 -1.572922,0.72656 -2.78125,0.72656 -0.6562534,0 -1.2265654,-0.0365 -1.7109375,-0.10937 -0.4843769,-0.0677 -0.9791681,-0.19531 -1.484375,-0.38281 l 0,-2.44532 c 0.473957,0.20834 0.9921856,0.38021 1.5546875,0.51563 0.5677053,0.13542 1.0729131,0.20313 1.515625,0.20312 0.6614537,1e-5 0.9921825,-0.15104 0.9921875,-0.45312 -5e-6,-0.15625 -0.093755,-0.29427 -0.28125,-0.41406 -0.1822962,-0.125 -0.718754,-0.36458 -1.609375,-0.71875 -0.8125023,-0.33333 -1.38021,-0.71094 -1.703125,-1.13282 -0.3229177,-0.42707 -0.4843759,-0.96614 -0.484375,-1.61718 -9e-7,-0.82291 0.3177071,-1.46354 0.953125,-1.92188 0.6354142,-0.45832 1.5338508,-0.68749 2.6953125,-0.6875 0.5833282,1e-5 1.1302027,0.0651 1.640625,0.19531 0.5156183,0.12501 1.0494719,0.30991 1.6015625,0.55469 l -0.828125,1.96875 c -0.4062565,-0.18228 -0.8359436,-0.33593 -1.2890625,-0.46094 -0.4531302,-0.1302 -0.8229215,-0.1953 -1.109375,-0.19531 -0.5000041,1e-5 -0.7500038,0.1224 -0.75,0.36719 -3.8e-6,0.15105 0.085934,0.28125 0.2578125,0.39062 0.1770791,0.10418 0.6822869,0.32032 1.515625,0.64844 0.6197855,0.25521 1.0807225,0.50521 1.3828125,0.75 0.3072844,0.2448 0.5312425,0.53386 0.671875,0.86719 0.1458256,0.32813 0.2187422,0.72917 0.21875,1.20312" />
      <path
         inkscape:connector-curvature="0"
         id="path4408"
         style="font-size:16px;font-style:normal;font-variant:normal;font-weight:800;font-stretch:normal;text-align:start;line-height:125%;writing-mode:lr-tb;text-anchor:start;fill:#3d4047;fill-opacity:1;font-family:Open Sans;-inkscape-font-specification:Open Sans Ultra-Bold"
         d="m 15.172405,172.69862 c -1.473962,0 -2.619794,-0.39062 -3.4375,-1.17187 -0.812501,-0.78646 -1.21875,-1.90364 -1.21875,-3.35156 0,-1.49479 0.377603,-2.64062 1.132813,-3.4375 0.755206,-0.80208 1.833329,-1.20312 3.234375,-1.20313 1.333327,1e-5 2.361972,0.34897 3.085937,1.04688 0.729158,0.69271 1.093741,1.69271 1.09375,3 l 0,1.35937 -5.460937,0 c 0.02083,0.4948 0.200517,0.88282 0.539062,1.16406 0.343746,0.28126 0.809891,0.42188 1.398438,0.42188 0.536452,0 1.028639,-0.0495 1.476562,-0.14844 0.453118,-0.10416 0.9427,-0.27864 1.46875,-0.52344 l 0,2.19532 c -0.479175,0.24479 -0.973966,0.41406 -1.484375,0.50781 -0.510423,0.0937 -1.119797,0.14062 -1.828125,0.14062 m -0.179687,-7.08593 c -0.35938,0 -0.661463,0.11459 -0.90625,0.34375 -0.239588,0.22396 -0.380212,0.57813 -0.421875,1.0625 l 2.625,0 c -0.01042,-0.42708 -0.132819,-0.76823 -0.367188,-1.02344 -0.229172,-0.2552 -0.539068,-0.38281 -0.929687,-0.38281" />
      <path
         inkscape:connector-curvature="0"
         id="path4410"
         style="font-size:16px;font-style:italic;font-variant:normal;font-weight:normal;font-stretch:normal;text-align:start;line-height:125%;writing-mode:lr-tb;text-anchor:start;fill:#3d4047;fill-opacity:1;font-family:Open Sans;-inkscape-font-specification:Open Sans Italic"
         d="m 22.836468,171.62831 c 0.286455,0 0.661454,-0.0677 1.125,-0.20312 l 0,1.00781 c -0.177088,0.0729 -0.395837,0.13542 -0.65625,0.1875 -0.26042,0.0521 -0.468753,0.0781 -0.625,0.0781 -0.651044,0 -1.151044,-0.15364 -1.5,-0.46093 -0.343751,-0.3125 -0.515626,-0.77604 -0.515625,-1.39063 -1e-6,-0.34375 0.04687,-0.73437 0.140625,-1.17187 l 0.992187,-4.70313 -1.34375,0 0.109375,-0.57031 1.445313,-0.60938 0.976562,-1.78125 0.765625,0 -0.429687,1.96875 2.140625,0 -0.203125,0.99219 -2.132813,0 -1.007812,4.71875 c -0.09375,0.45313 -0.140627,0.79688 -0.140625,1.03125 -2e-6,0.29167 0.07552,0.51563 0.226562,0.67188 0.151039,0.15625 0.361977,0.23437 0.632813,0.23437" />
      <path
         inkscape:connector-curvature="0"
         id="path4412"
         style="font-size:16px;font-style:italic;font-variant:normal;font-weight:normal;font-stretch:normal;text-align:start;line-height:125%;writing-mode:lr-tb;text-anchor:start;fill:#3d4047;fill-opacity:1;font-family:Open Sans;-inkscape-font-specification:Open Sans Italic"
         d="m 28.78178,172.69862 c -0.958336,0 -1.710939,-0.28385 -2.257812,-0.85156 -0.546876,-0.56771 -0.820314,-1.35416 -0.820313,-2.35937 -1e-6,-0.97917 0.192708,-1.91667 0.578125,-2.8125 0.390624,-0.90104 0.906248,-1.60156 1.546875,-2.10157 0.640622,-0.49999 1.34635,-0.74999 2.117188,-0.75 0.796869,1e-5 1.395827,0.17449 1.796875,0.52344 0.401034,0.34376 0.601555,0.82553 0.601562,1.44531 -7e-6,0.93751 -0.432298,1.67449 -1.296875,2.21094 -0.864588,0.53126 -2.101566,0.79688 -3.710937,0.79688 l -0.257813,0 -0.03125,0.625 c -2e-6,0.68229 0.158852,1.21614 0.476563,1.60156 0.322914,0.38021 0.820309,0.57031 1.492187,0.57031 0.328121,0 0.664058,-0.0469 1.007813,-0.14062 0.348953,-0.0937 0.781244,-0.26563 1.296875,-0.51563 l 0,1.14063 c -0.489589,0.22916 -0.921881,0.38802 -1.296875,0.47656 -0.375005,0.0937 -0.789067,0.14062 -1.242188,0.14062 m 1.085938,-7.75781 c -0.536463,1e-5 -1.041671,0.2448 -1.515625,0.73438 -0.468753,0.48959 -0.828128,1.16927 -1.078125,2.03906 l 0.09375,0 c 1.187496,0 2.096349,-0.15364 2.726562,-0.46094 0.635411,-0.31249 0.953119,-0.76301 0.953125,-1.35156 -6e-6,-0.27604 -0.09636,-0.5052 -0.289062,-0.6875 -0.187506,-0.18229 -0.484381,-0.27343 -0.890625,-0.27344" />
      <path
         inkscape:connector-curvature="0"
         id="path4414"
         style="font-size:16px;font-style:italic;font-variant:normal;font-weight:normal;font-stretch:normal;text-align:start;line-height:125%;writing-mode:lr-tb;text-anchor:start;fill:#3d4047;fill-opacity:1;font-family:Open Sans;-inkscape-font-specification:Open Sans Italic"
         d="m 36.797405,172.69862 c -1.010419,0 -1.794273,-0.27864 -2.351562,-0.83593 -0.557293,-0.55729 -0.835939,-1.34375 -0.835938,-2.35938 -10e-7,-1.04166 0.192708,-2.0026 0.578125,-2.88281 0.385415,-0.8802 0.916665,-1.5651 1.59375,-2.05469 0.682288,-0.49478 1.447913,-0.74218 2.296875,-0.74219 0.713536,1e-5 1.411452,0.13282 2.09375,0.39844 l -0.367187,1.10156 c -0.625007,-0.26561 -1.195319,-0.39843 -1.710938,-0.39843 -0.583338,0 -1.117191,0.20052 -1.601562,0.60156 -0.47917,0.39584 -0.856774,0.95053 -1.132813,1.66406 -0.270835,0.70834 -0.406252,1.47917 -0.40625,2.3125 -2e-6,0.66667 0.171873,1.1849 0.515625,1.55469 0.348956,0.36979 0.828122,0.55469 1.4375,0.55469 0.374996,0 0.729162,-0.0521 1.0625,-0.15625 0.333328,-0.10417 0.661453,-0.22657 0.984375,-0.36719 l 0,1.11719 c -0.645839,0.32812 -1.364588,0.49218 -2.15625,0.49218" />
      <path
         inkscape:connector-curvature="0"
         id="path4416"
         style="font-size:16px;font-style:italic;font-variant:normal;font-weight:normal;font-stretch:normal;text-align:start;line-height:125%;writing-mode:lr-tb;text-anchor:start;fill:#3d4047;fill-opacity:1;font-family:Open Sans;-inkscape-font-specification:Open Sans Italic"
         d="m 45.758343,172.54237 1.15625,-5.40625 c 0.09374,-0.48957 0.140618,-0.84114 0.140625,-1.05468 -7e-6,-0.77083 -0.382819,-1.15625 -1.148438,-1.15625 -0.463547,0 -0.916671,0.15365 -1.359375,0.46093 -0.437504,0.3073 -0.825524,0.75522 -1.164062,1.34375 -0.333337,0.58334 -0.58594,1.28907 -0.757813,2.11719 l -0.789062,3.69531 -1.3125,0 2.578125,-12.15625 1.3125,0 c -0.09376,0.4271 -0.1849,0.84116 -0.273438,1.24219 -0.08334,0.40105 -0.171879,0.80991 -0.265625,1.22656 -0.08854,0.41147 -0.187503,0.84376 -0.296875,1.29688 -0.10417,0.45313 -0.226566,0.94532 -0.367187,1.47656 l 0.08594,0 c 0.48958,-0.64062 0.97135,-1.09895 1.445313,-1.375 0.479161,-0.27603 0.979161,-0.41405 1.5,-0.41406 0.682285,1e-5 1.208326,0.18751 1.578125,0.5625 0.374992,0.37501 0.562491,0.90626 0.5625,1.59375 -9e-6,0.32292 -0.0599,0.75521 -0.179688,1.29687 -0.203133,1.00522 -0.580736,2.75521 -1.132812,5.25 l -1.3125,0" />
    </g>
  </g>
</svg>
