<?xml version="1.0" encoding="UTF-8" standalone="no"?>
<svg
   xmlns:dc="http://purl.org/dc/elements/1.1/"
   xmlns:cc="http://creativecommons.org/ns#"
   xmlns:rdf="http://www.w3.org/1999/02/22-rdf-syntax-ns#"
   xmlns:svg="http://www.w3.org/2000/svg"
   xmlns="http://www.w3.org/2000/svg"
   xmlns:xlink="http://www.w3.org/1999/xlink"
   xmlns:sodipodi="http://sodipodi.sourceforge.net/DTD/sodipodi-0.dtd"
   xmlns:inkscape="http://www.inkscape.org/namespaces/inkscape"
   width="128pt"
   height="128pt"
   viewBox="0 0 128 128"
   id="svg2"
   version="1.1"
   inkscape:version="0.48.4 r9939"
   sodipodi:docname="preferences-system.svg">
  <metadata
     id="metadata36">
    <rdf:RDF>
      <cc:Work
         rdf:about="">
        <dc:format>image/svg+xml</dc:format>
        <dc:type
           rdf:resource="http://purl.org/dc/dcmitype/StillImage" />
        <dc:title />
      </cc:Work>
    </rdf:RDF>
  </metadata>
  <sodipodi:namedview
     pagecolor="#000000"
     bordercolor="#666666"
     borderopacity="1"
     objecttolerance="10"
     gridtolerance="10"
     guidetolerance="10"
     inkscape:pageopacity="0.46666667"
     inkscape:pageshadow="2"
     inkscape:window-width="1366"
     inkscape:window-height="713"
     id="namedview34"
     showgrid="true"
     inkscape:zoom="0.7375"
     inkscape:cx="-216.52791"
     inkscape:cy="51.13459"
     inkscape:window-x="0"
     inkscape:window-y="-3"
     inkscape:window-maximized="1"
     inkscape:current-layer="svg2"
     showguides="true"
     inkscape:guide-bbox="true">
    <inkscape:grid
       type="xygrid"
       id="grid2996"
       empspacing="5"
       visible="true"
       enabled="true"
       snapvisiblegridlinesonly="true" />
    <sodipodi:guide
       orientation="1,0"
       position="80,140"
       id="guide3770" />
    <sodipodi:guide
       orientation="0,1"
       position="115,160"
       id="guide3815" />
  </sodipodi:namedview>
  <defs
     id="defs4">
    <linearGradient
       id="linearGradient3894">
      <stop
         style="stop-color:#94d006;stop-opacity:1;"
         offset="0"
         id="stop3896" />
      <stop
         style="stop-color:#0da96f;stop-opacity:1;"
         offset="1"
         id="stop3898" />
    </linearGradient>
    <linearGradient
       id="linearGradient3886">
      <stop
         style="stop-color:#f3c026;stop-opacity:1;"
         offset="0"
         id="stop3888" />
      <stop
         style="stop-color:#c04848;stop-opacity:1;"
         offset="1"
         id="stop3890" />
    </linearGradient>
    <linearGradient
       id="linearGradient3849">
      <stop
         id="stop3851"
         offset="0"
         style="stop-color:#1d96ba;stop-opacity:1;" />
      <stop
         style="stop-color:#8cbc3f;stop-opacity:1;"
         offset="0.33333334"
         id="stop3853" />
      <stop
         style="stop-color:#f3c026;stop-opacity:1;"
         offset="0.66666669"
         id="stop3855" />
      <stop
         style="stop-color:#ec6224;stop-opacity:1;"
         offset="1"
         id="stop3857" />
    </linearGradient>
    <linearGradient
       id="linearGradient3790">
      <stop
         style="stop-color:#227808;stop-opacity:1;"
         offset="0"
         id="stop3792" />
      <stop
         style="stop-color:#006e29;stop-opacity:1;"
         offset="1"
         id="stop3794" />
    </linearGradient>
    <radialGradient
       cx="9.0864"
       gradientUnits="userSpaceOnUse"
       cy="44.9507"
       r="36.658"
       id="Grad0">
      <stop
         offset="0%"
         stop-color="#fdfdfc"
         stop-opacity="1"
         id="stop7" />
      <stop
         offset="32.78%"
         stop-color="#fdfdfc"
         stop-opacity="1"
         id="stop9" />
      <stop
         offset="67.7359%"
         stop-color="#f4f5f4"
         stop-opacity="1"
         id="stop11" />
      <stop
         offset="100%"
         stop-color="#cbcfd0"
         stop-opacity="1"
         id="stop13" />
    </radialGradient>
    <linearGradient
       inkscape:collect="always"
       xlink:href="#linearGradient4305"
       id="linearGradient4004"
       x1="2120"
       y1="39.999992"
       x2="2640"
       y2="560"
       gradientUnits="userSpaceOnUse" />
    <linearGradient
       id="linearGradient4305">
      <stop
         style="stop-color:#1d96ba;stop-opacity:1;"
         offset="0"
         id="stop4307" />
      <stop
         id="stop4309"
         offset="0.23076917"
         style="stop-color:#8cbc3f;stop-opacity:1;" />
      <stop
         id="stop4311"
         offset="0.37499991"
         style="stop-color:#f3c026;stop-opacity:1;" />
      <stop
         id="stop4313"
         offset="0.61538458"
         style="stop-color:#ec6224;stop-opacity:1;" />
      <stop
         id="stop4315"
         offset="0.76923078"
         style="stop-color:#c21b7d;stop-opacity:1;" />
      <stop
         style="stop-color:#424f99;stop-opacity:1;"
         offset="1"
         id="stop4317" />
    </linearGradient>
    <linearGradient
       inkscape:collect="always"
       xlink:href="#linearGradient3764"
       id="linearGradient3770"
       x1="-238.59148"
       y1="-57.283463"
       x2="-95.153793"
       y2="86.154213"
       gradientUnits="userSpaceOnUse" />
    <linearGradient
       id="linearGradient3764">
      <stop
         style="stop-color:#94d006;stop-opacity:1;"
         offset="0"
         id="stop3766" />
      <stop
         style="stop-color:#227808;stop-opacity:1;"
         offset="1"
         id="stop3768" />
    </linearGradient>
    <linearGradient
       inkscape:collect="always"
       xlink:href="#linearGradient3764"
       id="linearGradient3014"
       x1="-238.59148"
       y1="-57.283463"
       x2="-95.153793"
       y2="86.154213"
       gradientUnits="userSpaceOnUse" />
    <linearGradient
       id="linearGradient3016">
      <stop
         style="stop-color:#94d006;stop-opacity:1;"
         offset="0"
         id="stop3018" />
      <stop
         style="stop-color:#227808;stop-opacity:1;"
         offset="1"
         id="stop3020" />
    </linearGradient>
    <linearGradient
       inkscape:collect="always"
       xlink:href="#linearGradient3790-4"
       id="linearGradient3796"
       x1="0"
       y1="0"
       x2="128"
       y2="128"
       gradientUnits="userSpaceOnUse" />
    <linearGradient
       id="linearGradient3790-4">
      <stop
         style="stop-color:#f07241;stop-opacity:1;"
         offset="0"
         id="stop3792-6" />
      <stop
         style="stop-color:#c04848;stop-opacity:1;"
         offset="1"
         id="stop3794-2" />
    </linearGradient>
    <linearGradient
       inkscape:collect="always"
       xlink:href="#linearGradient4690"
       id="linearGradient4696"
       x1="550"
       y1="812.3562"
       x2="490"
       y2="722.3562"
       gradientUnits="userSpaceOnUse" />
    <linearGradient
       id="linearGradient4690">
      <stop
         style="stop-color:#c04848;stop-opacity:1;"
         offset="0"
         id="stop4692" />
      <stop
         style="stop-color:#f07241;stop-opacity:1;"
         offset="1"
         id="stop4694" />
    </linearGradient>
    <linearGradient
       inkscape:collect="always"
       xlink:href="#linearGradient3794"
       id="linearGradient3817"
       x1="0"
       y1="0"
       x2="128"
       y2="128"
       gradientUnits="userSpaceOnUse" />
    <linearGradient
       id="linearGradient3794">
      <stop
         style="stop-color:#ffffff;stop-opacity:1;"
         offset="0"
         id="stop3796" />
      <stop
         style="stop-color:#dee1e2;stop-opacity:1;"
         offset="1"
         id="stop3798" />
    </linearGradient>
    <linearGradient
       inkscape:collect="always"
       xlink:href="#linearGradient3794"
       id="linearGradient3036"
       x1="0"
       y1="0"
       x2="128"
       y2="128"
       gradientUnits="userSpaceOnUse" />
    <linearGradient
       id="linearGradient3038">
      <stop
         style="stop-color:#ffffff;stop-opacity:1;"
         offset="0"
         id="stop3040" />
      <stop
         style="stop-color:#dee1e2;stop-opacity:1;"
         offset="1"
         id="stop3042" />
    </linearGradient>
    <linearGradient
       inkscape:collect="always"
       xlink:href="#linearGradient3794"
       id="linearGradient3044"
       x1="0"
       y1="0"
       x2="128"
       y2="128"
       gradientUnits="userSpaceOnUse" />
    <linearGradient
       id="linearGradient3046">
      <stop
         style="stop-color:#ffffff;stop-opacity:1;"
         offset="0"
         id="stop3048" />
      <stop
         style="stop-color:#dee1e2;stop-opacity:1;"
         offset="1"
         id="stop3050" />
    </linearGradient>
    <linearGradient
       inkscape:collect="always"
       xlink:href="#linearGradient3794"
       id="linearGradient3052"
       x1="0"
       y1="0"
       x2="128"
       y2="128"
       gradientUnits="userSpaceOnUse" />
    <linearGradient
       id="linearGradient3054">
      <stop
         style="stop-color:#ffffff;stop-opacity:1;"
         offset="0"
         id="stop3056" />
      <stop
         style="stop-color:#dee1e2;stop-opacity:1;"
         offset="1"
         id="stop3058" />
    </linearGradient>
    <linearGradient
       y2="128"
       x2="128"
       y1="0"
       x1="0"
       gradientUnits="userSpaceOnUse"
       id="linearGradient3065"
       xlink:href="#linearGradient3794"
       inkscape:collect="always" />
    <linearGradient
       y2="128"
       x2="128"
       y1="0"
       x1="0"
       gradientUnits="userSpaceOnUse"
       id="linearGradient3067"
       xlink:href="#linearGradient3794"
       inkscape:collect="always" />
    <linearGradient
       y2="128"
       x2="128"
       y1="0"
       x1="0"
       gradientUnits="userSpaceOnUse"
       id="linearGradient3069"
       xlink:href="#linearGradient3794"
       inkscape:collect="always" />
    <linearGradient
       inkscape:collect="always"
       xlink:href="#linearGradient3790-4-9"
       id="linearGradient3816-8"
       x1="2083.4731"
       y1="0.99866295"
       x2="2682.4365"
       y2="599.9621"
       gradientUnits="userSpaceOnUse" />
    <linearGradient
       id="linearGradient3790-4-9">
      <stop
         style="stop-color:#f07241;stop-opacity:1;"
         offset="0"
         id="stop3792-6-7" />
      <stop
         style="stop-color:#c04848;stop-opacity:1;"
         offset="1"
         id="stop3794-2-7" />
    </linearGradient>
    <linearGradient
       inkscape:collect="always"
       xlink:href="#linearGradient3886"
       id="linearGradient3892"
       x1="2083.4731"
       y1="0.99866295"
       x2="2682.4365"
       y2="599.9621"
       gradientUnits="userSpaceOnUse" />
    <linearGradient
       inkscape:collect="always"
       xlink:href="#linearGradient3886-8"
       id="linearGradient3892-7"
       x1="2083.4731"
       y1="0.99866295"
       x2="2682.4365"
       y2="599.9621"
       gradientUnits="userSpaceOnUse" />
    <linearGradient
       id="linearGradient3886-8">
      <stop
         style="stop-color:#f3c026;stop-opacity:1;"
         offset="0"
         id="stop3888-5" />
      <stop
         style="stop-color:#c04848;stop-opacity:1;"
         offset="1"
         id="stop3890-1" />
    </linearGradient>
    <linearGradient
       y2="599.9621"
       x2="2682.4365"
       y1="0.99866295"
       x1="2083.4731"
       gradientUnits="userSpaceOnUse"
       id="linearGradient3865"
       xlink:href="#linearGradient3886-8"
       inkscape:collect="always" />
  </defs>
  <defs
     id="defs19">
    <radialGradient
       cx="49"
       gradientUnits="userSpaceOnUse"
       cy="27.681"
       r="43.1611"
       id="Grad1">
      <stop
         offset="0%"
         stop-color="#fdfdfc"
         stop-opacity="1"
         id="stop22" />
      <stop
         offset="32.78%"
         stop-color="#fdfdfc"
         stop-opacity="1"
         id="stop24" />
      <stop
         offset="67.7359%"
         stop-color="#f4f5f4"
         stop-opacity="1"
         id="stop26" />
      <stop
         offset="100%"
         stop-color="#cbcfd0"
         stop-opacity="1"
         id="stop28" />
    </radialGradient>
  </defs>
  <path
     sodipodi:type="arc"
     style="fill:url(#linearGradient3892);fill-opacity:1;stroke:none"
     id="path3227"
     sodipodi:cx="2380"
     sodipodi:cy="300"
     sodipodi:rx="260"
     sodipodi:ry="260"
     d="m 2640,300 a 260,260 0 1 1 -520,0 260,260 0 1 1 520,0 z"
     transform="matrix(0.21370253,0,0,0.21370253,-445.24347,-0.2134168)" />
  <rect
     style="fill:#c04848;fill-opacity:1;fill-rule:nonzero;stroke:none"
     id="rect3006-0-3-2-6-7-2-37"
     width="40"
     height="40"
     x="-198.05884"
     y="199.90248"
     rx="20"
     ry="20" />
  <rect
     style="fill:#eeee22;fill-opacity:1;fill-rule:nonzero;stroke:none"
     id="rect3006-6-1-4-36-6-0-8"
     width="40"
     height="40"
     x="-193.23962"
     y="60.988438"
     rx="20"
     ry="20" />
  <rect
     style="fill:#f3c026;fill-opacity:1;fill-rule:nonzero;stroke:none"
     id="rect3006-6-1-4-36-6-0-84"
     width="40"
     height="40"
     x="210.11845"
     y="-154.83604"
     rx="20"
     ry="20"
     transform="matrix(0,1,1,0,0,0)" />
  <path
     sodipodi:type="arc"
     style="fill:url(#linearGradient3865);fill-opacity:1;stroke:none"
     id="path3227-7"
     sodipodi:cx="2380"
     sodipodi:cy="300"
     sodipodi:rx="260"
     sodipodi:ry="260"
     d="m 2640,300 a 260,260 0 1 1 -520,0 260,260 0 1 1 520,0 z"
     transform="matrix(0.21370253,0,0,0.21370253,-824.09096,29.074726)" />
  <g
     transform="matrix(5.3699941,0,0,5.3699941,3349.5187,-1081.1597)"
     style="font-size:18px;font-style:normal;font-variant:normal;font-weight:normal;font-stretch:normal;line-height:125%;letter-spacing:0px;word-spacing:0px;fill:#f2f2f2;fill-opacity:1;stroke:none;font-family:Open Sans;-inkscape-font-specification:Open Sans"
     id="text3843">
    <path
       d="m -609.3753,213.23245 c 0,1.4163 -1.15513,2.57143 -2.57143,2.57143 -1.41629,0 -2.57142,-1.15513 -2.57142,-2.57143 0,-1.41629 1.15513,-2.57142 2.57142,-2.57142 1.4163,0 2.57143,1.15513 2.57143,2.57142 m 5.14286,-1.09486 c 0,-0.17076 -0.12054,-0.33147 -0.29129,-0.36161 l -1.83817,-0.28125 c -0.10045,-0.33147 -0.24108,-0.66295 -0.41183,-0.98437 0.34151,-0.4721 0.71317,-0.91407 1.05468,-1.37612 0.0502,-0.0703 0.0804,-0.14062 0.0804,-0.23103 0,-0.0804 -0.0201,-0.16071 -0.0703,-0.22098 -0.42188,-0.59263 -1.125,-1.2154 -1.65737,-1.70759 -0.0703,-0.0603 -0.16071,-0.10044 -0.25111,-0.10044 -0.0904,0 -0.18081,0.0301 -0.24108,0.0904 l -1.42633,1.07477 c -0.2913,-0.15067 -0.59264,-0.2712 -0.90402,-0.37165 l -0.28125,-1.84821 c -0.0201,-0.17076 -0.18081,-0.30134 -0.36161,-0.30134 l -2.22991,0 c -0.1808,0 -0.32143,0.12053 -0.36161,0.28125 -0.16071,0.60268 -0.22098,1.25558 -0.29129,1.8683 -0.31139,0.10045 -0.62277,0.23103 -0.91406,0.3817 l -1.38617,-1.07478 c -0.0803,-0.0603 -0.17075,-0.10044 -0.26116,-0.10044 -0.34151,0 -1.69754,1.46651 -1.93861,1.79799 -0.0502,0.0703 -0.0904,0.14062 -0.0904,0.23102 0,0.0904 0.0402,0.17076 0.10044,0.24107 0.37165,0.45201 0.73326,0.90402 1.07478,1.38617 -0.16071,0.30133 -0.2913,0.60267 -0.39174,0.9241 l -1.86831,0.28125 c -0.15066,0.0301 -0.2712,0.21094 -0.2712,0.36161 l 0,2.22991 c 0,0.17076 0.12054,0.33147 0.29129,0.36161 l 1.83817,0.2712 c 0.10045,0.34152 0.24108,0.67299 0.41183,0.99442 -0.34151,0.4721 -0.71317,0.91407 -1.05468,1.37612 -0.0502,0.0703 -0.0804,0.14062 -0.0804,0.23103 0,0.0804 0.0201,0.16071 0.0703,0.23102 0.42188,0.58259 1.125,1.20536 1.65737,1.6875 0.0703,0.0703 0.16071,0.11049 0.25111,0.11049 0.0904,0 0.18081,-0.0301 0.25112,-0.0904 l 1.41629,-1.07478 c 0.2913,0.15067 0.59264,0.27121 0.90402,0.37166 l 0.28125,1.84821 c 0.0201,0.17076 0.18081,0.30134 0.36161,0.30134 l 2.22991,0 c 0.1808,0 0.32143,-0.12054 0.36161,-0.28125 0.16071,-0.60268 0.22098,-1.25558 0.29129,-1.8683 0.31139,-0.10045 0.62277,-0.23103 0.91406,-0.3817 l 1.38617,1.08482 c 0.0804,0.0502 0.17075,0.0904 0.26116,0.0904 0.34151,0 1.69754,-1.47656 1.93861,-1.79799 0.0603,-0.0703 0.0904,-0.14062 0.0904,-0.23102 0,-0.0904 -0.0402,-0.18081 -0.10044,-0.25112 -0.37165,-0.45201 -0.73326,-0.89397 -1.07478,-1.38616 0.16071,-0.2913 0.28125,-0.59264 0.39174,-0.91406 l 1.85826,-0.28125 c 0.16071,-0.0301 0.28125,-0.21094 0.28125,-0.36161 l 0,-2.22991"
       id="path3848"
       inkscape:connector-curvature="0"
       style="fill:#f2f2f2" />
  </g>
  <g
     transform="matrix(4.4155659,0,0,4.4155659,2383.3522,-904.61418)"
     style="font-size:18px;font-style:normal;font-variant:normal;font-weight:normal;font-stretch:normal;line-height:125%;letter-spacing:0px;word-spacing:0px;fill:#f2f2f2;fill-opacity:1;stroke:none;font-family:Open Sans;-inkscape-font-specification:Open Sans"
     id="text3836">
    <path
       d="m -615.80387,231.22155 c 0,0.35157 -0.29129,0.64286 -0.64286,0.64286 -0.35156,0 -0.64285,-0.29129 -0.64285,-0.64286 0,-0.35156 0.29129,-0.64285 0.64285,-0.64285 0.35157,0 0.64286,0.29129 0.64286,0.64285 m 6.46875,-4.21875 c -1.31584,-0.52232 -2.37053,-1.57701 -2.89286,-2.89285 l -6.8404,6.8404 c -0.24107,0.24107 -0.38169,0.57254 -0.38169,0.91406 0,0.34152 0.14062,0.67299 0.38169,0.90402 l 1.06474,1.08482 c 0.24107,0.23103 0.57254,0.37165 0.91406,0.37165 0.34152,0 0.67299,-0.14062 0.90402,-0.37165 l 6.85044,-6.85045 m 6.36831,-4.36942 c 0,-0.20089 -0.12054,-0.35156 -0.32143,-0.35156 -0.2009,0 -2.53125,1.46652 -2.86273,1.65737 l -1.93861,-1.07478 0,-2.25 2.94308,-1.69754 c 0.0904,-0.0603 0.16071,-0.17076 0.16071,-0.28125 0,-0.12054 -0.0603,-0.21094 -0.16071,-0.28125 -0.61272,-0.41183 -1.56697,-0.63282 -2.30023,-0.63282 -2.48102,0 -4.5,2.01898 -4.5,4.5 0,2.48103 2.01898,4.5 4.5,4.5 1.89844,0 3.61608,-1.23549 4.24889,-3.02343 0.11049,-0.32143 0.23103,-0.73326 0.23103,-1.06474"
       id="path3841"
       inkscape:connector-curvature="0"
       style="fill:#f2f2f2" />
  </g>
</svg>
