<?xml version="1.0" encoding="UTF-8" standalone="no"?>
<svg
   xmlns:dc="http://purl.org/dc/elements/1.1/"
   xmlns:cc="http://creativecommons.org/ns#"
   xmlns:rdf="http://www.w3.org/1999/02/22-rdf-syntax-ns#"
   xmlns:svg="http://www.w3.org/2000/svg"
   xmlns="http://www.w3.org/2000/svg"
   xmlns:xlink="http://www.w3.org/1999/xlink"
   xmlns:sodipodi="http://sodipodi.sourceforge.net/DTD/sodipodi-0.dtd"
   xmlns:inkscape="http://www.inkscape.org/namespaces/inkscape"
   width="128pt"
   height="128pt"
   viewBox="0 0 128 128"
   id="svg2"
   version="1.1"
   inkscape:version="0.48.4 r9939"
   sodipodi:docname="system-help.svg">
  <metadata
     id="metadata36">
    <rdf:RDF>
      <cc:Work
         rdf:about="">
        <dc:format>image/svg+xml</dc:format>
        <dc:type
           rdf:resource="http://purl.org/dc/dcmitype/StillImage" />
        <dc:title />
      </cc:Work>
    </rdf:RDF>
  </metadata>
  <sodipodi:namedview
     pagecolor="#000000"
     bordercolor="#666666"
     borderopacity="1"
     objecttolerance="10"
     gridtolerance="10"
     guidetolerance="10"
     inkscape:pageopacity="0.46666667"
     inkscape:pageshadow="2"
     inkscape:window-width="1366"
     inkscape:window-height="713"
     id="namedview34"
     showgrid="true"
     inkscape:zoom="1.475"
     inkscape:cx="-102.17703"
     inkscape:cy="72.99177"
     inkscape:window-x="0"
     inkscape:window-y="-3"
     inkscape:window-maximized="1"
     inkscape:current-layer="svg2"
     showguides="true"
     inkscape:guide-bbox="true">
    <inkscape:grid
       type="xygrid"
       id="grid2996"
       empspacing="5"
       visible="true"
       enabled="true"
       snapvisiblegridlinesonly="true" />
    <sodipodi:guide
       orientation="1,0"
       position="80,140"
       id="guide3770" />
    <sodipodi:guide
       orientation="0,1"
       position="115,160"
       id="guide3815" />
  </sodipodi:namedview>
  <defs
     id="defs4">
    <linearGradient
       id="linearGradient3849">
      <stop
         id="stop3851"
         offset="0"
         style="stop-color:#1d96ba;stop-opacity:1;" />
      <stop
         style="stop-color:#8cbc3f;stop-opacity:1;"
         offset="0.33333334"
         id="stop3853" />
      <stop
         style="stop-color:#f3c026;stop-opacity:1;"
         offset="0.66666669"
         id="stop3855" />
      <stop
         style="stop-color:#ec6224;stop-opacity:1;"
         offset="1"
         id="stop3857" />
    </linearGradient>
    <linearGradient
       id="linearGradient3790">
      <stop
         style="stop-color:#227808;stop-opacity:1;"
         offset="0"
         id="stop3792" />
      <stop
         style="stop-color:#006e29;stop-opacity:1;"
         offset="1"
         id="stop3794" />
    </linearGradient>
    <radialGradient
       cx="9.0864"
       gradientUnits="userSpaceOnUse"
       cy="44.9507"
       r="36.658"
       id="Grad0">
      <stop
         offset="0%"
         stop-color="#fdfdfc"
         stop-opacity="1"
         id="stop7" />
      <stop
         offset="32.78%"
         stop-color="#fdfdfc"
         stop-opacity="1"
         id="stop9" />
      <stop
         offset="67.7359%"
         stop-color="#f4f5f4"
         stop-opacity="1"
         id="stop11" />
      <stop
         offset="100%"
         stop-color="#cbcfd0"
         stop-opacity="1"
         id="stop13" />
    </radialGradient>
    <linearGradient
       inkscape:collect="always"
       xlink:href="#linearGradient4305"
       id="linearGradient4004"
       x1="2120"
       y1="39.999992"
       x2="2640"
       y2="560"
       gradientUnits="userSpaceOnUse" />
    <linearGradient
       id="linearGradient4305">
      <stop
         style="stop-color:#1d96ba;stop-opacity:1;"
         offset="0"
         id="stop4307" />
      <stop
         id="stop4309"
         offset="0.23076917"
         style="stop-color:#8cbc3f;stop-opacity:1;" />
      <stop
         id="stop4311"
         offset="0.37499991"
         style="stop-color:#f3c026;stop-opacity:1;" />
      <stop
         id="stop4313"
         offset="0.61538458"
         style="stop-color:#ec6224;stop-opacity:1;" />
      <stop
         id="stop4315"
         offset="0.76923078"
         style="stop-color:#c21b7d;stop-opacity:1;" />
      <stop
         style="stop-color:#424f99;stop-opacity:1;"
         offset="1"
         id="stop4317" />
    </linearGradient>
    <linearGradient
       inkscape:collect="always"
       xlink:href="#linearGradient3764"
       id="linearGradient3770"
       x1="-238.59148"
       y1="-57.283463"
       x2="-95.153793"
       y2="86.154213"
       gradientUnits="userSpaceOnUse" />
    <linearGradient
       id="linearGradient3764">
      <stop
         style="stop-color:#94d006;stop-opacity:1;"
         offset="0"
         id="stop3766" />
      <stop
         style="stop-color:#227808;stop-opacity:1;"
         offset="1"
         id="stop3768" />
    </linearGradient>
    <linearGradient
       inkscape:collect="always"
       xlink:href="#linearGradient3764"
       id="linearGradient3014"
       x1="-238.59148"
       y1="-57.283463"
       x2="-95.153793"
       y2="86.154213"
       gradientUnits="userSpaceOnUse" />
    <linearGradient
       id="linearGradient3016">
      <stop
         style="stop-color:#94d006;stop-opacity:1;"
         offset="0"
         id="stop3018" />
      <stop
         style="stop-color:#227808;stop-opacity:1;"
         offset="1"
         id="stop3020" />
    </linearGradient>
    <linearGradient
       inkscape:collect="always"
       xlink:href="#linearGradient3772"
       id="linearGradient3816"
       x1="2083.4731"
       y1="0.99866295"
       x2="2682.4365"
       y2="599.9621"
       gradientUnits="userSpaceOnUse" />
    <linearGradient
       inkscape:collect="always"
       xlink:href="#linearGradient3772"
       id="linearGradient3778"
       x1="0"
       y1="0"
       x2="128"
       y2="128"
       gradientUnits="userSpaceOnUse" />
    <linearGradient
       id="linearGradient3772">
      <stop
         style="stop-color:#00acff;stop-opacity:1;"
         offset="0"
         id="stop3774" />
      <stop
         style="stop-color:#2a7ec5;stop-opacity:1;"
         offset="1"
         id="stop3776" />
    </linearGradient>
    <linearGradient
       inkscape:collect="always"
       xlink:href="#linearGradient3772"
       id="linearGradient3016-3"
       x1="0"
       y1="0"
       x2="128"
       y2="128"
       gradientUnits="userSpaceOnUse" />
    <linearGradient
       id="linearGradient3018">
      <stop
         style="stop-color:#00b2ff;stop-opacity:1;"
         offset="0"
         id="stop3020-8" />
      <stop
         style="stop-color:#1756b6;stop-opacity:1;"
         offset="1"
         id="stop3022" />
    </linearGradient>
    <linearGradient
       inkscape:collect="always"
       xlink:href="#linearGradient3772"
       id="linearGradient3024"
       x1="0"
       y1="0"
       x2="128"
       y2="128"
       gradientUnits="userSpaceOnUse" />
    <linearGradient
       id="linearGradient3026">
      <stop
         style="stop-color:#00b2ff;stop-opacity:1;"
         offset="0"
         id="stop3028" />
      <stop
         style="stop-color:#1756b6;stop-opacity:1;"
         offset="1"
         id="stop3030" />
    </linearGradient>
    <linearGradient
       inkscape:collect="always"
       xlink:href="#linearGradient3772"
       id="linearGradient3032"
       x1="0"
       y1="0"
       x2="128"
       y2="128"
       gradientUnits="userSpaceOnUse" />
    <linearGradient
       id="linearGradient3034">
      <stop
         style="stop-color:#00b2ff;stop-opacity:1;"
         offset="0"
         id="stop3036" />
      <stop
         style="stop-color:#1756b6;stop-opacity:1;"
         offset="1"
         id="stop3038" />
    </linearGradient>
    <linearGradient
       inkscape:collect="always"
       xlink:href="#linearGradient3772"
       id="linearGradient3040"
       x1="0"
       y1="0"
       x2="128"
       y2="128"
       gradientUnits="userSpaceOnUse" />
    <linearGradient
       id="linearGradient3042">
      <stop
         style="stop-color:#00b2ff;stop-opacity:1;"
         offset="0"
         id="stop3044" />
      <stop
         style="stop-color:#1756b6;stop-opacity:1;"
         offset="1"
         id="stop3046" />
    </linearGradient>
  </defs>
  <defs
     id="defs19">
    <radialGradient
       cx="49"
       gradientUnits="userSpaceOnUse"
       cy="27.681"
       r="43.1611"
       id="Grad1">
      <stop
         offset="0%"
         stop-color="#fdfdfc"
         stop-opacity="1"
         id="stop22" />
      <stop
         offset="32.78%"
         stop-color="#fdfdfc"
         stop-opacity="1"
         id="stop24" />
      <stop
         offset="67.7359%"
         stop-color="#f4f5f4"
         stop-opacity="1"
         id="stop26" />
      <stop
         offset="100%"
         stop-color="#cbcfd0"
         stop-opacity="1"
         id="stop28" />
    </radialGradient>
  </defs>
  <path
     sodipodi:type="arc"
     style="fill:url(#linearGradient3816);fill-opacity:1.0;stroke:none"
     id="path3227"
     sodipodi:cx="2380"
     sodipodi:cy="300"
     sodipodi:rx="260"
     sodipodi:ry="260"
     d="m 2640,300 a 260,260 0 1 1 -520,0 260,260 0 1 1 520,0 z"
     transform="matrix(0.21370253,0,0,0.21370253,-445.24347,-0.2134168)" />
  <rect
     style="fill:#32adf1;fill-opacity:1;fill-rule:nonzero;stroke:none"
     id="rect3006-1-8"
     width="40"
     height="40"
     x="-144"
     y="79.828796"
     rx="20"
     ry="20" />
  <rect
     style="fill:#1d96ba;fill-opacity:1;fill-rule:nonzero;stroke:none"
     id="rect3006-6-1-4-36-6-0-7"
     width="40"
     height="40"
     x="-240.032"
     y="80.00238"
     rx="20"
     ry="20" />
  <g
     transform="matrix(2.4591181,0,0,2.4591181,247.76398,-203.06713)"
     style="font-size:18px;font-style:normal;font-variant:normal;font-weight:bold;font-stretch:normal;line-height:125%;letter-spacing:0px;word-spacing:0px;fill:#f2f2f2;fill-opacity:1;stroke:none;font-family:Droid Serif;-inkscape-font-specification:Droid Serif Bold"
     id="text3823">
    <path
       d="m -109.05399,66.211502 c -1e-5,0.480478 -0.0762,0.911142 -0.22852,1.291992 -0.14649,0.380868 -0.36915,0.7295 -0.66797,1.045899 -0.29883,0.316413 -0.67383,0.609381 -1.125,0.878906 -0.44532,0.263678 -0.9668,0.518561 -1.56445,0.764648 l -0.36035,1.634766 -1.09864,0 -0.36035,-2.214844 c 0.51562,-0.205071 0.9375,-0.445305 1.26563,-0.720703 0.32812,-0.281243 0.58593,-0.58007 0.77344,-0.896484 0.19335,-0.322258 0.32519,-0.659171 0.3955,-1.010742 0.0703,-0.351554 0.10547,-0.706045 0.10547,-1.063477 0,-0.287099 -0.0264,-0.547841 -0.0791,-0.782227 -0.0527,-0.240223 -0.1377,-0.445301 -0.25488,-0.615234 -0.11134,-0.17577 -0.25782,-0.310535 -0.43946,-0.404297 -0.17578,-0.09374 -0.38672,-0.140613 -0.63281,-0.140625 -0.26953,1.2e-5 -0.49512,0.06154 -0.67676,0.184571 -0.18164,0.123058 -0.32812,0.28712 -0.43945,0.492187 -0.11133,0.205089 -0.19336,0.445323 -0.24609,0.720703 -0.0469,0.275401 -0.0703,0.56544 -0.0703,0.870117 -0.36915,1e-5 -0.70899,-0.02636 -1.01954,-0.0791 -0.31054,-0.05272 -0.58008,-0.128897 -0.80859,-0.228516 -0.22266,-0.105459 -0.39844,-0.237294 -0.52734,-0.395508 -0.12305,-0.158192 -0.18457,-0.342762 -0.18457,-0.553711 0,-0.292957 0.0762,-0.565418 0.22851,-0.817382 0.15234,-0.257801 0.38379,-0.480457 0.69434,-0.667969 0.3164,-0.187488 0.71484,-0.333972 1.19531,-0.439453 0.48047,-0.111315 1.05175,-0.166979 1.71387,-0.166992 0.6328,1.3e-5 1.21874,0.07618 1.75781,0.228515 0.53906,0.146497 1.00488,0.363294 1.39746,0.650391 0.39257,0.281262 0.70019,0.626964 0.92285,1.037109 0.22265,0.410167 0.33398,0.875987 0.33399,1.397461 m -5.99414,8.428711 c -1e-5,-0.275389 0.0381,-0.503904 0.11425,-0.685547 0.0762,-0.187498 0.17871,-0.336912 0.30762,-0.448242 0.13476,-0.111326 0.29297,-0.190427 0.47461,-0.237305 0.18164,-0.04687 0.375,-0.07031 0.58008,-0.07031 0.19921,2e-6 0.38671,0.02344 0.5625,0.07031 0.18163,0.04688 0.33984,0.125979 0.47461,0.237305 0.13476,0.11133 0.24023,0.260744 0.3164,0.448242 0.082,0.181643 0.12305,0.410158 0.12305,0.685547 0,0.269532 -0.041,0.495118 -0.12305,0.676758 -0.0762,0.181641 -0.18164,0.328125 -0.3164,0.439453 -0.13477,0.111328 -0.29298,0.19043 -0.47461,0.237305 -0.17579,0.05273 -0.36329,0.0791 -0.5625,0.0791 -0.20508,0 -0.39844,-0.02637 -0.58008,-0.0791 -0.18164,-0.04687 -0.33985,-0.125977 -0.47461,-0.237305 -0.12891,-0.111328 -0.23145,-0.257812 -0.30762,-0.439453 -0.0762,-0.18164 -0.11426,-0.407226 -0.11425,-0.676758"
       id="path3828"
       inkscape:connector-curvature="0"
       style="fill:#f2f2f2" />
  </g>
  <g
     transform="matrix(5.0910912,0,0,5.0910912,828.89979,-271.57523)"
     style="font-size:18px;font-style:normal;font-variant:normal;font-weight:bold;font-stretch:normal;line-height:125%;letter-spacing:0px;word-spacing:0px;fill:#000000;fill-opacity:1;stroke:none;font-family:Open Sans;-inkscape-font-specification:Open Sans Bold"
     id="text3830">
    <path
       d="m -190.79456,58.788151 0,-0.650391 c 0,-0.562494 0.12012,-1.051752 0.36036,-1.467773 0.24023,-0.416009 0.67968,-0.858391 1.31836,-1.327149 0.61522,-0.439445 1.01952,-0.796866 1.21289,-1.072265 0.19921,-0.275382 0.29882,-0.582999 0.29882,-0.922852 0,-0.380849 -0.14063,-0.670888 -0.42187,-0.870117 -0.28126,-0.199208 -0.67383,-0.298817 -1.17774,-0.298828 -0.8789,1.1e-5 -1.88086,0.28712 -3.00585,0.861328 l -0.95801,-1.924805 c 1.30664,-0.732409 2.69238,-1.09862 4.15722,-1.098633 1.20703,1.3e-5 2.16504,0.290052 2.87403,0.870118 0.71483,0.580089 1.07225,1.353526 1.07226,2.320312 -1e-5,0.644541 -0.14649,1.201181 -0.43945,1.669922 -0.29298,0.468758 -0.84962,0.996101 -1.66992,1.582031 -0.56251,0.416022 -0.91993,0.732428 -1.07227,0.949219 -0.14649,0.216802 -0.21973,0.500982 -0.21972,0.852539 l 0,0.527344 -2.32911,0 m -0.28125,3.005859 c 0,-0.492186 0.13184,-0.864256 0.39551,-1.116211 0.26367,-0.25195 0.64746,-0.377927 1.15137,-0.377929 0.48632,2e-6 0.86132,0.128908 1.125,0.386718 0.26953,0.257815 0.40429,0.626955 0.4043,1.107422 -1e-5,0.462892 -0.13477,0.829102 -0.4043,1.098633 -0.26954,0.263672 -0.64454,0.395508 -1.125,0.395508 -0.49219,0 -0.87305,-0.128907 -1.14258,-0.386719 -0.26953,-0.263671 -0.4043,-0.632812 -0.4043,-1.107422"
       id="path3835"
       inkscape:connector-curvature="0" />
  </g>
  <g
     transform="matrix(3.750841,0,0,3.750841,300.77795,-215.41972)"
     style="font-size:18px;font-style:normal;font-variant:normal;font-weight:normal;font-stretch:normal;text-align:start;line-height:125%;letter-spacing:0px;word-spacing:0px;writing-mode:lr-tb;text-anchor:start;fill:#000000;fill-opacity:1;stroke:none;font-family:Aller Display;-inkscape-font-specification:Aller Display"
     id="text3837">
    <path
       d="m -105.84064,49.761018 c -0.072,-0.15599 -0.15,-0.335989 -0.234,-0.54 -0.072,-0.203989 -0.138,-0.413989 -0.198,-0.63 -0.06,-0.215988 -0.114,-0.425988 -0.162,-0.63 -0.048,-0.215988 -0.078,-0.413988 -0.09,-0.594 0.336,-0.119987 0.642,-0.221987 0.918,-0.306 0.288,-0.08399 0.558,-0.149987 0.81,-0.198 0.264,-0.04799 0.522,-0.08399 0.774,-0.108 0.252,-0.02399 0.516,-0.03599 0.792,-0.036 1.452,1.3e-5 2.544,0.330013 3.276003,0.99 0.731992,0.660012 1.097992,1.572011 1.098,2.736 -8e-6,0.528009 -0.09601,0.990009 -0.288,1.386 -0.180008,0.396008 -0.408008,0.732007 -0.684,1.008 -0.264003,0.276007 -0.546003,0.504007 -0.846003,0.684 -0.3,0.180006 -0.57,0.324006 -0.81,0.432 l 0,1.638 c -0.264,0.036 -0.522,0.066 -0.774,0.09 -0.252,0.024 -0.48,0.036 -0.684,0.036 -0.216,4e-6 -0.45,-0.012 -0.702,-0.036 -0.24,-0.024 -0.48,-0.054 -0.72,-0.09 l 0,-3.384 c 0.312,-0.03599 0.618,-0.08999 0.918,-0.162 0.3,-0.08399 0.564,-0.191992 0.792,-0.324 0.24,-0.131992 0.432,-0.293991 0.576,-0.486 0.144,-0.203991 0.216,-0.443991 0.216,-0.72 0,-0.40799 -0.15,-0.71399 -0.45,-0.918 -0.3,-0.215989 -0.702,-0.323989 -1.206,-0.324 -0.228,1.1e-5 -0.432,0.01201 -0.612,0.036 -0.18,0.01201 -0.36,0.04201 -0.54,0.09 -0.168,0.03601 -0.348,0.08401 -0.54,0.144 -0.192,0.06001 -0.402,0.13201 -0.63,0.216 m 2.844,6.678 c 0.24,4e-6 0.486,0.012 0.738,0.036 0.252,0.024 0.516,0.054 0.792,0.09 0.048,0.276003 0.084,0.540003 0.108,0.792 0.024,0.252002 0.036,0.498002 0.036,0.738 0,0.240002 -0.012,0.486001 -0.036,0.738 -0.024,0.252001 -0.06,0.516001 -0.108,0.792 -0.276,0.048 -0.54,0.084 -0.792,0.108 -0.252,0.024 -0.498,0.036 -0.738,0.036 -0.24,0 -0.486,-0.012 -0.738,-0.036 -0.252,-0.024 -0.516,-0.06 -0.792,-0.108 -0.048,-0.275999 -0.084,-0.539999 -0.108,-0.792 -0.024,-0.251999 -0.036,-0.497998 -0.036,-0.738 0,-0.239998 0.012,-0.485998 0.036,-0.738 0.024,-0.251997 0.06,-0.515997 0.108,-0.792 0.276,-0.036 0.54,-0.066 0.792,-0.09 0.252,-0.024 0.498,-0.036 0.738,-0.036"
       id="path3842"
       inkscape:connector-curvature="0" />
  </g>
  <g
     transform="matrix(6.4658135,0,0,6.4658135,805.67,-427.18053)"
     style="font-size:18px;font-style:normal;font-variant:normal;font-weight:bold;font-stretch:normal;text-align:start;line-height:125%;letter-spacing:0px;word-spacing:0px;writing-mode:lr-tb;text-anchor:start;fill:#f2f2f2;fill-opacity:1;stroke:none;font-family:Nimbus Roman No9 L;-inkscape-font-specification:Nimbus Roman No9 L Bold"
     id="text3844">
    <path
       d="m -114.76803,77.875897 c 0,-1.313998 0.144,-1.566 1.278,-2.268 1.638,-1.007999 2.178,-1.746001 2.178,-2.988 0,-1.799998 -1.44,-2.988 -3.6,-2.988 -1.98,0 -3.384,1.080002 -3.384,2.592 0,0.792 0.522,1.368 1.224,1.368 0.684,0 1.134,-0.468 1.134,-1.152 0,-0.359999 -0.09,-0.576 -0.396,-0.918 -0.216,-0.233999 -0.27,-0.342 -0.27,-0.522 0,-0.431999 0.45,-0.72 1.098,-0.72 0.954,0 1.512,0.864002 1.512,2.34 0,0.935999 -0.18,1.566002 -0.774,2.682 -0.432,0.828 -0.576,1.242001 -0.576,1.746 0,0.198 0,0.288001 0.036,0.828 l 0.54,0 m -0.252,1.35 c -0.828,0 -1.53,0.702001 -1.53,1.512 0,0.864 0.666,1.53 1.53,1.53 0.846,0 1.512,-0.666 1.512,-1.512 0,-0.827999 -0.684,-1.53 -1.512,-1.53"
       id="path3849"
       inkscape:connector-curvature="0"
       style="fill:#f2f2f2" />
  </g>
  <rect
     style="fill:#223b64;fill-opacity:1;fill-rule:nonzero;stroke:none"
     id="rect3006-6-9"
     width="40"
     height="40"
     x="-128"
     y="143.99994"
     rx="20"
     ry="20" />
  <rect
     style="fill:#00acff;fill-opacity:1;fill-rule:nonzero;stroke:none"
     id="rect3006-1-5"
     width="40"
     height="40"
     x="-87.999985"
     y="87.828316"
     rx="20"
     ry="20" />
  <rect
     style="fill:#2a7ec5;fill-opacity:1;fill-rule:nonzero;stroke:none"
     id="rect3006-6-1-4-36-6-0-7-0"
     width="40"
     height="40"
     x="-208.0096"
     y="39.93119"
     rx="20"
     ry="20" />
</svg>
